<mxfile host="app.diagrams.net" agent="Mozilla/5.0 (Windows NT 10.0; Win64; x64) AppleWebKit/537.36 (KHTML, like Gecko) Chrome/139.0.0.0 Safari/537.36 Edg/139.0.0.0" version="28.2.0">
  <diagram name="Page-1" id="uO3HSjiqAgcCygR0lLoJ">
    <mxGraphModel dx="3758" dy="5186" grid="1" gridSize="10" guides="1" tooltips="1" connect="1" arrows="1" fold="1" page="1" pageScale="1" pageWidth="850" pageHeight="1100" math="0" shadow="0">
      <root>
        <mxCell id="0" />
        <mxCell id="1" parent="0" />
        <mxCell id="WBCkLrRlEnQxEytkG0Gb-1" value="&lt;div&gt;&lt;font style=&quot;font-size: 18px;&quot;&gt;What is the Retail Domain?&lt;/font&gt;&lt;br&gt;&lt;br&gt;&lt;/div&gt;&lt;div&gt;The retail domain refers to the industry focused on selling goods or services to , either in physical stores, online, or both.&lt;/div&gt;&lt;div&gt;It includes all business processes and technologies used to:&lt;/div&gt;&lt;div&gt;&lt;ul&gt;&lt;li&gt;Buy products from suppliers&lt;/li&gt;&lt;li&gt;Manage inventory and pricing &lt;br&gt;&lt;/li&gt;&lt;li&gt;Sell to customers&lt;/li&gt;&lt;li&gt;Handle payments and returns&lt;/li&gt;&lt;li&gt;Analyze performance&lt;/li&gt;&lt;/ul&gt;&lt;div&gt;&lt;br&gt;&lt;/div&gt;&lt;/div&gt;" style="text;html=1;align=left;verticalAlign=middle;whiteSpace=wrap;rounded=0;fontSize=14;" parent="1" vertex="1">
          <mxGeometry x="40" y="50" width="800" height="190" as="geometry" />
        </mxCell>
        <mxCell id="WBCkLrRlEnQxEytkG0Gb-2" value="" style="shape=table;startSize=0;container=1;collapsible=0;childLayout=tableLayout;" parent="1" vertex="1">
          <mxGeometry x="40" y="280" width="800" height="200" as="geometry" />
        </mxCell>
        <mxCell id="WBCkLrRlEnQxEytkG0Gb-3" value="" style="shape=tableRow;horizontal=0;startSize=0;swimlaneHead=0;swimlaneBody=0;strokeColor=inherit;top=0;left=0;bottom=0;right=0;collapsible=0;dropTarget=0;fillColor=none;points=[[0,0.5],[1,0.5]];portConstraint=eastwest;" parent="WBCkLrRlEnQxEytkG0Gb-2" vertex="1">
          <mxGeometry width="800" height="40" as="geometry" />
        </mxCell>
        <mxCell id="WBCkLrRlEnQxEytkG0Gb-4" value="&lt;div align=&quot;left&quot;&gt;&lt;font style=&quot;font-size: 14px;&quot;&gt;&lt;b&gt;Role&lt;/b&gt;&lt;/font&gt;&lt;/div&gt;" style="shape=partialRectangle;html=1;whiteSpace=wrap;connectable=0;strokeColor=inherit;overflow=hidden;fillColor=none;top=0;left=0;bottom=0;right=0;pointerEvents=1;align=left;" parent="WBCkLrRlEnQxEytkG0Gb-3" vertex="1">
          <mxGeometry width="400" height="40" as="geometry">
            <mxRectangle width="400" height="40" as="alternateBounds" />
          </mxGeometry>
        </mxCell>
        <mxCell id="WBCkLrRlEnQxEytkG0Gb-5" value="&lt;div align=&quot;left&quot;&gt;&lt;font style=&quot;font-size: 14px;&quot;&gt;Description&lt;/font&gt;&lt;/div&gt;" style="shape=partialRectangle;html=1;whiteSpace=wrap;connectable=0;strokeColor=inherit;overflow=hidden;fillColor=none;top=0;left=0;bottom=0;right=0;pointerEvents=1;align=left;" parent="WBCkLrRlEnQxEytkG0Gb-3" vertex="1">
          <mxGeometry x="400" width="400" height="40" as="geometry">
            <mxRectangle width="400" height="40" as="alternateBounds" />
          </mxGeometry>
        </mxCell>
        <mxCell id="WBCkLrRlEnQxEytkG0Gb-6" value="" style="shape=tableRow;horizontal=0;startSize=0;swimlaneHead=0;swimlaneBody=0;strokeColor=inherit;top=0;left=0;bottom=0;right=0;collapsible=0;dropTarget=0;fillColor=none;points=[[0,0.5],[1,0.5]];portConstraint=eastwest;" parent="WBCkLrRlEnQxEytkG0Gb-2" vertex="1">
          <mxGeometry y="40" width="800" height="40" as="geometry" />
        </mxCell>
        <mxCell id="WBCkLrRlEnQxEytkG0Gb-7" value="Retailer" style="shape=partialRectangle;html=1;whiteSpace=wrap;connectable=0;strokeColor=inherit;overflow=hidden;fillColor=none;top=0;left=0;bottom=0;right=0;pointerEvents=1;align=left;" parent="WBCkLrRlEnQxEytkG0Gb-6" vertex="1">
          <mxGeometry width="400" height="40" as="geometry">
            <mxRectangle width="400" height="40" as="alternateBounds" />
          </mxGeometry>
        </mxCell>
        <mxCell id="WBCkLrRlEnQxEytkG0Gb-8" value="Sells products to customers (e.g., Walmart, Amazon)" style="shape=partialRectangle;html=1;whiteSpace=wrap;connectable=0;strokeColor=inherit;overflow=hidden;fillColor=none;top=0;left=0;bottom=0;right=0;pointerEvents=1;align=left;" parent="WBCkLrRlEnQxEytkG0Gb-6" vertex="1">
          <mxGeometry x="400" width="400" height="40" as="geometry">
            <mxRectangle width="400" height="40" as="alternateBounds" />
          </mxGeometry>
        </mxCell>
        <mxCell id="WBCkLrRlEnQxEytkG0Gb-9" value="" style="shape=tableRow;horizontal=0;startSize=0;swimlaneHead=0;swimlaneBody=0;strokeColor=inherit;top=0;left=0;bottom=0;right=0;collapsible=0;dropTarget=0;fillColor=none;points=[[0,0.5],[1,0.5]];portConstraint=eastwest;" parent="WBCkLrRlEnQxEytkG0Gb-2" vertex="1">
          <mxGeometry y="80" width="800" height="40" as="geometry" />
        </mxCell>
        <mxCell id="WBCkLrRlEnQxEytkG0Gb-10" value="Supplier/Vendor" style="shape=partialRectangle;html=1;whiteSpace=wrap;connectable=0;strokeColor=inherit;overflow=hidden;fillColor=none;top=0;left=0;bottom=0;right=0;pointerEvents=1;align=left;" parent="WBCkLrRlEnQxEytkG0Gb-9" vertex="1">
          <mxGeometry width="400" height="40" as="geometry">
            <mxRectangle width="400" height="40" as="alternateBounds" />
          </mxGeometry>
        </mxCell>
        <mxCell id="WBCkLrRlEnQxEytkG0Gb-11" value="Provides goods to the retailer" style="shape=partialRectangle;html=1;whiteSpace=wrap;connectable=0;strokeColor=inherit;overflow=hidden;fillColor=none;top=0;left=0;bottom=0;right=0;pointerEvents=1;align=left;" parent="WBCkLrRlEnQxEytkG0Gb-9" vertex="1">
          <mxGeometry x="400" width="400" height="40" as="geometry">
            <mxRectangle width="400" height="40" as="alternateBounds" />
          </mxGeometry>
        </mxCell>
        <mxCell id="WBCkLrRlEnQxEytkG0Gb-12" value="" style="shape=tableRow;horizontal=0;startSize=0;swimlaneHead=0;swimlaneBody=0;strokeColor=inherit;top=0;left=0;bottom=0;right=0;collapsible=0;dropTarget=0;fillColor=none;points=[[0,0.5],[1,0.5]];portConstraint=eastwest;" parent="WBCkLrRlEnQxEytkG0Gb-2" vertex="1">
          <mxGeometry y="120" width="800" height="40" as="geometry" />
        </mxCell>
        <mxCell id="WBCkLrRlEnQxEytkG0Gb-13" value="Customer" style="shape=partialRectangle;html=1;whiteSpace=wrap;connectable=0;strokeColor=inherit;overflow=hidden;fillColor=none;top=0;left=0;bottom=0;right=0;pointerEvents=1;align=left;" parent="WBCkLrRlEnQxEytkG0Gb-12" vertex="1">
          <mxGeometry width="400" height="40" as="geometry">
            <mxRectangle width="400" height="40" as="alternateBounds" />
          </mxGeometry>
        </mxCell>
        <mxCell id="WBCkLrRlEnQxEytkG0Gb-14" value="The end consumer buying products" style="shape=partialRectangle;html=1;whiteSpace=wrap;connectable=0;strokeColor=inherit;overflow=hidden;fillColor=none;top=0;left=0;bottom=0;right=0;pointerEvents=1;align=left;" parent="WBCkLrRlEnQxEytkG0Gb-12" vertex="1">
          <mxGeometry x="400" width="400" height="40" as="geometry">
            <mxRectangle width="400" height="40" as="alternateBounds" />
          </mxGeometry>
        </mxCell>
        <mxCell id="WBCkLrRlEnQxEytkG0Gb-15" value="" style="shape=tableRow;horizontal=0;startSize=0;swimlaneHead=0;swimlaneBody=0;strokeColor=inherit;top=0;left=0;bottom=0;right=0;collapsible=0;dropTarget=0;fillColor=none;points=[[0,0.5],[1,0.5]];portConstraint=eastwest;" parent="WBCkLrRlEnQxEytkG0Gb-2" vertex="1">
          <mxGeometry y="160" width="800" height="40" as="geometry" />
        </mxCell>
        <mxCell id="WBCkLrRlEnQxEytkG0Gb-16" value="Distributor" style="shape=partialRectangle;html=1;whiteSpace=wrap;connectable=0;strokeColor=inherit;overflow=hidden;fillColor=none;top=0;left=0;bottom=0;right=0;pointerEvents=1;align=left;" parent="WBCkLrRlEnQxEytkG0Gb-15" vertex="1">
          <mxGeometry width="400" height="40" as="geometry">
            <mxRectangle width="400" height="40" as="alternateBounds" />
          </mxGeometry>
        </mxCell>
        <mxCell id="WBCkLrRlEnQxEytkG0Gb-17" value="Moves goods from manufacturers to retailers" style="shape=partialRectangle;html=1;whiteSpace=wrap;connectable=0;strokeColor=inherit;overflow=hidden;fillColor=none;top=0;left=0;bottom=0;right=0;pointerEvents=1;align=left;" parent="WBCkLrRlEnQxEytkG0Gb-15" vertex="1">
          <mxGeometry x="400" width="400" height="40" as="geometry">
            <mxRectangle width="400" height="40" as="alternateBounds" />
          </mxGeometry>
        </mxCell>
        <mxCell id="WBCkLrRlEnQxEytkG0Gb-19" value="&lt;div align=&quot;left&quot;&gt;&lt;b&gt;&lt;font style=&quot;font-size: 16px;&quot;&gt;Key Concepts &amp;amp; Entities in Retail Data Models&lt;/font&gt;&lt;br&gt;&lt;br&gt;&lt;/b&gt;&lt;/div&gt;&lt;div align=&quot;left&quot;&gt;&lt;font style=&quot;font-size: 14px;&quot;&gt;A retail data model is a structured way of representing retail business data -- often used in databases, analytics, or integrations (e.g., with a knowledge graph).&lt;/font&gt;&lt;/div&gt;&lt;div align=&quot;left&quot;&gt;&lt;font style=&quot;font-size: 14px;&quot;&gt;Here are some core entities:&lt;/font&gt;&lt;/div&gt;&lt;div align=&quot;left&quot;&gt;&lt;font style=&quot;font-size: 14px;&quot;&gt;&lt;br&gt;&lt;/font&gt;&lt;/div&gt;" style="text;html=1;align=left;verticalAlign=middle;whiteSpace=wrap;rounded=0;" parent="1" vertex="1">
          <mxGeometry x="40" y="500" width="800" height="110" as="geometry" />
        </mxCell>
        <mxCell id="WBCkLrRlEnQxEytkG0Gb-20" value="" style="shape=table;startSize=0;container=1;collapsible=0;childLayout=tableLayout;" parent="1" vertex="1">
          <mxGeometry x="40" y="600" width="800" height="400" as="geometry" />
        </mxCell>
        <mxCell id="WBCkLrRlEnQxEytkG0Gb-21" value="" style="shape=tableRow;horizontal=0;startSize=0;swimlaneHead=0;swimlaneBody=0;strokeColor=inherit;top=0;left=0;bottom=0;right=0;collapsible=0;dropTarget=0;fillColor=none;points=[[0,0.5],[1,0.5]];portConstraint=eastwest;" parent="WBCkLrRlEnQxEytkG0Gb-20" vertex="1">
          <mxGeometry width="800" height="40" as="geometry" />
        </mxCell>
        <mxCell id="WBCkLrRlEnQxEytkG0Gb-22" value="Entity" style="shape=partialRectangle;html=1;whiteSpace=wrap;connectable=0;strokeColor=inherit;overflow=hidden;fillColor=none;top=0;left=0;bottom=0;right=0;pointerEvents=1;" parent="WBCkLrRlEnQxEytkG0Gb-21" vertex="1">
          <mxGeometry width="400" height="40" as="geometry">
            <mxRectangle width="400" height="40" as="alternateBounds" />
          </mxGeometry>
        </mxCell>
        <mxCell id="WBCkLrRlEnQxEytkG0Gb-23" value="Description" style="shape=partialRectangle;html=1;whiteSpace=wrap;connectable=0;strokeColor=inherit;overflow=hidden;fillColor=none;top=0;left=0;bottom=0;right=0;pointerEvents=1;" parent="WBCkLrRlEnQxEytkG0Gb-21" vertex="1">
          <mxGeometry x="400" width="400" height="40" as="geometry">
            <mxRectangle width="400" height="40" as="alternateBounds" />
          </mxGeometry>
        </mxCell>
        <mxCell id="WBCkLrRlEnQxEytkG0Gb-24" value="" style="shape=tableRow;horizontal=0;startSize=0;swimlaneHead=0;swimlaneBody=0;strokeColor=inherit;top=0;left=0;bottom=0;right=0;collapsible=0;dropTarget=0;fillColor=none;points=[[0,0.5],[1,0.5]];portConstraint=eastwest;" parent="WBCkLrRlEnQxEytkG0Gb-20" vertex="1">
          <mxGeometry y="40" width="800" height="40" as="geometry" />
        </mxCell>
        <mxCell id="WBCkLrRlEnQxEytkG0Gb-25" value="Product" style="shape=partialRectangle;html=1;whiteSpace=wrap;connectable=0;strokeColor=inherit;overflow=hidden;fillColor=none;top=0;left=0;bottom=0;right=0;pointerEvents=1;" parent="WBCkLrRlEnQxEytkG0Gb-24" vertex="1">
          <mxGeometry width="400" height="40" as="geometry">
            <mxRectangle width="400" height="40" as="alternateBounds" />
          </mxGeometry>
        </mxCell>
        <mxCell id="WBCkLrRlEnQxEytkG0Gb-26" value="An item sold (SKU, brand, size, color, etc.)" style="shape=partialRectangle;html=1;whiteSpace=wrap;connectable=0;strokeColor=inherit;overflow=hidden;fillColor=none;top=0;left=0;bottom=0;right=0;pointerEvents=1;" parent="WBCkLrRlEnQxEytkG0Gb-24" vertex="1">
          <mxGeometry x="400" width="400" height="40" as="geometry">
            <mxRectangle width="400" height="40" as="alternateBounds" />
          </mxGeometry>
        </mxCell>
        <mxCell id="WBCkLrRlEnQxEytkG0Gb-27" value="" style="shape=tableRow;horizontal=0;startSize=0;swimlaneHead=0;swimlaneBody=0;strokeColor=inherit;top=0;left=0;bottom=0;right=0;collapsible=0;dropTarget=0;fillColor=none;points=[[0,0.5],[1,0.5]];portConstraint=eastwest;" parent="WBCkLrRlEnQxEytkG0Gb-20" vertex="1">
          <mxGeometry y="80" width="800" height="40" as="geometry" />
        </mxCell>
        <mxCell id="WBCkLrRlEnQxEytkG0Gb-28" value="Category" style="shape=partialRectangle;html=1;whiteSpace=wrap;connectable=0;strokeColor=inherit;overflow=hidden;fillColor=none;top=0;left=0;bottom=0;right=0;pointerEvents=1;" parent="WBCkLrRlEnQxEytkG0Gb-27" vertex="1">
          <mxGeometry width="400" height="40" as="geometry">
            <mxRectangle width="400" height="40" as="alternateBounds" />
          </mxGeometry>
        </mxCell>
        <mxCell id="WBCkLrRlEnQxEytkG0Gb-29" value="Product classification (e.g., Electronics &amp;gt; Phones)" style="shape=partialRectangle;html=1;whiteSpace=wrap;connectable=0;strokeColor=inherit;overflow=hidden;fillColor=none;top=0;left=0;bottom=0;right=0;pointerEvents=1;" parent="WBCkLrRlEnQxEytkG0Gb-27" vertex="1">
          <mxGeometry x="400" width="400" height="40" as="geometry">
            <mxRectangle width="400" height="40" as="alternateBounds" />
          </mxGeometry>
        </mxCell>
        <mxCell id="WBCkLrRlEnQxEytkG0Gb-30" value="" style="shape=tableRow;horizontal=0;startSize=0;swimlaneHead=0;swimlaneBody=0;strokeColor=inherit;top=0;left=0;bottom=0;right=0;collapsible=0;dropTarget=0;fillColor=none;points=[[0,0.5],[1,0.5]];portConstraint=eastwest;" parent="WBCkLrRlEnQxEytkG0Gb-20" vertex="1">
          <mxGeometry y="120" width="800" height="40" as="geometry" />
        </mxCell>
        <mxCell id="WBCkLrRlEnQxEytkG0Gb-31" value="Inventory" style="shape=partialRectangle;html=1;whiteSpace=wrap;connectable=0;strokeColor=inherit;overflow=hidden;fillColor=none;top=0;left=0;bottom=0;right=0;pointerEvents=1;" parent="WBCkLrRlEnQxEytkG0Gb-30" vertex="1">
          <mxGeometry width="400" height="40" as="geometry">
            <mxRectangle width="400" height="40" as="alternateBounds" />
          </mxGeometry>
        </mxCell>
        <mxCell id="WBCkLrRlEnQxEytkG0Gb-32" value="Stock levels by location/store" style="shape=partialRectangle;html=1;whiteSpace=wrap;connectable=0;strokeColor=inherit;overflow=hidden;fillColor=none;top=0;left=0;bottom=0;right=0;pointerEvents=1;" parent="WBCkLrRlEnQxEytkG0Gb-30" vertex="1">
          <mxGeometry x="400" width="400" height="40" as="geometry">
            <mxRectangle width="400" height="40" as="alternateBounds" />
          </mxGeometry>
        </mxCell>
        <mxCell id="WBCkLrRlEnQxEytkG0Gb-33" value="" style="shape=tableRow;horizontal=0;startSize=0;swimlaneHead=0;swimlaneBody=0;strokeColor=inherit;top=0;left=0;bottom=0;right=0;collapsible=0;dropTarget=0;fillColor=none;points=[[0,0.5],[1,0.5]];portConstraint=eastwest;" parent="WBCkLrRlEnQxEytkG0Gb-20" vertex="1">
          <mxGeometry y="160" width="800" height="40" as="geometry" />
        </mxCell>
        <mxCell id="WBCkLrRlEnQxEytkG0Gb-34" value="Price" style="shape=partialRectangle;html=1;whiteSpace=wrap;connectable=0;strokeColor=inherit;overflow=hidden;fillColor=none;top=0;left=0;bottom=0;right=0;pointerEvents=1;" parent="WBCkLrRlEnQxEytkG0Gb-33" vertex="1">
          <mxGeometry width="400" height="40" as="geometry">
            <mxRectangle width="400" height="40" as="alternateBounds" />
          </mxGeometry>
        </mxCell>
        <mxCell id="WBCkLrRlEnQxEytkG0Gb-35" value="Regular price, discount price, promotions" style="shape=partialRectangle;html=1;whiteSpace=wrap;connectable=0;strokeColor=inherit;overflow=hidden;fillColor=none;top=0;left=0;bottom=0;right=0;pointerEvents=1;" parent="WBCkLrRlEnQxEytkG0Gb-33" vertex="1">
          <mxGeometry x="400" width="400" height="40" as="geometry">
            <mxRectangle width="400" height="40" as="alternateBounds" />
          </mxGeometry>
        </mxCell>
        <mxCell id="WBCkLrRlEnQxEytkG0Gb-36" value="" style="shape=tableRow;horizontal=0;startSize=0;swimlaneHead=0;swimlaneBody=0;strokeColor=inherit;top=0;left=0;bottom=0;right=0;collapsible=0;dropTarget=0;fillColor=none;points=[[0,0.5],[1,0.5]];portConstraint=eastwest;" parent="WBCkLrRlEnQxEytkG0Gb-20" vertex="1">
          <mxGeometry y="200" width="800" height="40" as="geometry" />
        </mxCell>
        <mxCell id="WBCkLrRlEnQxEytkG0Gb-37" value="Store / Location" style="shape=partialRectangle;html=1;whiteSpace=wrap;connectable=0;strokeColor=inherit;overflow=hidden;fillColor=none;top=0;left=0;bottom=0;right=0;pointerEvents=1;" parent="WBCkLrRlEnQxEytkG0Gb-36" vertex="1">
          <mxGeometry width="400" height="40" as="geometry">
            <mxRectangle width="400" height="40" as="alternateBounds" />
          </mxGeometry>
        </mxCell>
        <mxCell id="WBCkLrRlEnQxEytkG0Gb-38" value="Where the product is sold (physical or online)" style="shape=partialRectangle;html=1;whiteSpace=wrap;connectable=0;strokeColor=inherit;overflow=hidden;fillColor=none;top=0;left=0;bottom=0;right=0;pointerEvents=1;" parent="WBCkLrRlEnQxEytkG0Gb-36" vertex="1">
          <mxGeometry x="400" width="400" height="40" as="geometry">
            <mxRectangle width="400" height="40" as="alternateBounds" />
          </mxGeometry>
        </mxCell>
        <mxCell id="WBCkLrRlEnQxEytkG0Gb-39" value="" style="shape=tableRow;horizontal=0;startSize=0;swimlaneHead=0;swimlaneBody=0;strokeColor=inherit;top=0;left=0;bottom=0;right=0;collapsible=0;dropTarget=0;fillColor=none;points=[[0,0.5],[1,0.5]];portConstraint=eastwest;" parent="WBCkLrRlEnQxEytkG0Gb-20" vertex="1">
          <mxGeometry y="240" width="800" height="40" as="geometry" />
        </mxCell>
        <mxCell id="WBCkLrRlEnQxEytkG0Gb-40" value="Customer" style="shape=partialRectangle;html=1;whiteSpace=wrap;connectable=0;strokeColor=inherit;overflow=hidden;fillColor=none;top=0;left=0;bottom=0;right=0;pointerEvents=1;" parent="WBCkLrRlEnQxEytkG0Gb-39" vertex="1">
          <mxGeometry width="400" height="40" as="geometry">
            <mxRectangle width="400" height="40" as="alternateBounds" />
          </mxGeometry>
        </mxCell>
        <mxCell id="WBCkLrRlEnQxEytkG0Gb-41" value="The buyer, may include loyalty or profile info" style="shape=partialRectangle;html=1;whiteSpace=wrap;connectable=0;strokeColor=inherit;overflow=hidden;fillColor=none;top=0;left=0;bottom=0;right=0;pointerEvents=1;" parent="WBCkLrRlEnQxEytkG0Gb-39" vertex="1">
          <mxGeometry x="400" width="400" height="40" as="geometry">
            <mxRectangle width="400" height="40" as="alternateBounds" />
          </mxGeometry>
        </mxCell>
        <mxCell id="WBCkLrRlEnQxEytkG0Gb-42" value="" style="shape=tableRow;horizontal=0;startSize=0;swimlaneHead=0;swimlaneBody=0;strokeColor=inherit;top=0;left=0;bottom=0;right=0;collapsible=0;dropTarget=0;fillColor=none;points=[[0,0.5],[1,0.5]];portConstraint=eastwest;" parent="WBCkLrRlEnQxEytkG0Gb-20" vertex="1">
          <mxGeometry y="280" width="800" height="40" as="geometry" />
        </mxCell>
        <mxCell id="WBCkLrRlEnQxEytkG0Gb-43" value="Order" style="shape=partialRectangle;html=1;whiteSpace=wrap;connectable=0;strokeColor=inherit;overflow=hidden;fillColor=none;top=0;left=0;bottom=0;right=0;pointerEvents=1;" parent="WBCkLrRlEnQxEytkG0Gb-42" vertex="1">
          <mxGeometry width="400" height="40" as="geometry">
            <mxRectangle width="400" height="40" as="alternateBounds" />
          </mxGeometry>
        </mxCell>
        <mxCell id="WBCkLrRlEnQxEytkG0Gb-44" value="A customer purchase, with line items and status." style="shape=partialRectangle;html=1;whiteSpace=wrap;connectable=0;strokeColor=inherit;overflow=hidden;fillColor=none;top=0;left=0;bottom=0;right=0;pointerEvents=1;" parent="WBCkLrRlEnQxEytkG0Gb-42" vertex="1">
          <mxGeometry x="400" width="400" height="40" as="geometry">
            <mxRectangle width="400" height="40" as="alternateBounds" />
          </mxGeometry>
        </mxCell>
        <mxCell id="WBCkLrRlEnQxEytkG0Gb-45" value="" style="shape=tableRow;horizontal=0;startSize=0;swimlaneHead=0;swimlaneBody=0;strokeColor=inherit;top=0;left=0;bottom=0;right=0;collapsible=0;dropTarget=0;fillColor=none;points=[[0,0.5],[1,0.5]];portConstraint=eastwest;" parent="WBCkLrRlEnQxEytkG0Gb-20" vertex="1">
          <mxGeometry y="320" width="800" height="40" as="geometry" />
        </mxCell>
        <mxCell id="WBCkLrRlEnQxEytkG0Gb-46" value="Sales" style="shape=partialRectangle;html=1;whiteSpace=wrap;connectable=0;strokeColor=inherit;overflow=hidden;fillColor=none;top=0;left=0;bottom=0;right=0;pointerEvents=1;" parent="WBCkLrRlEnQxEytkG0Gb-45" vertex="1">
          <mxGeometry width="400" height="40" as="geometry">
            <mxRectangle width="400" height="40" as="alternateBounds" />
          </mxGeometry>
        </mxCell>
        <mxCell id="WBCkLrRlEnQxEytkG0Gb-47" value="Transactions, often aggregated by day/store/product." style="shape=partialRectangle;html=1;whiteSpace=wrap;connectable=0;strokeColor=inherit;overflow=hidden;fillColor=none;top=0;left=0;bottom=0;right=0;pointerEvents=1;" parent="WBCkLrRlEnQxEytkG0Gb-45" vertex="1">
          <mxGeometry x="400" width="400" height="40" as="geometry">
            <mxRectangle width="400" height="40" as="alternateBounds" />
          </mxGeometry>
        </mxCell>
        <mxCell id="WBCkLrRlEnQxEytkG0Gb-48" value="" style="shape=tableRow;horizontal=0;startSize=0;swimlaneHead=0;swimlaneBody=0;strokeColor=inherit;top=0;left=0;bottom=0;right=0;collapsible=0;dropTarget=0;fillColor=none;points=[[0,0.5],[1,0.5]];portConstraint=eastwest;" parent="WBCkLrRlEnQxEytkG0Gb-20" vertex="1">
          <mxGeometry y="360" width="800" height="40" as="geometry" />
        </mxCell>
        <mxCell id="WBCkLrRlEnQxEytkG0Gb-49" value="Promotion" style="shape=partialRectangle;html=1;whiteSpace=wrap;connectable=0;strokeColor=inherit;overflow=hidden;fillColor=none;top=0;left=0;bottom=0;right=0;pointerEvents=1;" parent="WBCkLrRlEnQxEytkG0Gb-48" vertex="1">
          <mxGeometry width="400" height="40" as="geometry">
            <mxRectangle width="400" height="40" as="alternateBounds" />
          </mxGeometry>
        </mxCell>
        <mxCell id="WBCkLrRlEnQxEytkG0Gb-50" value="Discounts, campaigns, or coupons." style="shape=partialRectangle;html=1;whiteSpace=wrap;connectable=0;strokeColor=inherit;overflow=hidden;fillColor=none;top=0;left=0;bottom=0;right=0;pointerEvents=1;" parent="WBCkLrRlEnQxEytkG0Gb-48" vertex="1">
          <mxGeometry x="400" width="400" height="40" as="geometry">
            <mxRectangle width="400" height="40" as="alternateBounds" />
          </mxGeometry>
        </mxCell>
        <mxCell id="WBCkLrRlEnQxEytkG0Gb-51" value="&lt;div&gt;&lt;b&gt;What Is a Retail Data Model Used For ?&lt;/b&gt;&lt;/div&gt;&lt;div&gt;&lt;ul&gt;&lt;li&gt;Inventory management: Track what products are in stock, low, or overstocked.&lt;/li&gt;&lt;li&gt;Pricing: Manage dynamic pricing, discounts, and seasonal pricing.&lt;/li&gt;&lt;li&gt;Sales analytics: Understand what&#39;s selling well, where, and when.&lt;/li&gt;&lt;li&gt;Customer insights: Segment customers by behavior or demographics.&lt;/li&gt;&lt;li&gt;Product recommendation engines: Based on pruchase history or trends.&lt;br&gt;&lt;/li&gt;&lt;/ul&gt;&lt;/div&gt;" style="text;html=1;align=left;verticalAlign=middle;whiteSpace=wrap;rounded=0;fontSize=14;" parent="1" vertex="1">
          <mxGeometry x="40" y="1040" width="800" height="120" as="geometry" />
        </mxCell>
        <mxCell id="WBCkLrRlEnQxEytkG0Gb-52" value="&lt;div&gt;&lt;b&gt;Simple Example: Retail Data Model (Entity Relationship)&lt;/b&gt;&lt;/div&gt;&lt;div&gt;&lt;br&gt;&lt;/div&gt;&lt;div&gt;Customer --- &amp;lt; Order&amp;nbsp; &amp;gt; --- Product &lt;br&gt;&lt;/div&gt;&lt;div&gt;&amp;nbsp;&amp;nbsp;&amp;nbsp;&amp;nbsp;&amp;nbsp;&amp;nbsp;&amp;nbsp;&amp;nbsp;&amp;nbsp;&amp;nbsp;&amp;nbsp;&amp;nbsp;&amp;nbsp;&amp;nbsp;&amp;nbsp;&amp;nbsp;&amp;nbsp;&amp;nbsp;&amp;nbsp;&amp;nbsp;&amp;nbsp; |&amp;nbsp;&amp;nbsp;&amp;nbsp;&amp;nbsp;&amp;nbsp;&amp;nbsp;&amp;nbsp;&amp;nbsp;&amp;nbsp;&amp;nbsp;&amp;nbsp;&amp;nbsp;&amp;nbsp;&amp;nbsp;&amp;nbsp;&amp;nbsp;&amp;nbsp;&amp;nbsp;&amp;nbsp;&amp;nbsp;&amp;nbsp;&amp;nbsp;&amp;nbsp;&amp;nbsp; |&lt;/div&gt;&lt;div&gt;&amp;nbsp;&amp;nbsp;&amp;nbsp;&amp;nbsp;&amp;nbsp;&amp;nbsp;&amp;nbsp;&amp;nbsp;&amp;nbsp;&amp;nbsp;&amp;nbsp;&amp;nbsp;&amp;nbsp;&amp;nbsp;&amp;nbsp;&amp;nbsp;&amp;nbsp; Address&amp;nbsp;&amp;nbsp;&amp;nbsp;&amp;nbsp;&amp;nbsp;&amp;nbsp;&amp;nbsp;&amp;nbsp;&amp;nbsp;&amp;nbsp;&amp;nbsp;&amp;nbsp; Category&lt;br&gt;&amp;nbsp;&amp;nbsp;&amp;nbsp;&amp;nbsp;&amp;nbsp;&amp;nbsp;&amp;nbsp;&amp;nbsp;&amp;nbsp;&amp;nbsp;&amp;nbsp;&amp;nbsp;&amp;nbsp;&amp;nbsp;&amp;nbsp;&amp;nbsp;&amp;nbsp;&amp;nbsp;&amp;nbsp;&amp;nbsp;&amp;nbsp;&amp;nbsp;&amp;nbsp;&amp;nbsp;&amp;nbsp;&amp;nbsp;&amp;nbsp;&amp;nbsp;&amp;nbsp;&amp;nbsp;&amp;nbsp;&amp;nbsp;&amp;nbsp;&amp;nbsp;&amp;nbsp;&amp;nbsp;&amp;nbsp;&amp;nbsp;&amp;nbsp;&amp;nbsp;&amp;nbsp;&amp;nbsp;&amp;nbsp;&amp;nbsp;&amp;nbsp;&amp;nbsp;&amp;nbsp; |&lt;/div&gt;&lt;div&gt;&amp;nbsp;&amp;nbsp;&amp;nbsp;&amp;nbsp;&amp;nbsp;&amp;nbsp;&amp;nbsp;&amp;nbsp;&amp;nbsp;&amp;nbsp;&amp;nbsp;&amp;nbsp;&amp;nbsp;&amp;nbsp;&amp;nbsp;&amp;nbsp;&amp;nbsp;&amp;nbsp;&amp;nbsp;&amp;nbsp;&amp;nbsp;&amp;nbsp;&amp;nbsp;&amp;nbsp;&amp;nbsp;&amp;nbsp;&amp;nbsp;&amp;nbsp;&amp;nbsp;&amp;nbsp;&amp;nbsp;&amp;nbsp;&amp;nbsp;&amp;nbsp;&amp;nbsp;&amp;nbsp;&amp;nbsp;&amp;nbsp;&amp;nbsp;&amp;nbsp;&amp;nbsp;&amp;nbsp; Promotion&lt;/div&gt;&lt;div&gt;&lt;br&gt;&lt;/div&gt;&lt;div&gt;&lt;ul&gt;&lt;li&gt;A customer places an order&lt;/li&gt;&lt;li&gt;Each order has multiple products&lt;/li&gt;&lt;li&gt;Products belong to categories&lt;/li&gt;&lt;li&gt;Promotions can apply to products or categories&lt;br&gt;&lt;/li&gt;&lt;/ul&gt;&lt;/div&gt;" style="text;html=1;align=left;verticalAlign=middle;whiteSpace=wrap;rounded=0;fontSize=14;" parent="1" vertex="1">
          <mxGeometry x="40" y="1200" width="790" height="240" as="geometry" />
        </mxCell>
        <mxCell id="i7XMFBIdNLqyE7T31VC0-1" value="Category" style="swimlane;fontStyle=1;align=center;verticalAlign=top;childLayout=stackLayout;horizontal=1;startSize=26;horizontalStack=0;resizeParent=1;resizeParentMax=0;resizeLast=0;collapsible=1;marginBottom=0;whiteSpace=wrap;html=1;" parent="1" vertex="1">
          <mxGeometry y="2160" width="160" height="60" as="geometry" />
        </mxCell>
        <mxCell id="i7XMFBIdNLqyE7T31VC0-2" value="+ Name: string" style="text;strokeColor=none;fillColor=none;align=left;verticalAlign=top;spacingLeft=4;spacingRight=4;overflow=hidden;rotatable=0;points=[[0,0.5],[1,0.5]];portConstraint=eastwest;whiteSpace=wrap;html=1;" parent="i7XMFBIdNLqyE7T31VC0-1" vertex="1">
          <mxGeometry y="26" width="160" height="26" as="geometry" />
        </mxCell>
        <mxCell id="i7XMFBIdNLqyE7T31VC0-3" value="" style="line;strokeWidth=1;fillColor=none;align=left;verticalAlign=middle;spacingTop=-1;spacingLeft=3;spacingRight=3;rotatable=0;labelPosition=right;points=[];portConstraint=eastwest;strokeColor=inherit;" parent="i7XMFBIdNLqyE7T31VC0-1" vertex="1">
          <mxGeometry y="52" width="160" height="8" as="geometry" />
        </mxCell>
        <mxCell id="i7XMFBIdNLqyE7T31VC0-5" value="Customer" style="swimlane;fontStyle=1;align=center;verticalAlign=top;childLayout=stackLayout;horizontal=1;startSize=26;horizontalStack=0;resizeParent=1;resizeParentMax=0;resizeLast=0;collapsible=1;marginBottom=0;whiteSpace=wrap;html=1;" parent="1" vertex="1">
          <mxGeometry y="1480" width="240" height="450" as="geometry" />
        </mxCell>
        <mxCell id="i7XMFBIdNLqyE7T31VC0-15" value="+ CustomerID: UUID" style="text;strokeColor=none;fillColor=none;align=left;verticalAlign=top;spacingLeft=4;spacingRight=4;overflow=hidden;rotatable=0;points=[[0,0.5],[1,0.5]];portConstraint=eastwest;whiteSpace=wrap;html=1;" parent="i7XMFBIdNLqyE7T31VC0-5" vertex="1">
          <mxGeometry y="26" width="240" height="26" as="geometry" />
        </mxCell>
        <mxCell id="i7XMFBIdNLqyE7T31VC0-9" value="+ Name: string" style="text;strokeColor=none;fillColor=none;align=left;verticalAlign=top;spacingLeft=4;spacingRight=4;overflow=hidden;rotatable=0;points=[[0,0.5],[1,0.5]];portConstraint=eastwest;whiteSpace=wrap;html=1;" parent="i7XMFBIdNLqyE7T31VC0-5" vertex="1">
          <mxGeometry y="52" width="240" height="26" as="geometry" />
        </mxCell>
        <mxCell id="i7XMFBIdNLqyE7T31VC0-6" value="+ Email: string" style="text;strokeColor=none;fillColor=none;align=left;verticalAlign=top;spacingLeft=4;spacingRight=4;overflow=hidden;rotatable=0;points=[[0,0.5],[1,0.5]];portConstraint=eastwest;whiteSpace=wrap;html=1;" parent="i7XMFBIdNLqyE7T31VC0-5" vertex="1">
          <mxGeometry y="78" width="240" height="26" as="geometry" />
        </mxCell>
        <mxCell id="i7XMFBIdNLqyE7T31VC0-16" value="+ Phone: string" style="text;strokeColor=none;fillColor=none;align=left;verticalAlign=top;spacingLeft=4;spacingRight=4;overflow=hidden;rotatable=0;points=[[0,0.5],[1,0.5]];portConstraint=eastwest;whiteSpace=wrap;html=1;" parent="i7XMFBIdNLqyE7T31VC0-5" vertex="1">
          <mxGeometry y="104" width="240" height="26" as="geometry" />
        </mxCell>
        <mxCell id="i7XMFBIdNLqyE7T31VC0-17" value="+ DateOfBirth: Datetime" style="text;strokeColor=none;fillColor=none;align=left;verticalAlign=top;spacingLeft=4;spacingRight=4;overflow=hidden;rotatable=0;points=[[0,0.5],[1,0.5]];portConstraint=eastwest;whiteSpace=wrap;html=1;" parent="i7XMFBIdNLqyE7T31VC0-5" vertex="1">
          <mxGeometry y="130" width="240" height="26" as="geometry" />
        </mxCell>
        <mxCell id="i7XMFBIdNLqyE7T31VC0-18" value="+ Gender: boolean" style="text;strokeColor=none;fillColor=none;align=left;verticalAlign=top;spacingLeft=4;spacingRight=4;overflow=hidden;rotatable=0;points=[[0,0.5],[1,0.5]];portConstraint=eastwest;whiteSpace=wrap;html=1;" parent="i7XMFBIdNLqyE7T31VC0-5" vertex="1">
          <mxGeometry y="156" width="240" height="26" as="geometry" />
        </mxCell>
        <mxCell id="i7XMFBIdNLqyE7T31VC0-20" value="+ BillingAddress: string" style="text;strokeColor=none;fillColor=none;align=left;verticalAlign=top;spacingLeft=4;spacingRight=4;overflow=hidden;rotatable=0;points=[[0,0.5],[1,0.5]];portConstraint=eastwest;whiteSpace=wrap;html=1;" parent="i7XMFBIdNLqyE7T31VC0-5" vertex="1">
          <mxGeometry y="182" width="240" height="26" as="geometry" />
        </mxCell>
        <mxCell id="i7XMFBIdNLqyE7T31VC0-19" value="+ ShippingAddress: string" style="text;strokeColor=none;fillColor=none;align=left;verticalAlign=top;spacingLeft=4;spacingRight=4;overflow=hidden;rotatable=0;points=[[0,0.5],[1,0.5]];portConstraint=eastwest;whiteSpace=wrap;html=1;" parent="i7XMFBIdNLqyE7T31VC0-5" vertex="1">
          <mxGeometry y="208" width="240" height="26" as="geometry" />
        </mxCell>
        <mxCell id="i7XMFBIdNLqyE7T31VC0-22" value="+ RegistrationDate: Datetime" style="text;strokeColor=none;fillColor=none;align=left;verticalAlign=top;spacingLeft=4;spacingRight=4;overflow=hidden;rotatable=0;points=[[0,0.5],[1,0.5]];portConstraint=eastwest;whiteSpace=wrap;html=1;" parent="i7XMFBIdNLqyE7T31VC0-5" vertex="1">
          <mxGeometry y="234" width="240" height="26" as="geometry" />
        </mxCell>
        <mxCell id="i7XMFBIdNLqyE7T31VC0-21" value="+ LoyaltyPoints: float" style="text;strokeColor=none;fillColor=none;align=left;verticalAlign=top;spacingLeft=4;spacingRight=4;overflow=hidden;rotatable=0;points=[[0,0.5],[1,0.5]];portConstraint=eastwest;whiteSpace=wrap;html=1;" parent="i7XMFBIdNLqyE7T31VC0-5" vertex="1">
          <mxGeometry y="260" width="240" height="26" as="geometry" />
        </mxCell>
        <mxCell id="i7XMFBIdNLqyE7T31VC0-23" value="+ preferredLanguage: string" style="text;strokeColor=none;fillColor=none;align=left;verticalAlign=top;spacingLeft=4;spacingRight=4;overflow=hidden;rotatable=0;points=[[0,0.5],[1,0.5]];portConstraint=eastwest;whiteSpace=wrap;html=1;" parent="i7XMFBIdNLqyE7T31VC0-5" vertex="1">
          <mxGeometry y="286" width="240" height="26" as="geometry" />
        </mxCell>
        <mxCell id="i7XMFBIdNLqyE7T31VC0-24" value="+ AccountStatus: string" style="text;strokeColor=none;fillColor=none;align=left;verticalAlign=top;spacingLeft=4;spacingRight=4;overflow=hidden;rotatable=0;points=[[0,0.5],[1,0.5]];portConstraint=eastwest;whiteSpace=wrap;html=1;" parent="i7XMFBIdNLqyE7T31VC0-5" vertex="1">
          <mxGeometry y="312" width="240" height="26" as="geometry" />
        </mxCell>
        <mxCell id="i7XMFBIdNLqyE7T31VC0-7" value="" style="line;strokeWidth=1;fillColor=none;align=left;verticalAlign=middle;spacingTop=-1;spacingLeft=3;spacingRight=3;rotatable=0;labelPosition=right;points=[];portConstraint=eastwest;strokeColor=inherit;" parent="i7XMFBIdNLqyE7T31VC0-5" vertex="1">
          <mxGeometry y="338" width="240" height="8" as="geometry" />
        </mxCell>
        <mxCell id="i7XMFBIdNLqyE7T31VC0-29" value="+ PlacesOrder(type): type" style="text;strokeColor=none;fillColor=none;align=left;verticalAlign=top;spacingLeft=4;spacingRight=4;overflow=hidden;rotatable=0;points=[[0,0.5],[1,0.5]];portConstraint=eastwest;whiteSpace=wrap;html=1;" parent="i7XMFBIdNLqyE7T31VC0-5" vertex="1">
          <mxGeometry y="346" width="240" height="26" as="geometry" />
        </mxCell>
        <mxCell id="i7XMFBIdNLqyE7T31VC0-30" value="+ MakesPayment(type): type" style="text;strokeColor=none;fillColor=none;align=left;verticalAlign=top;spacingLeft=4;spacingRight=4;overflow=hidden;rotatable=0;points=[[0,0.5],[1,0.5]];portConstraint=eastwest;whiteSpace=wrap;html=1;" parent="i7XMFBIdNLqyE7T31VC0-5" vertex="1">
          <mxGeometry y="372" width="240" height="26" as="geometry" />
        </mxCell>
        <mxCell id="i7XMFBIdNLqyE7T31VC0-31" value="+ HasReview(type): type" style="text;strokeColor=none;fillColor=none;align=left;verticalAlign=top;spacingLeft=4;spacingRight=4;overflow=hidden;rotatable=0;points=[[0,0.5],[1,0.5]];portConstraint=eastwest;whiteSpace=wrap;html=1;" parent="i7XMFBIdNLqyE7T31VC0-5" vertex="1">
          <mxGeometry y="398" width="240" height="26" as="geometry" />
        </mxCell>
        <mxCell id="i7XMFBIdNLqyE7T31VC0-32" value="+ HasCart(type): type" style="text;strokeColor=none;fillColor=none;align=left;verticalAlign=top;spacingLeft=4;spacingRight=4;overflow=hidden;rotatable=0;points=[[0,0.5],[1,0.5]];portConstraint=eastwest;whiteSpace=wrap;html=1;" parent="i7XMFBIdNLqyE7T31VC0-5" vertex="1">
          <mxGeometry y="424" width="240" height="26" as="geometry" />
        </mxCell>
        <mxCell id="i7XMFBIdNLqyE7T31VC0-10" value="&lt;div&gt;&lt;b&gt;&lt;font style=&quot;font-size: 16px;&quot;&gt;Full Retail Data Model Components&lt;/font&gt;&lt;/b&gt;&lt;/div&gt;&lt;div&gt;&lt;br&gt;&lt;/div&gt;&lt;div&gt;1. Customer Management&lt;/div&gt;&lt;div&gt;&lt;ul&gt;&lt;li&gt; Customers&lt;/li&gt;&lt;li&gt;Addresses&lt;/li&gt;&lt;li&gt;Contact Details&lt;/li&gt;&lt;/ul&gt;&lt;div&gt;2. Product &amp;amp; Inventory&lt;/div&gt;&lt;div&gt;&lt;ul&gt;&lt;li&gt;Products &lt;br&gt;&lt;/li&gt;&lt;li&gt;Categories &lt;br&gt;&lt;/li&gt;&lt;li&gt;Inventory Levels&lt;/li&gt;&lt;li&gt;Warehouses or Stock Locations&lt;/li&gt;&lt;/ul&gt;&lt;div&gt;3. Sales (Orders)&lt;/div&gt;&lt;div&gt;&lt;ul&gt;&lt;li&gt;Orders &lt;br&gt;&lt;/li&gt;&lt;li&gt;Order Items &lt;br&gt;&lt;/li&gt;&lt;li&gt;Payments&lt;/li&gt;&lt;li&gt;Shipping / Delivery&lt;/li&gt;&lt;/ul&gt;&lt;div&gt;4. Purchasing (Procurement)&lt;/div&gt;&lt;div&gt;&lt;ul&gt;&lt;li&gt;Suppliers &lt;br&gt;&lt;/li&gt;&lt;li&gt;Purchase Orders &lt;br&gt;&lt;/li&gt;&lt;li&gt;Purchase Order Items&lt;/li&gt;&lt;li&gt;Goods Receipts &lt;br&gt;&lt;/li&gt;&lt;/ul&gt;&lt;div&gt;5. Accounting / Finance &lt;br&gt;&lt;/div&gt;&lt;div&gt;&lt;ul&gt;&lt;li&gt;Invoices &lt;br&gt;&lt;/li&gt;&lt;li&gt;Payments&lt;/li&gt;&lt;li&gt;Returns / Refunds&lt;/li&gt;&lt;/ul&gt;&lt;div&gt;6. Staff / Admin&lt;/div&gt;&lt;div&gt;&lt;ul&gt;&lt;li&gt;Users &lt;br&gt;&lt;/li&gt;&lt;li&gt;Roles &amp;amp; Permissions&lt;/li&gt;&lt;/ul&gt;&lt;div&gt;7. Reports / Analytics&lt;/div&gt;&lt;div&gt;&lt;ul&gt;&lt;li&gt;Sales reports&lt;/li&gt;&lt;li&gt;Inventory levels &lt;br&gt;&lt;/li&gt;&lt;li&gt;Purchase history&lt;br&gt;&lt;/li&gt;&lt;/ul&gt;&lt;/div&gt;&lt;/div&gt;&lt;/div&gt;&lt;/div&gt;&lt;/div&gt;&lt;/div&gt;&lt;/div&gt;" style="text;html=1;align=left;verticalAlign=middle;whiteSpace=wrap;rounded=0;fontSize=14;" parent="1" vertex="1">
          <mxGeometry x="-520" y="640" width="520" height="760" as="geometry" />
        </mxCell>
        <mxCell id="i7XMFBIdNLqyE7T31VC0-11" value=":Customer        rdf:type owl:Class .&#xa;:Order           rdf:type owl:Class .&#xa;:OrderItem       rdf:type owl:Class .&#xa;:Product         rdf:type owl:Class .&#xa;:Category        rdf:type owl:Class .&#xa;:Payment         rdf:type owl:Class .&#xa;:Supplier        rdf:type owl:Class .&#xa;:Purchase        rdf:type owl:Class .&#xa;:PurchaseItem    rdf:type owl:Class ." style="text;whiteSpace=wrap;" parent="1" vertex="1">
          <mxGeometry x="-790" y="640" width="230" height="150" as="geometry" />
        </mxCell>
        <mxCell id="i7XMFBIdNLqyE7T31VC0-12" value="# Customer attributes&#xa;:customerID      rdf:type owl:DatatypeProperty ;&#xa;                 rdfs:domain :Customer ;&#xa;                 rdfs:range xsd:string .&#xa;&#xa;:email           rdf:type owl:DatatypeProperty ;&#xa;                 rdfs:domain :Customer ;&#xa;                 rdfs:range xsd:string .&#xa;&#xa;:name            rdf:type owl:DatatypeProperty ;&#xa;                 rdfs:domain :Customer ;&#xa;                 rdfs:range xsd:string .&#xa;&#xa;# Product attributes&#xa;:productID       rdf:type owl:DatatypeProperty ;&#xa;                 rdfs:domain :Product ;&#xa;                 rdfs:range xsd:string .&#xa;&#xa;:price           rdf:type owl:DatatypeProperty ;&#xa;                 rdfs:domain :Product ;&#xa;                 rdfs:range xsd:decimal .&#xa;&#xa;:stockQuantity   rdf:type owl:DatatypeProperty ;&#xa;                 rdfs:domain :Product ;&#xa;                 rdfs:range xsd:integer ." style="text;whiteSpace=wrap;" parent="1" vertex="1">
          <mxGeometry x="-850" y="800" width="290" height="380" as="geometry" />
        </mxCell>
        <mxCell id="i7XMFBIdNLqyE7T31VC0-13" value="# A customer places an order&#xa;:placesOrder     rdf:type owl:ObjectProperty ;&#xa;                 rdfs:domain :Customer ;&#xa;                 rdfs:range :Order .&#xa;&#xa;# An order has items&#xa;:hasOrderItem    rdf:type owl:ObjectProperty ;&#xa;                 rdfs:domain :Order ;&#xa;                 rdfs:range :OrderItem .&#xa;&#xa;# An order item references a product&#xa;:referencesProduct rdf:type owl:ObjectProperty ;&#xa;                   rdfs:domain :OrderItem ;&#xa;                   rdfs:range :Product .&#xa;&#xa;# A product belongs to a category&#xa;:belongsToCategory rdf:type owl:ObjectProperty ;&#xa;                   rdfs:domain :Product ;&#xa;                   rdfs:range :Category .&#xa;&#xa;# An order is paid with a payment&#xa;:hasPayment      rdf:type owl:ObjectProperty ;&#xa;                 rdfs:domain :Order ;&#xa;                 rdfs:range :Payment .&#xa;&#xa;# A supplier supplies purchases&#xa;:supplies        rdf:type owl:ObjectProperty ;&#xa;                 rdfs:domain :Supplier ;&#xa;                 rdfs:range :Purchase .&#xa;&#xa;# A purchase has items&#xa;:hasPurchaseItem rdf:type owl:ObjectProperty ;&#xa;                 rdfs:domain :Purchase ;&#xa;                 rdfs:range :PurchaseItem .&#xa;&#xa;# A purchase item references a product&#xa;:purchaseItemProduct rdf:type owl:ObjectProperty ;&#xa;                     rdfs:domain :PurchaseItem ;&#xa;                     rdfs:range :Product ." style="text;whiteSpace=wrap;" parent="1" vertex="1">
          <mxGeometry x="-850" y="1200" width="300" height="590" as="geometry" />
        </mxCell>
        <UserObject label="@prefix : &lt;http://example.com/retail#&gt; .&#xa;@prefix rdf: &lt;http://www.w3.org/1999/02/22-rdf-syntax-ns#&gt; .&#xa;@prefix owl: &lt;http://www.w3.org/2002/07/owl#&gt; .&#xa;@prefix rdfs: &lt;http://www.w3.org/2000/01/rdf-schema#&gt; .&#xa;@prefix xsd: &lt;http://www.w3.org/2001/XMLSchema#&gt; .&#xa;&#xa;### ---------------------------&#xa;### Class: Customer&#xa;### ---------------------------&#xa;:Customer rdf:type owl:Class ;&#xa;          rdfs:label &quot;Customer&quot; ;&#xa;          rdfs:comment &quot;A retail customer who places orders.&quot; .&#xa;&#xa;### ---------------------------&#xa;### Datatype Properties&#xa;### ---------------------------&#xa;&#xa;:customerID rdf:type owl:DatatypeProperty ;&#xa;            rdfs:domain :Customer ;&#xa;            rdfs:range xsd:string ;&#xa;            rdfs:label &quot;Customer ID&quot; ;&#xa;            rdfs:comment &quot;Unique identifier for the customer.&quot; .&#xa;&#xa;:name rdf:type owl:DatatypeProperty ;&#xa;      rdfs:domain :Customer ;&#xa;      rdfs:range xsd:string ;&#xa;      rdfs:label &quot;Name&quot; ;&#xa;      rdfs:comment &quot;Full name of the customer.&quot; .&#xa;&#xa;:email rdf:type owl:DatatypeProperty ;&#xa;       rdfs:domain :Customer ;&#xa;       rdfs:range xsd:string ;&#xa;       rdfs:label &quot;Email&quot; ;&#xa;       rdfs:comment &quot;Customer email address.&quot; .&#xa;&#xa;:phone rdf:type owl:DatatypeProperty ;&#xa;       rdfs:domain :Customer ;&#xa;       rdfs:range xsd:string ;&#xa;       rdfs:label &quot;Phone&quot; ;&#xa;       rdfs:comment &quot;Customer phone number.&quot; .&#xa;&#xa;:dateOfBirth rdf:type owl:DatatypeProperty ;&#xa;             rdfs:domain :Customer ;&#xa;             rdfs:range xsd:date ;&#xa;             rdfs:label &quot;Date of Birth&quot; ;&#xa;             rdfs:comment &quot;Customer&#39;s date of birth.&quot; .&#xa;&#xa;:gender rdf:type owl:DatatypeProperty ;&#xa;        rdfs:domain :Customer ;&#xa;        rdfs:range xsd:string ;&#xa;        rdfs:label &quot;Gender&quot; ;&#xa;        rdfs:comment &quot;Gender of the customer.&quot; .&#xa;&#xa;:registrationDate rdf:type owl:DatatypeProperty ;&#xa;                  rdfs:domain :Customer ;&#xa;                  rdfs:range xsd:dateTime ;&#xa;                  rdfs:label &quot;Registration Date&quot; ;&#xa;                  rdfs:comment &quot;Date when the customer registered.&quot; .&#xa;&#xa;:accountStatus rdf:type owl:DatatypeProperty ;&#xa;               rdfs:domain :Customer ;&#xa;               rdfs:range xsd:string ;&#xa;               rdfs:label &quot;Account Status&quot; ;&#xa;               rdfs:comment &quot;Status of the customer account (active, inactive, suspended).&quot; .&#xa;&#xa;:loyaltyPoints rdf:type owl:DatatypeProperty ;&#xa;               rdfs:domain :Customer ;&#xa;               rdfs:range xsd:integer ;&#xa;               rdfs:label &quot;Loyalty Points&quot; ;&#xa;               rdfs:comment &quot;Number of loyalty points earned.&quot; .&#xa;&#xa;:preferredLanguage rdf:type owl:DatatypeProperty ;&#xa;                   rdfs:domain :Customer ;&#xa;                   rdfs:range xsd:string ;&#xa;                   rdfs:label &quot;Preferred Language&quot; ;&#xa;                   rdfs:comment &quot;Language preference of the customer.&quot; .&#xa;&#xa;### ---------------------------&#xa;### Object Properties&#xa;### ---------------------------&#xa;&#xa;:placesOrder rdf:type owl:ObjectProperty ;&#xa;             rdfs:domain :Customer ;&#xa;             rdfs:range :Order ;&#xa;             rdfs:label &quot;places order&quot; ;&#xa;             rdfs:comment &quot;Customer places one or more orders.&quot; .&#xa;&#xa;:hasCart rdf:type owl:ObjectProperty ;&#xa;         rdfs:domain :Customer ;&#xa;         rdfs:range :Cart ;&#xa;         rdfs:label &quot;has cart&quot; ;&#xa;         rdfs:comment &quot;Current cart assigned to the customer.&quot; .&#xa;&#xa;:hasReview rdf:type owl:ObjectProperty ;&#xa;           rdfs:domain :Customer ;&#xa;           rdfs:range :Review ;&#xa;           rdfs:label &quot;has review&quot; ;&#xa;           rdfs:comment &quot;Customer writes reviews for products.&quot; ." link="@prefix : &lt;http://example.com/retail#&gt; .&#xa;@prefix rdf: &lt;http://www.w3.org/1999/02/22-rdf-syntax-ns#&gt; .&#xa;@prefix owl: &lt;http://www.w3.org/2002/07/owl#&gt; .&#xa;@prefix rdfs: &lt;http://www.w3.org/2000/01/rdf-schema#&gt; .&#xa;@prefix xsd: &lt;http://www.w3.org/2001/XMLSchema#&gt; .&#xa;&#xa;### ---------------------------&#xa;### Class: Customer&#xa;### ---------------------------&#xa;:Customer rdf:type owl:Class ;&#xa;          rdfs:label &quot;Customer&quot; ;&#xa;          rdfs:comment &quot;A retail customer who places orders.&quot; .&#xa;&#xa;### ---------------------------&#xa;### Datatype Properties&#xa;### ---------------------------&#xa;&#xa;:customerID rdf:type owl:DatatypeProperty ;&#xa;            rdfs:domain :Customer ;&#xa;            rdfs:range xsd:string ;&#xa;            rdfs:label &quot;Customer ID&quot; ;&#xa;            rdfs:comment &quot;Unique identifier for the customer.&quot; .&#xa;&#xa;:name rdf:type owl:DatatypeProperty ;&#xa;      rdfs:domain :Customer ;&#xa;      rdfs:range xsd:string ;&#xa;      rdfs:label &quot;Name&quot; ;&#xa;      rdfs:comment &quot;Full name of the customer.&quot; .&#xa;&#xa;:email rdf:type owl:DatatypeProperty ;&#xa;       rdfs:domain :Customer ;&#xa;       rdfs:range xsd:string ;&#xa;       rdfs:label &quot;Email&quot; ;&#xa;       rdfs:comment &quot;Customer email address.&quot; .&#xa;&#xa;:phone rdf:type owl:DatatypeProperty ;&#xa;       rdfs:domain :Customer ;&#xa;       rdfs:range xsd:string ;&#xa;       rdfs:label &quot;Phone&quot; ;&#xa;       rdfs:comment &quot;Customer phone number.&quot; .&#xa;&#xa;:dateOfBirth rdf:type owl:DatatypeProperty ;&#xa;             rdfs:domain :Customer ;&#xa;             rdfs:range xsd:date ;&#xa;             rdfs:label &quot;Date of Birth&quot; ;&#xa;             rdfs:comment &quot;Customer&#39;s date of birth.&quot; .&#xa;&#xa;:gender rdf:type owl:DatatypeProperty ;&#xa;        rdfs:domain :Customer ;&#xa;        rdfs:range xsd:string ;&#xa;        rdfs:label &quot;Gender&quot; ;&#xa;        rdfs:comment &quot;Gender of the customer.&quot; .&#xa;&#xa;:registrationDate rdf:type owl:DatatypeProperty ;&#xa;                  rdfs:domain :Customer ;&#xa;                  rdfs:range xsd:dateTime ;&#xa;                  rdfs:label &quot;Registration Date&quot; ;&#xa;                  rdfs:comment &quot;Date when the customer registered.&quot; .&#xa;&#xa;:accountStatus rdf:type owl:DatatypeProperty ;&#xa;               rdfs:domain :Customer ;&#xa;               rdfs:range xsd:string ;&#xa;               rdfs:label &quot;Account Status&quot; ;&#xa;               rdfs:comment &quot;Status of the customer account (active, inactive, suspended).&quot; .&#xa;&#xa;:loyaltyPoints rdf:type owl:DatatypeProperty ;&#xa;               rdfs:domain :Customer ;&#xa;               rdfs:range xsd:integer ;&#xa;               rdfs:label &quot;Loyalty Points&quot; ;&#xa;               rdfs:comment &quot;Number of loyalty points earned.&quot; .&#xa;&#xa;:preferredLanguage rdf:type owl:DatatypeProperty ;&#xa;                   rdfs:domain :Customer ;&#xa;                   rdfs:range xsd:string ;&#xa;                   rdfs:label &quot;Preferred Language&quot; ;&#xa;                   rdfs:comment &quot;Language preference of the customer.&quot; .&#xa;&#xa;### ---------------------------&#xa;### Object Properties&#xa;### ---------------------------&#xa;&#xa;:placesOrder rdf:type owl:ObjectProperty ;&#xa;             rdfs:domain :Customer ;&#xa;             rdfs:range :Order ;&#xa;             rdfs:label &quot;places order&quot; ;&#xa;             rdfs:comment &quot;Customer places one or more orders.&quot; .&#xa;&#xa;:hasCart rdf:type owl:ObjectProperty ;&#xa;         rdfs:domain :Customer ;&#xa;         rdfs:range :Cart ;&#xa;         rdfs:label &quot;has cart&quot; ;&#xa;         rdfs:comment &quot;Current cart assigned to the customer.&quot; .&#xa;&#xa;:hasReview rdf:type owl:ObjectProperty ;&#xa;           rdfs:domain :Customer ;&#xa;           rdfs:range :Review ;&#xa;           rdfs:label &quot;has review&quot; ;&#xa;           rdfs:comment &quot;Customer writes reviews for products.&quot; ." id="i7XMFBIdNLqyE7T31VC0-33">
          <mxCell style="text;whiteSpace=wrap;" parent="1" vertex="1">
            <mxGeometry x="320" y="1480" width="360" height="1430" as="geometry" />
          </mxCell>
        </UserObject>
        <UserObject label="@prefix : &lt;http://example.com/retail#&gt; .&#xa;@prefix xsd: &lt;http://www.w3.org/2001/XMLSchema#&gt; .&#xa;@prefix rdf: &lt;http://www.w3.org/1999/02/22-rdf-syntax-ns#&gt; .&#xa;&#xa;### Customer 1&#xa;:Customer001 a :Customer ;&#xa;    :customerID &quot;C001&quot; ;&#xa;    :name &quot;Alice Johnson&quot; ;&#xa;    :email &quot;alice.johnson@example.com&quot; ;&#xa;    :phone &quot;+11234567890&quot; ;&#xa;    :dateOfBirth &quot;1990-05-15&quot;^^xsd:date ;&#xa;    :gender &quot;Female&quot; ;&#xa;    :registrationDate &quot;2024-02-12T10:15:00&quot;^^xsd:dateTime ;&#xa;    :accountStatus &quot;active&quot; ;&#xa;    :loyaltyPoints 120 ;&#xa;    :preferredLanguage &quot;en&quot; .&#xa;&#xa;### Customer 2&#xa;:Customer002 a :Customer ;&#xa;    :customerID &quot;C002&quot; ;&#xa;    :name &quot;Bob Smith&quot; ;&#xa;    :email &quot;bob.smith@example.com&quot; ;&#xa;    :phone &quot;+11239876543&quot; ;&#xa;    :dateOfBirth &quot;1985-09-23&quot;^^xsd:date ;&#xa;    :gender &quot;Male&quot; ;&#xa;    :registrationDate &quot;2023-11-03T15:00:00&quot;^^xsd:dateTime ;&#xa;    :accountStatus &quot;active&quot; ;&#xa;    :loyaltyPoints 85 ;&#xa;    :preferredLanguage &quot;en&quot; .&#xa;&#xa;### Customer 3&#xa;:Customer003 a :Customer ;&#xa;    :customerID &quot;C003&quot; ;&#xa;    :name &quot;Chloe Tran&quot; ;&#xa;    :email &quot;chloe.tran@example.com&quot; ;&#xa;    :phone &quot;+84912345678&quot; ;&#xa;    :dateOfBirth &quot;1994-01-30&quot;^^xsd:date ;&#xa;    :gender &quot;Female&quot; ;&#xa;    :registrationDate &quot;2025-07-01T08:45:00&quot;^^xsd:dateTime ;&#xa;    :accountStatus &quot;inactive&quot; ;&#xa;    :loyaltyPoints 0 ;&#xa;    :preferredLanguage &quot;vi&quot; ." link="@prefix : &lt;http://example.com/retail#&gt; .&#xa;@prefix xsd: &lt;http://www.w3.org/2001/XMLSchema#&gt; .&#xa;@prefix rdf: &lt;http://www.w3.org/1999/02/22-rdf-syntax-ns#&gt; .&#xa;&#xa;### Customer 1&#xa;:Customer001 a :Customer ;&#xa;    :customerID &quot;C001&quot; ;&#xa;    :name &quot;Alice Johnson&quot; ;&#xa;    :email &quot;alice.johnson@example.com&quot; ;&#xa;    :phone &quot;+11234567890&quot; ;&#xa;    :dateOfBirth &quot;1990-05-15&quot;^^xsd:date ;&#xa;    :gender &quot;Female&quot; ;&#xa;    :registrationDate &quot;2024-02-12T10:15:00&quot;^^xsd:dateTime ;&#xa;    :accountStatus &quot;active&quot; ;&#xa;    :loyaltyPoints 120 ;&#xa;    :preferredLanguage &quot;en&quot; .&#xa;&#xa;### Customer 2&#xa;:Customer002 a :Customer ;&#xa;    :customerID &quot;C002&quot; ;&#xa;    :name &quot;Bob Smith&quot; ;&#xa;    :email &quot;bob.smith@example.com&quot; ;&#xa;    :phone &quot;+11239876543&quot; ;&#xa;    :dateOfBirth &quot;1985-09-23&quot;^^xsd:date ;&#xa;    :gender &quot;Male&quot; ;&#xa;    :registrationDate &quot;2023-11-03T15:00:00&quot;^^xsd:dateTime ;&#xa;    :accountStatus &quot;active&quot; ;&#xa;    :loyaltyPoints 85 ;&#xa;    :preferredLanguage &quot;en&quot; .&#xa;&#xa;### Customer 3&#xa;:Customer003 a :Customer ;&#xa;    :customerID &quot;C003&quot; ;&#xa;    :name &quot;Chloe Tran&quot; ;&#xa;    :email &quot;chloe.tran@example.com&quot; ;&#xa;    :phone &quot;+84912345678&quot; ;&#xa;    :dateOfBirth &quot;1994-01-30&quot;^^xsd:date ;&#xa;    :gender &quot;Female&quot; ;&#xa;    :registrationDate &quot;2025-07-01T08:45:00&quot;^^xsd:dateTime ;&#xa;    :accountStatus &quot;inactive&quot; ;&#xa;    :loyaltyPoints 0 ;&#xa;    :preferredLanguage &quot;vi&quot; ." id="i7XMFBIdNLqyE7T31VC0-34">
          <mxCell style="text;whiteSpace=wrap;" parent="1" vertex="1">
            <mxGeometry x="960" y="1480" width="350" height="630" as="geometry" />
          </mxCell>
        </UserObject>
        <mxCell id="xV_ODFPjqOfn_JFA0RlW-1" value="Tenant" style="swimlane;fontStyle=1;align=center;verticalAlign=top;childLayout=stackLayout;horizontal=1;startSize=26;horizontalStack=0;resizeParent=1;resizeParentMax=0;resizeLast=0;collapsible=1;marginBottom=0;whiteSpace=wrap;html=1;" parent="1" vertex="1">
          <mxGeometry x="-640" y="-600" width="240" height="190" as="geometry" />
        </mxCell>
        <mxCell id="xV_ODFPjqOfn_JFA0RlW-2" value="+ Id: UUID" style="text;strokeColor=none;fillColor=none;align=left;verticalAlign=top;spacingLeft=4;spacingRight=4;overflow=hidden;rotatable=0;points=[[0,0.5],[1,0.5]];portConstraint=eastwest;whiteSpace=wrap;html=1;" parent="xV_ODFPjqOfn_JFA0RlW-1" vertex="1">
          <mxGeometry y="26" width="240" height="26" as="geometry" />
        </mxCell>
        <mxCell id="xV_ODFPjqOfn_JFA0RlW-5" value="+ Name: String" style="text;strokeColor=none;fillColor=none;align=left;verticalAlign=top;spacingLeft=4;spacingRight=4;overflow=hidden;rotatable=0;points=[[0,0.5],[1,0.5]];portConstraint=eastwest;whiteSpace=wrap;html=1;" parent="xV_ODFPjqOfn_JFA0RlW-1" vertex="1">
          <mxGeometry y="52" width="240" height="26" as="geometry" />
        </mxCell>
        <mxCell id="xV_ODFPjqOfn_JFA0RlW-7" value="+ Slug: String" style="text;strokeColor=none;fillColor=none;align=left;verticalAlign=top;spacingLeft=4;spacingRight=4;overflow=hidden;rotatable=0;points=[[0,0.5],[1,0.5]];portConstraint=eastwest;whiteSpace=wrap;html=1;" parent="xV_ODFPjqOfn_JFA0RlW-1" vertex="1">
          <mxGeometry y="78" width="240" height="26" as="geometry" />
        </mxCell>
        <mxCell id="xV_ODFPjqOfn_JFA0RlW-8" value="+ Status: ENUM" style="text;strokeColor=none;fillColor=none;align=left;verticalAlign=top;spacingLeft=4;spacingRight=4;overflow=hidden;rotatable=0;points=[[0,0.5],[1,0.5]];portConstraint=eastwest;whiteSpace=wrap;html=1;" parent="xV_ODFPjqOfn_JFA0RlW-1" vertex="1">
          <mxGeometry y="104" width="240" height="26" as="geometry" />
        </mxCell>
        <mxCell id="xV_ODFPjqOfn_JFA0RlW-6" value="+ CreatedAt: TimeStamp" style="text;strokeColor=none;fillColor=none;align=left;verticalAlign=top;spacingLeft=4;spacingRight=4;overflow=hidden;rotatable=0;points=[[0,0.5],[1,0.5]];portConstraint=eastwest;whiteSpace=wrap;html=1;" parent="xV_ODFPjqOfn_JFA0RlW-1" vertex="1">
          <mxGeometry y="130" width="240" height="26" as="geometry" />
        </mxCell>
        <mxCell id="xV_ODFPjqOfn_JFA0RlW-3" value="" style="line;strokeWidth=1;fillColor=none;align=left;verticalAlign=middle;spacingTop=-1;spacingLeft=3;spacingRight=3;rotatable=0;labelPosition=right;points=[];portConstraint=eastwest;strokeColor=inherit;" parent="xV_ODFPjqOfn_JFA0RlW-1" vertex="1">
          <mxGeometry y="156" width="240" height="8" as="geometry" />
        </mxCell>
        <mxCell id="xV_ODFPjqOfn_JFA0RlW-4" value="+ method(type): type" style="text;strokeColor=none;fillColor=none;align=left;verticalAlign=top;spacingLeft=4;spacingRight=4;overflow=hidden;rotatable=0;points=[[0,0.5],[1,0.5]];portConstraint=eastwest;whiteSpace=wrap;html=1;" parent="xV_ODFPjqOfn_JFA0RlW-1" vertex="1">
          <mxGeometry y="164" width="240" height="26" as="geometry" />
        </mxCell>
        <mxCell id="xV_ODFPjqOfn_JFA0RlW-9" value="Customer" style="swimlane;fontStyle=1;align=center;verticalAlign=top;childLayout=stackLayout;horizontal=1;startSize=26;horizontalStack=0;resizeParent=1;resizeParentMax=0;resizeLast=0;collapsible=1;marginBottom=0;whiteSpace=wrap;html=1;" parent="1" vertex="1">
          <mxGeometry x="-160" y="-1040" width="240" height="346" as="geometry" />
        </mxCell>
        <mxCell id="xV_ODFPjqOfn_JFA0RlW-10" value="+ Id: UUID" style="text;strokeColor=none;fillColor=none;align=left;verticalAlign=top;spacingLeft=4;spacingRight=4;overflow=hidden;rotatable=0;points=[[0,0.5],[1,0.5]];portConstraint=eastwest;whiteSpace=wrap;html=1;" parent="xV_ODFPjqOfn_JFA0RlW-9" vertex="1">
          <mxGeometry y="26" width="240" height="26" as="geometry" />
        </mxCell>
        <mxCell id="xV_ODFPjqOfn_JFA0RlW-11" value="+ TenantId: UUID" style="text;strokeColor=none;fillColor=none;align=left;verticalAlign=top;spacingLeft=4;spacingRight=4;overflow=hidden;rotatable=0;points=[[0,0.5],[1,0.5]];portConstraint=eastwest;whiteSpace=wrap;html=1;" parent="xV_ODFPjqOfn_JFA0RlW-9" vertex="1">
          <mxGeometry y="52" width="240" height="26" as="geometry" />
        </mxCell>
        <mxCell id="xV_ODFPjqOfn_JFA0RlW-12" value="+ Type: ENUM" style="text;strokeColor=none;fillColor=none;align=left;verticalAlign=top;spacingLeft=4;spacingRight=4;overflow=hidden;rotatable=0;points=[[0,0.5],[1,0.5]];portConstraint=eastwest;whiteSpace=wrap;html=1;" parent="xV_ODFPjqOfn_JFA0RlW-9" vertex="1">
          <mxGeometry y="78" width="240" height="26" as="geometry" />
        </mxCell>
        <mxCell id="xV_ODFPjqOfn_JFA0RlW-13" value="+ FirstName: String" style="text;strokeColor=none;fillColor=none;align=left;verticalAlign=top;spacingLeft=4;spacingRight=4;overflow=hidden;rotatable=0;points=[[0,0.5],[1,0.5]];portConstraint=eastwest;whiteSpace=wrap;html=1;" parent="xV_ODFPjqOfn_JFA0RlW-9" vertex="1">
          <mxGeometry y="104" width="240" height="26" as="geometry" />
        </mxCell>
        <mxCell id="xV_ODFPjqOfn_JFA0RlW-14" value="+ LastName: String" style="text;strokeColor=none;fillColor=none;align=left;verticalAlign=top;spacingLeft=4;spacingRight=4;overflow=hidden;rotatable=0;points=[[0,0.5],[1,0.5]];portConstraint=eastwest;whiteSpace=wrap;html=1;" parent="xV_ODFPjqOfn_JFA0RlW-9" vertex="1">
          <mxGeometry y="130" width="240" height="26" as="geometry" />
        </mxCell>
        <mxCell id="xV_ODFPjqOfn_JFA0RlW-18" value="+ CompanyName: String" style="text;strokeColor=none;fillColor=none;align=left;verticalAlign=top;spacingLeft=4;spacingRight=4;overflow=hidden;rotatable=0;points=[[0,0.5],[1,0.5]];portConstraint=eastwest;whiteSpace=wrap;html=1;" parent="xV_ODFPjqOfn_JFA0RlW-9" vertex="1">
          <mxGeometry y="156" width="240" height="26" as="geometry" />
        </mxCell>
        <mxCell id="xV_ODFPjqOfn_JFA0RlW-19" value="+ Email: String" style="text;strokeColor=none;fillColor=none;align=left;verticalAlign=top;spacingLeft=4;spacingRight=4;overflow=hidden;rotatable=0;points=[[0,0.5],[1,0.5]];portConstraint=eastwest;whiteSpace=wrap;html=1;" parent="xV_ODFPjqOfn_JFA0RlW-9" vertex="1">
          <mxGeometry y="182" width="240" height="26" as="geometry" />
        </mxCell>
        <mxCell id="xV_ODFPjqOfn_JFA0RlW-17" value="+ Phone: String" style="text;strokeColor=none;fillColor=none;align=left;verticalAlign=top;spacingLeft=4;spacingRight=4;overflow=hidden;rotatable=0;points=[[0,0.5],[1,0.5]];portConstraint=eastwest;whiteSpace=wrap;html=1;" parent="xV_ODFPjqOfn_JFA0RlW-9" vertex="1">
          <mxGeometry y="208" width="240" height="26" as="geometry" />
        </mxCell>
        <mxCell id="xV_ODFPjqOfn_JFA0RlW-21" value="+ Status: ENUM" style="text;strokeColor=none;fillColor=none;align=left;verticalAlign=top;spacingLeft=4;spacingRight=4;overflow=hidden;rotatable=0;points=[[0,0.5],[1,0.5]];portConstraint=eastwest;whiteSpace=wrap;html=1;" parent="xV_ODFPjqOfn_JFA0RlW-9" vertex="1">
          <mxGeometry y="234" width="240" height="26" as="geometry" />
        </mxCell>
        <mxCell id="xV_ODFPjqOfn_JFA0RlW-22" value="+ CreatedAt: TimeStamp" style="text;strokeColor=none;fillColor=none;align=left;verticalAlign=top;spacingLeft=4;spacingRight=4;overflow=hidden;rotatable=0;points=[[0,0.5],[1,0.5]];portConstraint=eastwest;whiteSpace=wrap;html=1;" parent="xV_ODFPjqOfn_JFA0RlW-9" vertex="1">
          <mxGeometry y="260" width="240" height="26" as="geometry" />
        </mxCell>
        <mxCell id="xV_ODFPjqOfn_JFA0RlW-20" value="+ UpdatedAt: TimeStamp" style="text;strokeColor=none;fillColor=none;align=left;verticalAlign=top;spacingLeft=4;spacingRight=4;overflow=hidden;rotatable=0;points=[[0,0.5],[1,0.5]];portConstraint=eastwest;whiteSpace=wrap;html=1;" parent="xV_ODFPjqOfn_JFA0RlW-9" vertex="1">
          <mxGeometry y="286" width="240" height="26" as="geometry" />
        </mxCell>
        <mxCell id="xV_ODFPjqOfn_JFA0RlW-15" value="" style="line;strokeWidth=1;fillColor=none;align=left;verticalAlign=middle;spacingTop=-1;spacingLeft=3;spacingRight=3;rotatable=0;labelPosition=right;points=[];portConstraint=eastwest;strokeColor=inherit;" parent="xV_ODFPjqOfn_JFA0RlW-9" vertex="1">
          <mxGeometry y="312" width="240" height="8" as="geometry" />
        </mxCell>
        <mxCell id="xV_ODFPjqOfn_JFA0RlW-16" value="+ method(type): type" style="text;strokeColor=none;fillColor=none;align=left;verticalAlign=top;spacingLeft=4;spacingRight=4;overflow=hidden;rotatable=0;points=[[0,0.5],[1,0.5]];portConstraint=eastwest;whiteSpace=wrap;html=1;" parent="xV_ODFPjqOfn_JFA0RlW-9" vertex="1">
          <mxGeometry y="320" width="240" height="26" as="geometry" />
        </mxCell>
        <mxCell id="xV_ODFPjqOfn_JFA0RlW-23" value="Address" style="swimlane;fontStyle=1;align=center;verticalAlign=top;childLayout=stackLayout;horizontal=1;startSize=26;horizontalStack=0;resizeParent=1;resizeParentMax=0;resizeLast=0;collapsible=1;marginBottom=0;whiteSpace=wrap;html=1;" parent="1" vertex="1">
          <mxGeometry x="-160" y="-600" width="240" height="372" as="geometry" />
        </mxCell>
        <mxCell id="xV_ODFPjqOfn_JFA0RlW-24" value="+ Id: UUID" style="text;strokeColor=none;fillColor=none;align=left;verticalAlign=top;spacingLeft=4;spacingRight=4;overflow=hidden;rotatable=0;points=[[0,0.5],[1,0.5]];portConstraint=eastwest;whiteSpace=wrap;html=1;" parent="xV_ODFPjqOfn_JFA0RlW-23" vertex="1">
          <mxGeometry y="26" width="240" height="26" as="geometry" />
        </mxCell>
        <mxCell id="xV_ODFPjqOfn_JFA0RlW-25" value="+ TenantId: UUID" style="text;strokeColor=none;fillColor=none;align=left;verticalAlign=top;spacingLeft=4;spacingRight=4;overflow=hidden;rotatable=0;points=[[0,0.5],[1,0.5]];portConstraint=eastwest;whiteSpace=wrap;html=1;" parent="xV_ODFPjqOfn_JFA0RlW-23" vertex="1">
          <mxGeometry y="52" width="240" height="26" as="geometry" />
        </mxCell>
        <mxCell id="xV_ODFPjqOfn_JFA0RlW-26" value="+ CustomerId: UUID" style="text;strokeColor=none;fillColor=none;align=left;verticalAlign=top;spacingLeft=4;spacingRight=4;overflow=hidden;rotatable=0;points=[[0,0.5],[1,0.5]];portConstraint=eastwest;whiteSpace=wrap;html=1;" parent="xV_ODFPjqOfn_JFA0RlW-23" vertex="1">
          <mxGeometry y="78" width="240" height="26" as="geometry" />
        </mxCell>
        <mxCell id="xV_ODFPjqOfn_JFA0RlW-27" value="+ Type: String" style="text;strokeColor=none;fillColor=none;align=left;verticalAlign=top;spacingLeft=4;spacingRight=4;overflow=hidden;rotatable=0;points=[[0,0.5],[1,0.5]];portConstraint=eastwest;whiteSpace=wrap;html=1;" parent="xV_ODFPjqOfn_JFA0RlW-23" vertex="1">
          <mxGeometry y="104" width="240" height="26" as="geometry" />
        </mxCell>
        <mxCell id="xV_ODFPjqOfn_JFA0RlW-28" value="+ Line1: String" style="text;strokeColor=none;fillColor=none;align=left;verticalAlign=top;spacingLeft=4;spacingRight=4;overflow=hidden;rotatable=0;points=[[0,0.5],[1,0.5]];portConstraint=eastwest;whiteSpace=wrap;html=1;" parent="xV_ODFPjqOfn_JFA0RlW-23" vertex="1">
          <mxGeometry y="130" width="240" height="26" as="geometry" />
        </mxCell>
        <mxCell id="xV_ODFPjqOfn_JFA0RlW-29" value="+ Line2: String" style="text;strokeColor=none;fillColor=none;align=left;verticalAlign=top;spacingLeft=4;spacingRight=4;overflow=hidden;rotatable=0;points=[[0,0.5],[1,0.5]];portConstraint=eastwest;whiteSpace=wrap;html=1;" parent="xV_ODFPjqOfn_JFA0RlW-23" vertex="1">
          <mxGeometry y="156" width="240" height="26" as="geometry" />
        </mxCell>
        <mxCell id="xV_ODFPjqOfn_JFA0RlW-30" value="+ City: String" style="text;strokeColor=none;fillColor=none;align=left;verticalAlign=top;spacingLeft=4;spacingRight=4;overflow=hidden;rotatable=0;points=[[0,0.5],[1,0.5]];portConstraint=eastwest;whiteSpace=wrap;html=1;" parent="xV_ODFPjqOfn_JFA0RlW-23" vertex="1">
          <mxGeometry y="182" width="240" height="26" as="geometry" />
        </mxCell>
        <mxCell id="xV_ODFPjqOfn_JFA0RlW-31" value="+ State: String" style="text;strokeColor=none;fillColor=none;align=left;verticalAlign=top;spacingLeft=4;spacingRight=4;overflow=hidden;rotatable=0;points=[[0,0.5],[1,0.5]];portConstraint=eastwest;whiteSpace=wrap;html=1;" parent="xV_ODFPjqOfn_JFA0RlW-23" vertex="1">
          <mxGeometry y="208" width="240" height="26" as="geometry" />
        </mxCell>
        <mxCell id="xV_ODFPjqOfn_JFA0RlW-32" value="+ PostalCode: String" style="text;strokeColor=none;fillColor=none;align=left;verticalAlign=top;spacingLeft=4;spacingRight=4;overflow=hidden;rotatable=0;points=[[0,0.5],[1,0.5]];portConstraint=eastwest;whiteSpace=wrap;html=1;" parent="xV_ODFPjqOfn_JFA0RlW-23" vertex="1">
          <mxGeometry y="234" width="240" height="26" as="geometry" />
        </mxCell>
        <mxCell id="xV_ODFPjqOfn_JFA0RlW-37" value="+ Country: String" style="text;strokeColor=none;fillColor=none;align=left;verticalAlign=top;spacingLeft=4;spacingRight=4;overflow=hidden;rotatable=0;points=[[0,0.5],[1,0.5]];portConstraint=eastwest;whiteSpace=wrap;html=1;" parent="xV_ODFPjqOfn_JFA0RlW-23" vertex="1">
          <mxGeometry y="260" width="240" height="26" as="geometry" />
        </mxCell>
        <mxCell id="xV_ODFPjqOfn_JFA0RlW-33" value="+ CreatedAt: TimeStamp" style="text;strokeColor=none;fillColor=none;align=left;verticalAlign=top;spacingLeft=4;spacingRight=4;overflow=hidden;rotatable=0;points=[[0,0.5],[1,0.5]];portConstraint=eastwest;whiteSpace=wrap;html=1;" parent="xV_ODFPjqOfn_JFA0RlW-23" vertex="1">
          <mxGeometry y="286" width="240" height="26" as="geometry" />
        </mxCell>
        <mxCell id="xV_ODFPjqOfn_JFA0RlW-34" value="+ UpdatedAt: TimeStamp" style="text;strokeColor=none;fillColor=none;align=left;verticalAlign=top;spacingLeft=4;spacingRight=4;overflow=hidden;rotatable=0;points=[[0,0.5],[1,0.5]];portConstraint=eastwest;whiteSpace=wrap;html=1;" parent="xV_ODFPjqOfn_JFA0RlW-23" vertex="1">
          <mxGeometry y="312" width="240" height="26" as="geometry" />
        </mxCell>
        <mxCell id="xV_ODFPjqOfn_JFA0RlW-35" value="" style="line;strokeWidth=1;fillColor=none;align=left;verticalAlign=middle;spacingTop=-1;spacingLeft=3;spacingRight=3;rotatable=0;labelPosition=right;points=[];portConstraint=eastwest;strokeColor=inherit;" parent="xV_ODFPjqOfn_JFA0RlW-23" vertex="1">
          <mxGeometry y="338" width="240" height="8" as="geometry" />
        </mxCell>
        <mxCell id="xV_ODFPjqOfn_JFA0RlW-36" value="+ method(type): type" style="text;strokeColor=none;fillColor=none;align=left;verticalAlign=top;spacingLeft=4;spacingRight=4;overflow=hidden;rotatable=0;points=[[0,0.5],[1,0.5]];portConstraint=eastwest;whiteSpace=wrap;html=1;" parent="xV_ODFPjqOfn_JFA0RlW-23" vertex="1">
          <mxGeometry y="346" width="240" height="26" as="geometry" />
        </mxCell>
        <mxCell id="xV_ODFPjqOfn_JFA0RlW-38" value="Contact" style="swimlane;fontStyle=1;align=center;verticalAlign=top;childLayout=stackLayout;horizontal=1;startSize=26;horizontalStack=0;resizeParent=1;resizeParentMax=0;resizeLast=0;collapsible=1;marginBottom=0;whiteSpace=wrap;html=1;" parent="1" vertex="1">
          <mxGeometry x="-160" y="-1520" width="240" height="346" as="geometry" />
        </mxCell>
        <mxCell id="xV_ODFPjqOfn_JFA0RlW-39" value="+ Id: UUID" style="text;strokeColor=none;fillColor=none;align=left;verticalAlign=top;spacingLeft=4;spacingRight=4;overflow=hidden;rotatable=0;points=[[0,0.5],[1,0.5]];portConstraint=eastwest;whiteSpace=wrap;html=1;" parent="xV_ODFPjqOfn_JFA0RlW-38" vertex="1">
          <mxGeometry y="26" width="240" height="26" as="geometry" />
        </mxCell>
        <mxCell id="xV_ODFPjqOfn_JFA0RlW-40" value="+ TenantId: UUID" style="text;strokeColor=none;fillColor=none;align=left;verticalAlign=top;spacingLeft=4;spacingRight=4;overflow=hidden;rotatable=0;points=[[0,0.5],[1,0.5]];portConstraint=eastwest;whiteSpace=wrap;html=1;" parent="xV_ODFPjqOfn_JFA0RlW-38" vertex="1">
          <mxGeometry y="52" width="240" height="26" as="geometry" />
        </mxCell>
        <mxCell id="xV_ODFPjqOfn_JFA0RlW-41" value="+ CustomerId:UUID" style="text;strokeColor=none;fillColor=none;align=left;verticalAlign=top;spacingLeft=4;spacingRight=4;overflow=hidden;rotatable=0;points=[[0,0.5],[1,0.5]];portConstraint=eastwest;whiteSpace=wrap;html=1;" parent="xV_ODFPjqOfn_JFA0RlW-38" vertex="1">
          <mxGeometry y="78" width="240" height="26" as="geometry" />
        </mxCell>
        <mxCell id="xV_ODFPjqOfn_JFA0RlW-42" value="+ FirstName: String" style="text;strokeColor=none;fillColor=none;align=left;verticalAlign=top;spacingLeft=4;spacingRight=4;overflow=hidden;rotatable=0;points=[[0,0.5],[1,0.5]];portConstraint=eastwest;whiteSpace=wrap;html=1;" parent="xV_ODFPjqOfn_JFA0RlW-38" vertex="1">
          <mxGeometry y="104" width="240" height="26" as="geometry" />
        </mxCell>
        <mxCell id="xV_ODFPjqOfn_JFA0RlW-43" value="+ LastName: String" style="text;strokeColor=none;fillColor=none;align=left;verticalAlign=top;spacingLeft=4;spacingRight=4;overflow=hidden;rotatable=0;points=[[0,0.5],[1,0.5]];portConstraint=eastwest;whiteSpace=wrap;html=1;" parent="xV_ODFPjqOfn_JFA0RlW-38" vertex="1">
          <mxGeometry y="130" width="240" height="26" as="geometry" />
        </mxCell>
        <mxCell id="xV_ODFPjqOfn_JFA0RlW-44" value="+ CompanyName: String" style="text;strokeColor=none;fillColor=none;align=left;verticalAlign=top;spacingLeft=4;spacingRight=4;overflow=hidden;rotatable=0;points=[[0,0.5],[1,0.5]];portConstraint=eastwest;whiteSpace=wrap;html=1;" parent="xV_ODFPjqOfn_JFA0RlW-38" vertex="1">
          <mxGeometry y="156" width="240" height="26" as="geometry" />
        </mxCell>
        <mxCell id="xV_ODFPjqOfn_JFA0RlW-45" value="+ Email: String" style="text;strokeColor=none;fillColor=none;align=left;verticalAlign=top;spacingLeft=4;spacingRight=4;overflow=hidden;rotatable=0;points=[[0,0.5],[1,0.5]];portConstraint=eastwest;whiteSpace=wrap;html=1;" parent="xV_ODFPjqOfn_JFA0RlW-38" vertex="1">
          <mxGeometry y="182" width="240" height="26" as="geometry" />
        </mxCell>
        <mxCell id="xV_ODFPjqOfn_JFA0RlW-46" value="+ Phone: String" style="text;strokeColor=none;fillColor=none;align=left;verticalAlign=top;spacingLeft=4;spacingRight=4;overflow=hidden;rotatable=0;points=[[0,0.5],[1,0.5]];portConstraint=eastwest;whiteSpace=wrap;html=1;" parent="xV_ODFPjqOfn_JFA0RlW-38" vertex="1">
          <mxGeometry y="208" width="240" height="26" as="geometry" />
        </mxCell>
        <mxCell id="xV_ODFPjqOfn_JFA0RlW-47" value="+ Position: String" style="text;strokeColor=none;fillColor=none;align=left;verticalAlign=top;spacingLeft=4;spacingRight=4;overflow=hidden;rotatable=0;points=[[0,0.5],[1,0.5]];portConstraint=eastwest;whiteSpace=wrap;html=1;" parent="xV_ODFPjqOfn_JFA0RlW-38" vertex="1">
          <mxGeometry y="234" width="240" height="26" as="geometry" />
        </mxCell>
        <mxCell id="xV_ODFPjqOfn_JFA0RlW-48" value="+ CreatedAt: TimeStamp" style="text;strokeColor=none;fillColor=none;align=left;verticalAlign=top;spacingLeft=4;spacingRight=4;overflow=hidden;rotatable=0;points=[[0,0.5],[1,0.5]];portConstraint=eastwest;whiteSpace=wrap;html=1;" parent="xV_ODFPjqOfn_JFA0RlW-38" vertex="1">
          <mxGeometry y="260" width="240" height="26" as="geometry" />
        </mxCell>
        <mxCell id="xV_ODFPjqOfn_JFA0RlW-49" value="+ UpdatedAt: TimeStamp" style="text;strokeColor=none;fillColor=none;align=left;verticalAlign=top;spacingLeft=4;spacingRight=4;overflow=hidden;rotatable=0;points=[[0,0.5],[1,0.5]];portConstraint=eastwest;whiteSpace=wrap;html=1;" parent="xV_ODFPjqOfn_JFA0RlW-38" vertex="1">
          <mxGeometry y="286" width="240" height="26" as="geometry" />
        </mxCell>
        <mxCell id="xV_ODFPjqOfn_JFA0RlW-50" value="" style="line;strokeWidth=1;fillColor=none;align=left;verticalAlign=middle;spacingTop=-1;spacingLeft=3;spacingRight=3;rotatable=0;labelPosition=right;points=[];portConstraint=eastwest;strokeColor=inherit;" parent="xV_ODFPjqOfn_JFA0RlW-38" vertex="1">
          <mxGeometry y="312" width="240" height="8" as="geometry" />
        </mxCell>
        <mxCell id="xV_ODFPjqOfn_JFA0RlW-51" value="+ method(type): type" style="text;strokeColor=none;fillColor=none;align=left;verticalAlign=top;spacingLeft=4;spacingRight=4;overflow=hidden;rotatable=0;points=[[0,0.5],[1,0.5]];portConstraint=eastwest;whiteSpace=wrap;html=1;" parent="xV_ODFPjqOfn_JFA0RlW-38" vertex="1">
          <mxGeometry y="320" width="240" height="26" as="geometry" />
        </mxCell>
        <mxCell id="xV_ODFPjqOfn_JFA0RlW-52" value="Tag" style="swimlane;fontStyle=1;align=center;verticalAlign=top;childLayout=stackLayout;horizontal=1;startSize=26;horizontalStack=0;resizeParent=1;resizeParentMax=0;resizeLast=0;collapsible=1;marginBottom=0;whiteSpace=wrap;html=1;" parent="1" vertex="1">
          <mxGeometry x="-640" y="-1040" width="240" height="216" as="geometry" />
        </mxCell>
        <mxCell id="xV_ODFPjqOfn_JFA0RlW-53" value="+ Id: UUID" style="text;strokeColor=none;fillColor=none;align=left;verticalAlign=top;spacingLeft=4;spacingRight=4;overflow=hidden;rotatable=0;points=[[0,0.5],[1,0.5]];portConstraint=eastwest;whiteSpace=wrap;html=1;" parent="xV_ODFPjqOfn_JFA0RlW-52" vertex="1">
          <mxGeometry y="26" width="240" height="26" as="geometry" />
        </mxCell>
        <mxCell id="xV_ODFPjqOfn_JFA0RlW-54" value="+ TenantId: UUID" style="text;strokeColor=none;fillColor=none;align=left;verticalAlign=top;spacingLeft=4;spacingRight=4;overflow=hidden;rotatable=0;points=[[0,0.5],[1,0.5]];portConstraint=eastwest;whiteSpace=wrap;html=1;" parent="xV_ODFPjqOfn_JFA0RlW-52" vertex="1">
          <mxGeometry y="52" width="240" height="26" as="geometry" />
        </mxCell>
        <mxCell id="xV_ODFPjqOfn_JFA0RlW-55" value="+ Name:UUID" style="text;strokeColor=none;fillColor=none;align=left;verticalAlign=top;spacingLeft=4;spacingRight=4;overflow=hidden;rotatable=0;points=[[0,0.5],[1,0.5]];portConstraint=eastwest;whiteSpace=wrap;html=1;" parent="xV_ODFPjqOfn_JFA0RlW-52" vertex="1">
          <mxGeometry y="78" width="240" height="26" as="geometry" />
        </mxCell>
        <mxCell id="xV_ODFPjqOfn_JFA0RlW-57" value="+ Color: String" style="text;strokeColor=none;fillColor=none;align=left;verticalAlign=top;spacingLeft=4;spacingRight=4;overflow=hidden;rotatable=0;points=[[0,0.5],[1,0.5]];portConstraint=eastwest;whiteSpace=wrap;html=1;" parent="xV_ODFPjqOfn_JFA0RlW-52" vertex="1">
          <mxGeometry y="104" width="240" height="26" as="geometry" />
        </mxCell>
        <mxCell id="xV_ODFPjqOfn_JFA0RlW-62" value="+ CreatedAt: TimeStamp" style="text;strokeColor=none;fillColor=none;align=left;verticalAlign=top;spacingLeft=4;spacingRight=4;overflow=hidden;rotatable=0;points=[[0,0.5],[1,0.5]];portConstraint=eastwest;whiteSpace=wrap;html=1;" parent="xV_ODFPjqOfn_JFA0RlW-52" vertex="1">
          <mxGeometry y="130" width="240" height="26" as="geometry" />
        </mxCell>
        <mxCell id="xV_ODFPjqOfn_JFA0RlW-63" value="+ UpdatedAt: TimeStamp" style="text;strokeColor=none;fillColor=none;align=left;verticalAlign=top;spacingLeft=4;spacingRight=4;overflow=hidden;rotatable=0;points=[[0,0.5],[1,0.5]];portConstraint=eastwest;whiteSpace=wrap;html=1;" parent="xV_ODFPjqOfn_JFA0RlW-52" vertex="1">
          <mxGeometry y="156" width="240" height="26" as="geometry" />
        </mxCell>
        <mxCell id="xV_ODFPjqOfn_JFA0RlW-64" value="" style="line;strokeWidth=1;fillColor=none;align=left;verticalAlign=middle;spacingTop=-1;spacingLeft=3;spacingRight=3;rotatable=0;labelPosition=right;points=[];portConstraint=eastwest;strokeColor=inherit;" parent="xV_ODFPjqOfn_JFA0RlW-52" vertex="1">
          <mxGeometry y="182" width="240" height="8" as="geometry" />
        </mxCell>
        <mxCell id="xV_ODFPjqOfn_JFA0RlW-65" value="+ method(type): type" style="text;strokeColor=none;fillColor=none;align=left;verticalAlign=top;spacingLeft=4;spacingRight=4;overflow=hidden;rotatable=0;points=[[0,0.5],[1,0.5]];portConstraint=eastwest;whiteSpace=wrap;html=1;" parent="xV_ODFPjqOfn_JFA0RlW-52" vertex="1">
          <mxGeometry y="190" width="240" height="26" as="geometry" />
        </mxCell>
        <mxCell id="xV_ODFPjqOfn_JFA0RlW-66" value="CustomAttribute" style="swimlane;fontStyle=1;align=center;verticalAlign=top;childLayout=stackLayout;horizontal=1;startSize=26;horizontalStack=0;resizeParent=1;resizeParentMax=0;resizeLast=0;collapsible=1;marginBottom=0;whiteSpace=wrap;html=1;" parent="1" vertex="1">
          <mxGeometry x="280" y="-1040" width="240" height="268" as="geometry" />
        </mxCell>
        <mxCell id="xV_ODFPjqOfn_JFA0RlW-67" value="+ Id: UUID" style="text;strokeColor=none;fillColor=none;align=left;verticalAlign=top;spacingLeft=4;spacingRight=4;overflow=hidden;rotatable=0;points=[[0,0.5],[1,0.5]];portConstraint=eastwest;whiteSpace=wrap;html=1;" parent="xV_ODFPjqOfn_JFA0RlW-66" vertex="1">
          <mxGeometry y="26" width="240" height="26" as="geometry" />
        </mxCell>
        <mxCell id="xV_ODFPjqOfn_JFA0RlW-68" value="+ TenantId: UUID" style="text;strokeColor=none;fillColor=none;align=left;verticalAlign=top;spacingLeft=4;spacingRight=4;overflow=hidden;rotatable=0;points=[[0,0.5],[1,0.5]];portConstraint=eastwest;whiteSpace=wrap;html=1;" parent="xV_ODFPjqOfn_JFA0RlW-66" vertex="1">
          <mxGeometry y="52" width="240" height="26" as="geometry" />
        </mxCell>
        <mxCell id="xV_ODFPjqOfn_JFA0RlW-69" value="+ CustomerId:UUID" style="text;strokeColor=none;fillColor=none;align=left;verticalAlign=top;spacingLeft=4;spacingRight=4;overflow=hidden;rotatable=0;points=[[0,0.5],[1,0.5]];portConstraint=eastwest;whiteSpace=wrap;html=1;" parent="xV_ODFPjqOfn_JFA0RlW-66" vertex="1">
          <mxGeometry y="78" width="240" height="26" as="geometry" />
        </mxCell>
        <mxCell id="xV_ODFPjqOfn_JFA0RlW-70" value="+ Key: String" style="text;strokeColor=none;fillColor=none;align=left;verticalAlign=top;spacingLeft=4;spacingRight=4;overflow=hidden;rotatable=0;points=[[0,0.5],[1,0.5]];portConstraint=eastwest;whiteSpace=wrap;html=1;" parent="xV_ODFPjqOfn_JFA0RlW-66" vertex="1">
          <mxGeometry y="104" width="240" height="26" as="geometry" />
        </mxCell>
        <mxCell id="xV_ODFPjqOfn_JFA0RlW-71" value="+ Value: String" style="text;strokeColor=none;fillColor=none;align=left;verticalAlign=top;spacingLeft=4;spacingRight=4;overflow=hidden;rotatable=0;points=[[0,0.5],[1,0.5]];portConstraint=eastwest;whiteSpace=wrap;html=1;" parent="xV_ODFPjqOfn_JFA0RlW-66" vertex="1">
          <mxGeometry y="130" width="240" height="26" as="geometry" />
        </mxCell>
        <mxCell id="xV_ODFPjqOfn_JFA0RlW-72" value="+ DataType: String" style="text;strokeColor=none;fillColor=none;align=left;verticalAlign=top;spacingLeft=4;spacingRight=4;overflow=hidden;rotatable=0;points=[[0,0.5],[1,0.5]];portConstraint=eastwest;whiteSpace=wrap;html=1;" parent="xV_ODFPjqOfn_JFA0RlW-66" vertex="1">
          <mxGeometry y="156" width="240" height="26" as="geometry" />
        </mxCell>
        <mxCell id="xV_ODFPjqOfn_JFA0RlW-76" value="+ CreatedAt: TimeStamp" style="text;strokeColor=none;fillColor=none;align=left;verticalAlign=top;spacingLeft=4;spacingRight=4;overflow=hidden;rotatable=0;points=[[0,0.5],[1,0.5]];portConstraint=eastwest;whiteSpace=wrap;html=1;" parent="xV_ODFPjqOfn_JFA0RlW-66" vertex="1">
          <mxGeometry y="182" width="240" height="26" as="geometry" />
        </mxCell>
        <mxCell id="xV_ODFPjqOfn_JFA0RlW-77" value="+ UpdatedAt: TimeStamp" style="text;strokeColor=none;fillColor=none;align=left;verticalAlign=top;spacingLeft=4;spacingRight=4;overflow=hidden;rotatable=0;points=[[0,0.5],[1,0.5]];portConstraint=eastwest;whiteSpace=wrap;html=1;" parent="xV_ODFPjqOfn_JFA0RlW-66" vertex="1">
          <mxGeometry y="208" width="240" height="26" as="geometry" />
        </mxCell>
        <mxCell id="xV_ODFPjqOfn_JFA0RlW-78" value="" style="line;strokeWidth=1;fillColor=none;align=left;verticalAlign=middle;spacingTop=-1;spacingLeft=3;spacingRight=3;rotatable=0;labelPosition=right;points=[];portConstraint=eastwest;strokeColor=inherit;" parent="xV_ODFPjqOfn_JFA0RlW-66" vertex="1">
          <mxGeometry y="234" width="240" height="8" as="geometry" />
        </mxCell>
        <mxCell id="xV_ODFPjqOfn_JFA0RlW-79" value="+ method(type): type" style="text;strokeColor=none;fillColor=none;align=left;verticalAlign=top;spacingLeft=4;spacingRight=4;overflow=hidden;rotatable=0;points=[[0,0.5],[1,0.5]];portConstraint=eastwest;whiteSpace=wrap;html=1;" parent="xV_ODFPjqOfn_JFA0RlW-66" vertex="1">
          <mxGeometry y="242" width="240" height="26" as="geometry" />
        </mxCell>
        <mxCell id="xV_ODFPjqOfn_JFA0RlW-80" value="TenantApp" style="swimlane;fontStyle=1;align=center;verticalAlign=top;childLayout=stackLayout;horizontal=1;startSize=26;horizontalStack=0;resizeParent=1;resizeParentMax=0;resizeLast=0;collapsible=1;marginBottom=0;whiteSpace=wrap;html=1;" parent="1" vertex="1">
          <mxGeometry x="280" y="-600" width="240" height="216" as="geometry" />
        </mxCell>
        <mxCell id="xV_ODFPjqOfn_JFA0RlW-81" value="+ Id: UUID" style="text;strokeColor=none;fillColor=none;align=left;verticalAlign=top;spacingLeft=4;spacingRight=4;overflow=hidden;rotatable=0;points=[[0,0.5],[1,0.5]];portConstraint=eastwest;whiteSpace=wrap;html=1;" parent="xV_ODFPjqOfn_JFA0RlW-80" vertex="1">
          <mxGeometry y="26" width="240" height="26" as="geometry" />
        </mxCell>
        <mxCell id="xV_ODFPjqOfn_JFA0RlW-82" value="+ TenantId: UUID" style="text;strokeColor=none;fillColor=none;align=left;verticalAlign=top;spacingLeft=4;spacingRight=4;overflow=hidden;rotatable=0;points=[[0,0.5],[1,0.5]];portConstraint=eastwest;whiteSpace=wrap;html=1;" parent="xV_ODFPjqOfn_JFA0RlW-80" vertex="1">
          <mxGeometry y="52" width="240" height="26" as="geometry" />
        </mxCell>
        <mxCell id="xV_ODFPjqOfn_JFA0RlW-83" value="+ AppId:UUID" style="text;strokeColor=none;fillColor=none;align=left;verticalAlign=top;spacingLeft=4;spacingRight=4;overflow=hidden;rotatable=0;points=[[0,0.5],[1,0.5]];portConstraint=eastwest;whiteSpace=wrap;html=1;" parent="xV_ODFPjqOfn_JFA0RlW-80" vertex="1">
          <mxGeometry y="78" width="240" height="26" as="geometry" />
        </mxCell>
        <mxCell id="xV_ODFPjqOfn_JFA0RlW-84" value="+ Role: String" style="text;strokeColor=none;fillColor=none;align=left;verticalAlign=top;spacingLeft=4;spacingRight=4;overflow=hidden;rotatable=0;points=[[0,0.5],[1,0.5]];portConstraint=eastwest;whiteSpace=wrap;html=1;" parent="xV_ODFPjqOfn_JFA0RlW-80" vertex="1">
          <mxGeometry y="104" width="240" height="26" as="geometry" />
        </mxCell>
        <mxCell id="xV_ODFPjqOfn_JFA0RlW-87" value="+ CreatedAt: TimeStamp" style="text;strokeColor=none;fillColor=none;align=left;verticalAlign=top;spacingLeft=4;spacingRight=4;overflow=hidden;rotatable=0;points=[[0,0.5],[1,0.5]];portConstraint=eastwest;whiteSpace=wrap;html=1;" parent="xV_ODFPjqOfn_JFA0RlW-80" vertex="1">
          <mxGeometry y="130" width="240" height="26" as="geometry" />
        </mxCell>
        <mxCell id="xV_ODFPjqOfn_JFA0RlW-88" value="+ UpdatedAt: TimeStamp" style="text;strokeColor=none;fillColor=none;align=left;verticalAlign=top;spacingLeft=4;spacingRight=4;overflow=hidden;rotatable=0;points=[[0,0.5],[1,0.5]];portConstraint=eastwest;whiteSpace=wrap;html=1;" parent="xV_ODFPjqOfn_JFA0RlW-80" vertex="1">
          <mxGeometry y="156" width="240" height="26" as="geometry" />
        </mxCell>
        <mxCell id="xV_ODFPjqOfn_JFA0RlW-89" value="" style="line;strokeWidth=1;fillColor=none;align=left;verticalAlign=middle;spacingTop=-1;spacingLeft=3;spacingRight=3;rotatable=0;labelPosition=right;points=[];portConstraint=eastwest;strokeColor=inherit;" parent="xV_ODFPjqOfn_JFA0RlW-80" vertex="1">
          <mxGeometry y="182" width="240" height="8" as="geometry" />
        </mxCell>
        <mxCell id="xV_ODFPjqOfn_JFA0RlW-90" value="+ method(type): type" style="text;strokeColor=none;fillColor=none;align=left;verticalAlign=top;spacingLeft=4;spacingRight=4;overflow=hidden;rotatable=0;points=[[0,0.5],[1,0.5]];portConstraint=eastwest;whiteSpace=wrap;html=1;" parent="xV_ODFPjqOfn_JFA0RlW-80" vertex="1">
          <mxGeometry y="190" width="240" height="26" as="geometry" />
        </mxCell>
        <mxCell id="-Ta0aCsaJWy1d612Isen-5" value="" style="shape=table;startSize=0;container=1;collapsible=0;childLayout=tableLayout;" parent="1" vertex="1">
          <mxGeometry x="-800" y="-3400" width="720" height="440" as="geometry" />
        </mxCell>
        <mxCell id="-Ta0aCsaJWy1d612Isen-37" style="shape=tableRow;horizontal=0;startSize=0;swimlaneHead=0;swimlaneBody=0;strokeColor=inherit;top=0;left=0;bottom=0;right=0;collapsible=0;dropTarget=0;fillColor=none;points=[[0,0.5],[1,0.5]];portConstraint=eastwest;" parent="-Ta0aCsaJWy1d612Isen-5" vertex="1">
          <mxGeometry width="720" height="40" as="geometry" />
        </mxCell>
        <mxCell id="-Ta0aCsaJWy1d612Isen-38" value="Agent" style="shape=partialRectangle;html=1;whiteSpace=wrap;connectable=0;strokeColor=inherit;overflow=hidden;fillColor=none;top=0;left=0;bottom=0;right=0;pointerEvents=1;align=center;rowspan=1;colspan=2;fontSize=14;fontStyle=1" parent="-Ta0aCsaJWy1d612Isen-37" vertex="1">
          <mxGeometry width="720" height="40" as="geometry">
            <mxRectangle width="240" height="40" as="alternateBounds" />
          </mxGeometry>
        </mxCell>
        <mxCell id="-Ta0aCsaJWy1d612Isen-39" style="shape=partialRectangle;html=1;whiteSpace=wrap;connectable=0;strokeColor=inherit;overflow=hidden;fillColor=none;top=0;left=0;bottom=0;right=0;pointerEvents=1;" parent="-Ta0aCsaJWy1d612Isen-37" vertex="1" visible="0">
          <mxGeometry x="240" width="480" height="40" as="geometry">
            <mxRectangle width="480" height="40" as="alternateBounds" />
          </mxGeometry>
        </mxCell>
        <mxCell id="-Ta0aCsaJWy1d612Isen-6" value="" style="shape=tableRow;horizontal=0;startSize=0;swimlaneHead=0;swimlaneBody=0;strokeColor=inherit;top=0;left=0;bottom=0;right=0;collapsible=0;dropTarget=0;fillColor=none;points=[[0,0.5],[1,0.5]];portConstraint=eastwest;" parent="-Ta0aCsaJWy1d612Isen-5" vertex="1">
          <mxGeometry y="40" width="720" height="40" as="geometry" />
        </mxCell>
        <mxCell id="-Ta0aCsaJWy1d612Isen-7" value="foaf:name" style="shape=partialRectangle;html=1;whiteSpace=wrap;connectable=0;strokeColor=inherit;overflow=hidden;fillColor=none;top=0;left=0;bottom=0;right=0;pointerEvents=1;align=left;" parent="-Ta0aCsaJWy1d612Isen-6" vertex="1">
          <mxGeometry width="240" height="40" as="geometry">
            <mxRectangle width="240" height="40" as="alternateBounds" />
          </mxGeometry>
        </mxCell>
        <mxCell id="-Ta0aCsaJWy1d612Isen-8" value="A name for the agent (can be person, org, etc.)" style="shape=partialRectangle;html=1;whiteSpace=wrap;connectable=0;strokeColor=inherit;overflow=hidden;fillColor=none;top=0;left=0;bottom=0;right=0;pointerEvents=1;align=left;" parent="-Ta0aCsaJWy1d612Isen-6" vertex="1">
          <mxGeometry x="240" width="480" height="40" as="geometry">
            <mxRectangle width="480" height="40" as="alternateBounds" />
          </mxGeometry>
        </mxCell>
        <mxCell id="-Ta0aCsaJWy1d612Isen-9" value="" style="shape=tableRow;horizontal=0;startSize=0;swimlaneHead=0;swimlaneBody=0;strokeColor=inherit;top=0;left=0;bottom=0;right=0;collapsible=0;dropTarget=0;fillColor=none;points=[[0,0.5],[1,0.5]];portConstraint=eastwest;" parent="-Ta0aCsaJWy1d612Isen-5" vertex="1">
          <mxGeometry y="80" width="720" height="40" as="geometry" />
        </mxCell>
        <mxCell id="-Ta0aCsaJWy1d612Isen-10" value="foaf:mbox" style="shape=partialRectangle;html=1;whiteSpace=wrap;connectable=0;strokeColor=inherit;overflow=hidden;fillColor=none;top=0;left=0;bottom=0;right=0;pointerEvents=1;align=left;" parent="-Ta0aCsaJWy1d612Isen-9" vertex="1">
          <mxGeometry width="240" height="40" as="geometry">
            <mxRectangle width="240" height="40" as="alternateBounds" />
          </mxGeometry>
        </mxCell>
        <mxCell id="-Ta0aCsaJWy1d612Isen-11" value="Personal mailbox (email) as a unique identifier" style="shape=partialRectangle;html=1;whiteSpace=wrap;connectable=0;strokeColor=inherit;overflow=hidden;fillColor=none;top=0;left=0;bottom=0;right=0;pointerEvents=1;align=left;" parent="-Ta0aCsaJWy1d612Isen-9" vertex="1">
          <mxGeometry x="240" width="480" height="40" as="geometry">
            <mxRectangle width="480" height="40" as="alternateBounds" />
          </mxGeometry>
        </mxCell>
        <mxCell id="-Ta0aCsaJWy1d612Isen-12" value="" style="shape=tableRow;horizontal=0;startSize=0;swimlaneHead=0;swimlaneBody=0;strokeColor=inherit;top=0;left=0;bottom=0;right=0;collapsible=0;dropTarget=0;fillColor=none;points=[[0,0.5],[1,0.5]];portConstraint=eastwest;" parent="-Ta0aCsaJWy1d612Isen-5" vertex="1">
          <mxGeometry y="120" width="720" height="40" as="geometry" />
        </mxCell>
        <mxCell id="-Ta0aCsaJWy1d612Isen-13" value="foaf:mbox_sha1sum" style="shape=partialRectangle;html=1;whiteSpace=wrap;connectable=0;strokeColor=inherit;overflow=hidden;fillColor=none;top=0;left=0;bottom=0;right=0;pointerEvents=1;align=left;" parent="-Ta0aCsaJWy1d612Isen-12" vertex="1">
          <mxGeometry width="240" height="40" as="geometry">
            <mxRectangle width="240" height="40" as="alternateBounds" />
          </mxGeometry>
        </mxCell>
        <mxCell id="-Ta0aCsaJWy1d612Isen-14" value="SHA1 hash of an email address" style="shape=partialRectangle;html=1;whiteSpace=wrap;connectable=0;strokeColor=inherit;overflow=hidden;fillColor=none;top=0;left=0;bottom=0;right=0;pointerEvents=1;align=left;" parent="-Ta0aCsaJWy1d612Isen-12" vertex="1">
          <mxGeometry x="240" width="480" height="40" as="geometry">
            <mxRectangle width="480" height="40" as="alternateBounds" />
          </mxGeometry>
        </mxCell>
        <mxCell id="-Ta0aCsaJWy1d612Isen-15" value="" style="shape=tableRow;horizontal=0;startSize=0;swimlaneHead=0;swimlaneBody=0;strokeColor=inherit;top=0;left=0;bottom=0;right=0;collapsible=0;dropTarget=0;fillColor=none;points=[[0,0.5],[1,0.5]];portConstraint=eastwest;" parent="-Ta0aCsaJWy1d612Isen-5" vertex="1">
          <mxGeometry y="160" width="720" height="40" as="geometry" />
        </mxCell>
        <mxCell id="-Ta0aCsaJWy1d612Isen-16" value="foaf:homepage" style="shape=partialRectangle;html=1;whiteSpace=wrap;connectable=0;strokeColor=inherit;overflow=hidden;fillColor=none;top=0;left=0;bottom=0;right=0;pointerEvents=1;align=left;" parent="-Ta0aCsaJWy1d612Isen-15" vertex="1">
          <mxGeometry width="240" height="40" as="geometry">
            <mxRectangle width="240" height="40" as="alternateBounds" />
          </mxGeometry>
        </mxCell>
        <mxCell id="-Ta0aCsaJWy1d612Isen-17" value="URL of the agent&#39;s homepage" style="shape=partialRectangle;html=1;whiteSpace=wrap;connectable=0;strokeColor=inherit;overflow=hidden;fillColor=none;top=0;left=0;bottom=0;right=0;pointerEvents=1;align=left;" parent="-Ta0aCsaJWy1d612Isen-15" vertex="1">
          <mxGeometry x="240" width="480" height="40" as="geometry">
            <mxRectangle width="480" height="40" as="alternateBounds" />
          </mxGeometry>
        </mxCell>
        <mxCell id="-Ta0aCsaJWy1d612Isen-18" value="" style="shape=tableRow;horizontal=0;startSize=0;swimlaneHead=0;swimlaneBody=0;strokeColor=inherit;top=0;left=0;bottom=0;right=0;collapsible=0;dropTarget=0;fillColor=none;points=[[0,0.5],[1,0.5]];portConstraint=eastwest;" parent="-Ta0aCsaJWy1d612Isen-5" vertex="1">
          <mxGeometry y="200" width="720" height="40" as="geometry" />
        </mxCell>
        <mxCell id="-Ta0aCsaJWy1d612Isen-19" value="foaf:openid" style="shape=partialRectangle;html=1;whiteSpace=wrap;connectable=0;strokeColor=inherit;overflow=hidden;fillColor=none;top=0;left=0;bottom=0;right=0;pointerEvents=1;align=left;" parent="-Ta0aCsaJWy1d612Isen-18" vertex="1">
          <mxGeometry width="240" height="40" as="geometry">
            <mxRectangle width="240" height="40" as="alternateBounds" />
          </mxGeometry>
        </mxCell>
        <mxCell id="-Ta0aCsaJWy1d612Isen-20" value="An OpenID for the agent" style="shape=partialRectangle;html=1;whiteSpace=wrap;connectable=0;strokeColor=inherit;overflow=hidden;fillColor=none;top=0;left=0;bottom=0;right=0;pointerEvents=1;align=left;" parent="-Ta0aCsaJWy1d612Isen-18" vertex="1">
          <mxGeometry x="240" width="480" height="40" as="geometry">
            <mxRectangle width="480" height="40" as="alternateBounds" />
          </mxGeometry>
        </mxCell>
        <mxCell id="-Ta0aCsaJWy1d612Isen-21" value="" style="shape=tableRow;horizontal=0;startSize=0;swimlaneHead=0;swimlaneBody=0;strokeColor=inherit;top=0;left=0;bottom=0;right=0;collapsible=0;dropTarget=0;fillColor=none;points=[[0,0.5],[1,0.5]];portConstraint=eastwest;" parent="-Ta0aCsaJWy1d612Isen-5" vertex="1">
          <mxGeometry y="240" width="720" height="40" as="geometry" />
        </mxCell>
        <mxCell id="-Ta0aCsaJWy1d612Isen-22" value="foaf:tipjar" style="shape=partialRectangle;html=1;whiteSpace=wrap;connectable=0;strokeColor=inherit;overflow=hidden;fillColor=none;top=0;left=0;bottom=0;right=0;pointerEvents=1;align=left;" parent="-Ta0aCsaJWy1d612Isen-21" vertex="1">
          <mxGeometry width="240" height="40" as="geometry">
            <mxRectangle width="240" height="40" as="alternateBounds" />
          </mxGeometry>
        </mxCell>
        <mxCell id="-Ta0aCsaJWy1d612Isen-23" value="A place where donations can be sent" style="shape=partialRectangle;html=1;whiteSpace=wrap;connectable=0;strokeColor=inherit;overflow=hidden;fillColor=none;top=0;left=0;bottom=0;right=0;pointerEvents=1;align=left;" parent="-Ta0aCsaJWy1d612Isen-21" vertex="1">
          <mxGeometry x="240" width="480" height="40" as="geometry">
            <mxRectangle width="480" height="40" as="alternateBounds" />
          </mxGeometry>
        </mxCell>
        <mxCell id="-Ta0aCsaJWy1d612Isen-24" value="" style="shape=tableRow;horizontal=0;startSize=0;swimlaneHead=0;swimlaneBody=0;strokeColor=inherit;top=0;left=0;bottom=0;right=0;collapsible=0;dropTarget=0;fillColor=none;points=[[0,0.5],[1,0.5]];portConstraint=eastwest;" parent="-Ta0aCsaJWy1d612Isen-5" vertex="1">
          <mxGeometry y="280" width="720" height="40" as="geometry" />
        </mxCell>
        <mxCell id="-Ta0aCsaJWy1d612Isen-25" value="foaf:weblog" style="shape=partialRectangle;html=1;whiteSpace=wrap;connectable=0;strokeColor=inherit;overflow=hidden;fillColor=none;top=0;left=0;bottom=0;right=0;pointerEvents=1;align=left;" parent="-Ta0aCsaJWy1d612Isen-24" vertex="1">
          <mxGeometry width="240" height="40" as="geometry">
            <mxRectangle width="240" height="40" as="alternateBounds" />
          </mxGeometry>
        </mxCell>
        <mxCell id="-Ta0aCsaJWy1d612Isen-26" value="Link to a blog or similar site maintained by the agent" style="shape=partialRectangle;html=1;whiteSpace=wrap;connectable=0;strokeColor=inherit;overflow=hidden;fillColor=none;top=0;left=0;bottom=0;right=0;pointerEvents=1;align=left;" parent="-Ta0aCsaJWy1d612Isen-24" vertex="1">
          <mxGeometry x="240" width="480" height="40" as="geometry">
            <mxRectangle width="480" height="40" as="alternateBounds" />
          </mxGeometry>
        </mxCell>
        <mxCell id="-Ta0aCsaJWy1d612Isen-27" value="" style="shape=tableRow;horizontal=0;startSize=0;swimlaneHead=0;swimlaneBody=0;strokeColor=inherit;top=0;left=0;bottom=0;right=0;collapsible=0;dropTarget=0;fillColor=none;points=[[0,0.5],[1,0.5]];portConstraint=eastwest;" parent="-Ta0aCsaJWy1d612Isen-5" vertex="1">
          <mxGeometry y="320" width="720" height="40" as="geometry" />
        </mxCell>
        <mxCell id="-Ta0aCsaJWy1d612Isen-28" value="foaf:account" style="shape=partialRectangle;html=1;whiteSpace=wrap;connectable=0;strokeColor=inherit;overflow=hidden;fillColor=none;top=0;left=0;bottom=0;right=0;pointerEvents=1;align=left;" parent="-Ta0aCsaJWy1d612Isen-27" vertex="1">
          <mxGeometry width="240" height="40" as="geometry">
            <mxRectangle width="240" height="40" as="alternateBounds" />
          </mxGeometry>
        </mxCell>
        <mxCell id="-Ta0aCsaJWy1d612Isen-29" value="An online account held by the agent" style="shape=partialRectangle;html=1;whiteSpace=wrap;connectable=0;strokeColor=inherit;overflow=hidden;fillColor=none;top=0;left=0;bottom=0;right=0;pointerEvents=1;align=left;" parent="-Ta0aCsaJWy1d612Isen-27" vertex="1">
          <mxGeometry x="240" width="480" height="40" as="geometry">
            <mxRectangle width="480" height="40" as="alternateBounds" />
          </mxGeometry>
        </mxCell>
        <mxCell id="-Ta0aCsaJWy1d612Isen-30" value="" style="shape=tableRow;horizontal=0;startSize=0;swimlaneHead=0;swimlaneBody=0;strokeColor=inherit;top=0;left=0;bottom=0;right=0;collapsible=0;dropTarget=0;fillColor=none;points=[[0,0.5],[1,0.5]];portConstraint=eastwest;" parent="-Ta0aCsaJWy1d612Isen-5" vertex="1">
          <mxGeometry y="360" width="720" height="40" as="geometry" />
        </mxCell>
        <mxCell id="-Ta0aCsaJWy1d612Isen-31" value="foaf:accountName" style="shape=partialRectangle;html=1;whiteSpace=wrap;connectable=0;strokeColor=inherit;overflow=hidden;fillColor=none;top=0;left=0;bottom=0;right=0;pointerEvents=1;align=left;" parent="-Ta0aCsaJWy1d612Isen-30" vertex="1">
          <mxGeometry width="240" height="40" as="geometry">
            <mxRectangle width="240" height="40" as="alternateBounds" />
          </mxGeometry>
        </mxCell>
        <mxCell id="-Ta0aCsaJWy1d612Isen-32" value="String nickname/username for the online account" style="shape=partialRectangle;html=1;whiteSpace=wrap;connectable=0;strokeColor=inherit;overflow=hidden;fillColor=none;top=0;left=0;bottom=0;right=0;pointerEvents=1;align=left;" parent="-Ta0aCsaJWy1d612Isen-30" vertex="1">
          <mxGeometry x="240" width="480" height="40" as="geometry">
            <mxRectangle width="480" height="40" as="alternateBounds" />
          </mxGeometry>
        </mxCell>
        <mxCell id="-Ta0aCsaJWy1d612Isen-33" value="" style="shape=tableRow;horizontal=0;startSize=0;swimlaneHead=0;swimlaneBody=0;strokeColor=inherit;top=0;left=0;bottom=0;right=0;collapsible=0;dropTarget=0;fillColor=none;points=[[0,0.5],[1,0.5]];portConstraint=eastwest;" parent="-Ta0aCsaJWy1d612Isen-5" vertex="1">
          <mxGeometry y="400" width="720" height="40" as="geometry" />
        </mxCell>
        <mxCell id="-Ta0aCsaJWy1d612Isen-34" value="foaf:accountServiceHomepage" style="shape=partialRectangle;html=1;whiteSpace=wrap;connectable=0;strokeColor=inherit;overflow=hidden;fillColor=none;top=0;left=0;bottom=0;right=0;pointerEvents=1;align=left;" parent="-Ta0aCsaJWy1d612Isen-33" vertex="1">
          <mxGeometry width="240" height="40" as="geometry">
            <mxRectangle width="240" height="40" as="alternateBounds" />
          </mxGeometry>
        </mxCell>
        <mxCell id="-Ta0aCsaJWy1d612Isen-35" value="Homepage of the account service provider" style="shape=partialRectangle;html=1;whiteSpace=wrap;connectable=0;strokeColor=inherit;overflow=hidden;fillColor=none;top=0;left=0;bottom=0;right=0;pointerEvents=1;align=left;" parent="-Ta0aCsaJWy1d612Isen-33" vertex="1">
          <mxGeometry x="240" width="480" height="40" as="geometry">
            <mxRectangle width="480" height="40" as="alternateBounds" />
          </mxGeometry>
        </mxCell>
        <mxCell id="-Ta0aCsaJWy1d612Isen-40" value="" style="shape=table;startSize=0;container=1;collapsible=0;childLayout=tableLayout;" parent="1" vertex="1">
          <mxGeometry y="-3400" width="800" height="840" as="geometry" />
        </mxCell>
        <mxCell id="-Ta0aCsaJWy1d612Isen-101" style="shape=tableRow;horizontal=0;startSize=0;swimlaneHead=0;swimlaneBody=0;strokeColor=inherit;top=0;left=0;bottom=0;right=0;collapsible=0;dropTarget=0;fillColor=none;points=[[0,0.5],[1,0.5]];portConstraint=eastwest;" parent="-Ta0aCsaJWy1d612Isen-40" vertex="1">
          <mxGeometry width="800" height="40" as="geometry" />
        </mxCell>
        <mxCell id="-Ta0aCsaJWy1d612Isen-102" value="&lt;font style=&quot;font-size: 14px;&quot;&gt;&lt;b&gt;Person&lt;/b&gt;&lt;/font&gt;" style="shape=partialRectangle;html=1;whiteSpace=wrap;connectable=0;strokeColor=inherit;overflow=hidden;fillColor=none;top=0;left=0;bottom=0;right=0;pointerEvents=1;rowspan=1;colspan=2;" parent="-Ta0aCsaJWy1d612Isen-101" vertex="1">
          <mxGeometry width="800" height="40" as="geometry">
            <mxRectangle width="280" height="40" as="alternateBounds" />
          </mxGeometry>
        </mxCell>
        <mxCell id="-Ta0aCsaJWy1d612Isen-103" style="shape=partialRectangle;html=1;whiteSpace=wrap;connectable=0;strokeColor=inherit;overflow=hidden;fillColor=none;top=0;left=0;bottom=0;right=0;pointerEvents=1;" parent="-Ta0aCsaJWy1d612Isen-101" vertex="1" visible="0">
          <mxGeometry x="280" width="520" height="40" as="geometry">
            <mxRectangle width="520" height="40" as="alternateBounds" />
          </mxGeometry>
        </mxCell>
        <mxCell id="-Ta0aCsaJWy1d612Isen-41" value="" style="shape=tableRow;horizontal=0;startSize=0;swimlaneHead=0;swimlaneBody=0;strokeColor=inherit;top=0;left=0;bottom=0;right=0;collapsible=0;dropTarget=0;fillColor=none;points=[[0,0.5],[1,0.5]];portConstraint=eastwest;" parent="-Ta0aCsaJWy1d612Isen-40" vertex="1">
          <mxGeometry y="40" width="800" height="40" as="geometry" />
        </mxCell>
        <mxCell id="-Ta0aCsaJWy1d612Isen-42" value="foaf:firstName" style="shape=partialRectangle;html=1;whiteSpace=wrap;connectable=0;strokeColor=inherit;overflow=hidden;fillColor=none;top=0;left=0;bottom=0;right=0;pointerEvents=1;align=left;" parent="-Ta0aCsaJWy1d612Isen-41" vertex="1">
          <mxGeometry width="280" height="40" as="geometry">
            <mxRectangle width="280" height="40" as="alternateBounds" />
          </mxGeometry>
        </mxCell>
        <mxCell id="-Ta0aCsaJWy1d612Isen-43" value="Person’s first name" style="shape=partialRectangle;html=1;whiteSpace=wrap;connectable=0;strokeColor=inherit;overflow=hidden;fillColor=none;top=0;left=0;bottom=0;right=0;pointerEvents=1;align=left;" parent="-Ta0aCsaJWy1d612Isen-41" vertex="1">
          <mxGeometry x="280" width="520" height="40" as="geometry">
            <mxRectangle width="520" height="40" as="alternateBounds" />
          </mxGeometry>
        </mxCell>
        <mxCell id="-Ta0aCsaJWy1d612Isen-44" value="" style="shape=tableRow;horizontal=0;startSize=0;swimlaneHead=0;swimlaneBody=0;strokeColor=inherit;top=0;left=0;bottom=0;right=0;collapsible=0;dropTarget=0;fillColor=none;points=[[0,0.5],[1,0.5]];portConstraint=eastwest;" parent="-Ta0aCsaJWy1d612Isen-40" vertex="1">
          <mxGeometry y="80" width="800" height="40" as="geometry" />
        </mxCell>
        <mxCell id="-Ta0aCsaJWy1d612Isen-45" value="foaf:lastName" style="shape=partialRectangle;html=1;whiteSpace=wrap;connectable=0;strokeColor=inherit;overflow=hidden;fillColor=none;top=0;left=0;bottom=0;right=0;pointerEvents=1;align=left;" parent="-Ta0aCsaJWy1d612Isen-44" vertex="1">
          <mxGeometry width="280" height="40" as="geometry">
            <mxRectangle width="280" height="40" as="alternateBounds" />
          </mxGeometry>
        </mxCell>
        <mxCell id="-Ta0aCsaJWy1d612Isen-46" value="Person’s last name" style="shape=partialRectangle;html=1;whiteSpace=wrap;connectable=0;strokeColor=inherit;overflow=hidden;fillColor=none;top=0;left=0;bottom=0;right=0;pointerEvents=1;align=left;" parent="-Ta0aCsaJWy1d612Isen-44" vertex="1">
          <mxGeometry x="280" width="520" height="40" as="geometry">
            <mxRectangle width="520" height="40" as="alternateBounds" />
          </mxGeometry>
        </mxCell>
        <mxCell id="-Ta0aCsaJWy1d612Isen-47" value="" style="shape=tableRow;horizontal=0;startSize=0;swimlaneHead=0;swimlaneBody=0;strokeColor=inherit;top=0;left=0;bottom=0;right=0;collapsible=0;dropTarget=0;fillColor=none;points=[[0,0.5],[1,0.5]];portConstraint=eastwest;" parent="-Ta0aCsaJWy1d612Isen-40" vertex="1">
          <mxGeometry y="120" width="800" height="40" as="geometry" />
        </mxCell>
        <mxCell id="-Ta0aCsaJWy1d612Isen-48" value="foaf:givenName" style="shape=partialRectangle;html=1;whiteSpace=wrap;connectable=0;strokeColor=inherit;overflow=hidden;fillColor=none;top=0;left=0;bottom=0;right=0;pointerEvents=1;align=left;" parent="-Ta0aCsaJWy1d612Isen-47" vertex="1">
          <mxGeometry width="280" height="40" as="geometry">
            <mxRectangle width="280" height="40" as="alternateBounds" />
          </mxGeometry>
        </mxCell>
        <mxCell id="-Ta0aCsaJWy1d612Isen-49" value="Given name (often same as firstName)" style="shape=partialRectangle;html=1;whiteSpace=wrap;connectable=0;strokeColor=inherit;overflow=hidden;fillColor=none;top=0;left=0;bottom=0;right=0;pointerEvents=1;align=left;" parent="-Ta0aCsaJWy1d612Isen-47" vertex="1">
          <mxGeometry x="280" width="520" height="40" as="geometry">
            <mxRectangle width="520" height="40" as="alternateBounds" />
          </mxGeometry>
        </mxCell>
        <mxCell id="-Ta0aCsaJWy1d612Isen-50" value="" style="shape=tableRow;horizontal=0;startSize=0;swimlaneHead=0;swimlaneBody=0;strokeColor=inherit;top=0;left=0;bottom=0;right=0;collapsible=0;dropTarget=0;fillColor=none;points=[[0,0.5],[1,0.5]];portConstraint=eastwest;" parent="-Ta0aCsaJWy1d612Isen-40" vertex="1">
          <mxGeometry y="160" width="800" height="40" as="geometry" />
        </mxCell>
        <mxCell id="-Ta0aCsaJWy1d612Isen-51" value="foaf:familyName" style="shape=partialRectangle;html=1;whiteSpace=wrap;connectable=0;strokeColor=inherit;overflow=hidden;fillColor=none;top=0;left=0;bottom=0;right=0;pointerEvents=1;align=left;" parent="-Ta0aCsaJWy1d612Isen-50" vertex="1">
          <mxGeometry width="280" height="40" as="geometry">
            <mxRectangle width="280" height="40" as="alternateBounds" />
          </mxGeometry>
        </mxCell>
        <mxCell id="-Ta0aCsaJWy1d612Isen-52" value="Family name (often same as lastName)" style="shape=partialRectangle;html=1;whiteSpace=wrap;connectable=0;strokeColor=inherit;overflow=hidden;fillColor=none;top=0;left=0;bottom=0;right=0;pointerEvents=1;align=left;" parent="-Ta0aCsaJWy1d612Isen-50" vertex="1">
          <mxGeometry x="280" width="520" height="40" as="geometry">
            <mxRectangle width="520" height="40" as="alternateBounds" />
          </mxGeometry>
        </mxCell>
        <mxCell id="-Ta0aCsaJWy1d612Isen-53" value="" style="shape=tableRow;horizontal=0;startSize=0;swimlaneHead=0;swimlaneBody=0;strokeColor=inherit;top=0;left=0;bottom=0;right=0;collapsible=0;dropTarget=0;fillColor=none;points=[[0,0.5],[1,0.5]];portConstraint=eastwest;" parent="-Ta0aCsaJWy1d612Isen-40" vertex="1">
          <mxGeometry y="200" width="800" height="40" as="geometry" />
        </mxCell>
        <mxCell id="-Ta0aCsaJWy1d612Isen-54" value="foaf:nick" style="shape=partialRectangle;html=1;whiteSpace=wrap;connectable=0;strokeColor=inherit;overflow=hidden;fillColor=none;top=0;left=0;bottom=0;right=0;pointerEvents=1;align=left;" parent="-Ta0aCsaJWy1d612Isen-53" vertex="1">
          <mxGeometry width="280" height="40" as="geometry">
            <mxRectangle width="280" height="40" as="alternateBounds" />
          </mxGeometry>
        </mxCell>
        <mxCell id="-Ta0aCsaJWy1d612Isen-55" value="A short informal name (nickname)" style="shape=partialRectangle;html=1;whiteSpace=wrap;connectable=0;strokeColor=inherit;overflow=hidden;fillColor=none;top=0;left=0;bottom=0;right=0;pointerEvents=1;align=left;" parent="-Ta0aCsaJWy1d612Isen-53" vertex="1">
          <mxGeometry x="280" width="520" height="40" as="geometry">
            <mxRectangle width="520" height="40" as="alternateBounds" />
          </mxGeometry>
        </mxCell>
        <mxCell id="-Ta0aCsaJWy1d612Isen-56" value="" style="shape=tableRow;horizontal=0;startSize=0;swimlaneHead=0;swimlaneBody=0;strokeColor=inherit;top=0;left=0;bottom=0;right=0;collapsible=0;dropTarget=0;fillColor=none;points=[[0,0.5],[1,0.5]];portConstraint=eastwest;" parent="-Ta0aCsaJWy1d612Isen-40" vertex="1">
          <mxGeometry y="240" width="800" height="40" as="geometry" />
        </mxCell>
        <mxCell id="-Ta0aCsaJWy1d612Isen-57" value="foaf:title" style="shape=partialRectangle;html=1;whiteSpace=wrap;connectable=0;strokeColor=inherit;overflow=hidden;fillColor=none;top=0;left=0;bottom=0;right=0;pointerEvents=1;align=left;" parent="-Ta0aCsaJWy1d612Isen-56" vertex="1">
          <mxGeometry width="280" height="40" as="geometry">
            <mxRectangle width="280" height="40" as="alternateBounds" />
          </mxGeometry>
        </mxCell>
        <mxCell id="-Ta0aCsaJWy1d612Isen-58" value="Title (Mr., Mrs., Dr., etc.)" style="shape=partialRectangle;html=1;whiteSpace=wrap;connectable=0;strokeColor=inherit;overflow=hidden;fillColor=none;top=0;left=0;bottom=0;right=0;pointerEvents=1;align=left;" parent="-Ta0aCsaJWy1d612Isen-56" vertex="1">
          <mxGeometry x="280" width="520" height="40" as="geometry">
            <mxRectangle width="520" height="40" as="alternateBounds" />
          </mxGeometry>
        </mxCell>
        <mxCell id="-Ta0aCsaJWy1d612Isen-59" value="" style="shape=tableRow;horizontal=0;startSize=0;swimlaneHead=0;swimlaneBody=0;strokeColor=inherit;top=0;left=0;bottom=0;right=0;collapsible=0;dropTarget=0;fillColor=none;points=[[0,0.5],[1,0.5]];portConstraint=eastwest;" parent="-Ta0aCsaJWy1d612Isen-40" vertex="1">
          <mxGeometry y="280" width="800" height="40" as="geometry" />
        </mxCell>
        <mxCell id="-Ta0aCsaJWy1d612Isen-60" value="foaf:gender" style="shape=partialRectangle;html=1;whiteSpace=wrap;connectable=0;strokeColor=inherit;overflow=hidden;fillColor=none;top=0;left=0;bottom=0;right=0;pointerEvents=1;align=left;" parent="-Ta0aCsaJWy1d612Isen-59" vertex="1">
          <mxGeometry width="280" height="40" as="geometry">
            <mxRectangle width="280" height="40" as="alternateBounds" />
          </mxGeometry>
        </mxCell>
        <mxCell id="-Ta0aCsaJWy1d612Isen-61" value="Person’s gender" style="shape=partialRectangle;html=1;whiteSpace=wrap;connectable=0;strokeColor=inherit;overflow=hidden;fillColor=none;top=0;left=0;bottom=0;right=0;pointerEvents=1;align=left;" parent="-Ta0aCsaJWy1d612Isen-59" vertex="1">
          <mxGeometry x="280" width="520" height="40" as="geometry">
            <mxRectangle width="520" height="40" as="alternateBounds" />
          </mxGeometry>
        </mxCell>
        <mxCell id="-Ta0aCsaJWy1d612Isen-62" value="" style="shape=tableRow;horizontal=0;startSize=0;swimlaneHead=0;swimlaneBody=0;strokeColor=inherit;top=0;left=0;bottom=0;right=0;collapsible=0;dropTarget=0;fillColor=none;points=[[0,0.5],[1,0.5]];portConstraint=eastwest;" parent="-Ta0aCsaJWy1d612Isen-40" vertex="1">
          <mxGeometry y="320" width="800" height="40" as="geometry" />
        </mxCell>
        <mxCell id="-Ta0aCsaJWy1d612Isen-63" value="foaf:img" style="shape=partialRectangle;html=1;whiteSpace=wrap;connectable=0;strokeColor=inherit;overflow=hidden;fillColor=none;top=0;left=0;bottom=0;right=0;pointerEvents=1;align=left;" parent="-Ta0aCsaJWy1d612Isen-62" vertex="1">
          <mxGeometry width="280" height="40" as="geometry">
            <mxRectangle width="280" height="40" as="alternateBounds" />
          </mxGeometry>
        </mxCell>
        <mxCell id="-Ta0aCsaJWy1d612Isen-64" value="Image depicting the person" style="shape=partialRectangle;html=1;whiteSpace=wrap;connectable=0;strokeColor=inherit;overflow=hidden;fillColor=none;top=0;left=0;bottom=0;right=0;pointerEvents=1;align=left;" parent="-Ta0aCsaJWy1d612Isen-62" vertex="1">
          <mxGeometry x="280" width="520" height="40" as="geometry">
            <mxRectangle width="520" height="40" as="alternateBounds" />
          </mxGeometry>
        </mxCell>
        <mxCell id="-Ta0aCsaJWy1d612Isen-65" value="" style="shape=tableRow;horizontal=0;startSize=0;swimlaneHead=0;swimlaneBody=0;strokeColor=inherit;top=0;left=0;bottom=0;right=0;collapsible=0;dropTarget=0;fillColor=none;points=[[0,0.5],[1,0.5]];portConstraint=eastwest;" parent="-Ta0aCsaJWy1d612Isen-40" vertex="1">
          <mxGeometry y="360" width="800" height="40" as="geometry" />
        </mxCell>
        <mxCell id="-Ta0aCsaJWy1d612Isen-66" value="foaf:depiction" style="shape=partialRectangle;html=1;whiteSpace=wrap;connectable=0;strokeColor=inherit;overflow=hidden;fillColor=none;top=0;left=0;bottom=0;right=0;pointerEvents=1;align=left;" parent="-Ta0aCsaJWy1d612Isen-65" vertex="1">
          <mxGeometry width="280" height="40" as="geometry">
            <mxRectangle width="280" height="40" as="alternateBounds" />
          </mxGeometry>
        </mxCell>
        <mxCell id="-Ta0aCsaJWy1d612Isen-67" value="An image or depiction of the person" style="shape=partialRectangle;html=1;whiteSpace=wrap;connectable=0;strokeColor=inherit;overflow=hidden;fillColor=none;top=0;left=0;bottom=0;right=0;pointerEvents=1;align=left;" parent="-Ta0aCsaJWy1d612Isen-65" vertex="1">
          <mxGeometry x="280" width="520" height="40" as="geometry">
            <mxRectangle width="520" height="40" as="alternateBounds" />
          </mxGeometry>
        </mxCell>
        <mxCell id="-Ta0aCsaJWy1d612Isen-68" value="" style="shape=tableRow;horizontal=0;startSize=0;swimlaneHead=0;swimlaneBody=0;strokeColor=inherit;top=0;left=0;bottom=0;right=0;collapsible=0;dropTarget=0;fillColor=none;points=[[0,0.5],[1,0.5]];portConstraint=eastwest;" parent="-Ta0aCsaJWy1d612Isen-40" vertex="1">
          <mxGeometry y="400" width="800" height="40" as="geometry" />
        </mxCell>
        <mxCell id="-Ta0aCsaJWy1d612Isen-69" value="foaf:depicts" style="shape=partialRectangle;html=1;whiteSpace=wrap;connectable=0;strokeColor=inherit;overflow=hidden;fillColor=none;top=0;left=0;bottom=0;right=0;pointerEvents=1;align=left;" parent="-Ta0aCsaJWy1d612Isen-68" vertex="1">
          <mxGeometry width="280" height="40" as="geometry">
            <mxRectangle width="280" height="40" as="alternateBounds" />
          </mxGeometry>
        </mxCell>
        <mxCell id="-Ta0aCsaJWy1d612Isen-70" value="Inverse of foaf:depiction" style="shape=partialRectangle;html=1;whiteSpace=wrap;connectable=0;strokeColor=inherit;overflow=hidden;fillColor=none;top=0;left=0;bottom=0;right=0;pointerEvents=1;align=left;" parent="-Ta0aCsaJWy1d612Isen-68" vertex="1">
          <mxGeometry x="280" width="520" height="40" as="geometry">
            <mxRectangle width="520" height="40" as="alternateBounds" />
          </mxGeometry>
        </mxCell>
        <mxCell id="-Ta0aCsaJWy1d612Isen-71" value="" style="shape=tableRow;horizontal=0;startSize=0;swimlaneHead=0;swimlaneBody=0;strokeColor=inherit;top=0;left=0;bottom=0;right=0;collapsible=0;dropTarget=0;fillColor=none;points=[[0,0.5],[1,0.5]];portConstraint=eastwest;" parent="-Ta0aCsaJWy1d612Isen-40" vertex="1">
          <mxGeometry y="440" width="800" height="40" as="geometry" />
        </mxCell>
        <mxCell id="-Ta0aCsaJWy1d612Isen-72" value="foaf:knows" style="shape=partialRectangle;html=1;whiteSpace=wrap;connectable=0;strokeColor=inherit;overflow=hidden;fillColor=none;top=0;left=0;bottom=0;right=0;pointerEvents=1;align=left;" parent="-Ta0aCsaJWy1d612Isen-71" vertex="1">
          <mxGeometry width="280" height="40" as="geometry">
            <mxRectangle width="280" height="40" as="alternateBounds" />
          </mxGeometry>
        </mxCell>
        <mxCell id="-Ta0aCsaJWy1d612Isen-73" value="Links to other foaf:Person instances known by this one" style="shape=partialRectangle;html=1;whiteSpace=wrap;connectable=0;strokeColor=inherit;overflow=hidden;fillColor=none;top=0;left=0;bottom=0;right=0;pointerEvents=1;align=left;" parent="-Ta0aCsaJWy1d612Isen-71" vertex="1">
          <mxGeometry x="280" width="520" height="40" as="geometry">
            <mxRectangle width="520" height="40" as="alternateBounds" />
          </mxGeometry>
        </mxCell>
        <mxCell id="-Ta0aCsaJWy1d612Isen-74" value="" style="shape=tableRow;horizontal=0;startSize=0;swimlaneHead=0;swimlaneBody=0;strokeColor=inherit;top=0;left=0;bottom=0;right=0;collapsible=0;dropTarget=0;fillColor=none;points=[[0,0.5],[1,0.5]];portConstraint=eastwest;" parent="-Ta0aCsaJWy1d612Isen-40" vertex="1">
          <mxGeometry y="480" width="800" height="40" as="geometry" />
        </mxCell>
        <mxCell id="-Ta0aCsaJWy1d612Isen-75" value="foaf:age" style="shape=partialRectangle;html=1;whiteSpace=wrap;connectable=0;strokeColor=inherit;overflow=hidden;fillColor=none;top=0;left=0;bottom=0;right=0;pointerEvents=1;align=left;" parent="-Ta0aCsaJWy1d612Isen-74" vertex="1">
          <mxGeometry width="280" height="40" as="geometry">
            <mxRectangle width="280" height="40" as="alternateBounds" />
          </mxGeometry>
        </mxCell>
        <mxCell id="-Ta0aCsaJWy1d612Isen-76" value="Person’s age (as a datatype property)" style="shape=partialRectangle;html=1;whiteSpace=wrap;connectable=0;strokeColor=inherit;overflow=hidden;fillColor=none;top=0;left=0;bottom=0;right=0;pointerEvents=1;align=left;" parent="-Ta0aCsaJWy1d612Isen-74" vertex="1">
          <mxGeometry x="280" width="520" height="40" as="geometry">
            <mxRectangle width="520" height="40" as="alternateBounds" />
          </mxGeometry>
        </mxCell>
        <mxCell id="-Ta0aCsaJWy1d612Isen-77" value="" style="shape=tableRow;horizontal=0;startSize=0;swimlaneHead=0;swimlaneBody=0;strokeColor=inherit;top=0;left=0;bottom=0;right=0;collapsible=0;dropTarget=0;fillColor=none;points=[[0,0.5],[1,0.5]];portConstraint=eastwest;" parent="-Ta0aCsaJWy1d612Isen-40" vertex="1">
          <mxGeometry y="520" width="800" height="40" as="geometry" />
        </mxCell>
        <mxCell id="-Ta0aCsaJWy1d612Isen-78" value="foaf:birthday" style="shape=partialRectangle;html=1;whiteSpace=wrap;connectable=0;strokeColor=inherit;overflow=hidden;fillColor=none;top=0;left=0;bottom=0;right=0;pointerEvents=1;align=left;" parent="-Ta0aCsaJWy1d612Isen-77" vertex="1">
          <mxGeometry width="280" height="40" as="geometry">
            <mxRectangle width="280" height="40" as="alternateBounds" />
          </mxGeometry>
        </mxCell>
        <mxCell id="-Ta0aCsaJWy1d612Isen-79" value="Birthdate (non-standard format, usually MM-DD)" style="shape=partialRectangle;html=1;whiteSpace=wrap;connectable=0;strokeColor=inherit;overflow=hidden;fillColor=none;top=0;left=0;bottom=0;right=0;pointerEvents=1;align=left;" parent="-Ta0aCsaJWy1d612Isen-77" vertex="1">
          <mxGeometry x="280" width="520" height="40" as="geometry">
            <mxRectangle width="520" height="40" as="alternateBounds" />
          </mxGeometry>
        </mxCell>
        <mxCell id="-Ta0aCsaJWy1d612Isen-80" value="" style="shape=tableRow;horizontal=0;startSize=0;swimlaneHead=0;swimlaneBody=0;strokeColor=inherit;top=0;left=0;bottom=0;right=0;collapsible=0;dropTarget=0;fillColor=none;points=[[0,0.5],[1,0.5]];portConstraint=eastwest;" parent="-Ta0aCsaJWy1d612Isen-40" vertex="1">
          <mxGeometry y="560" width="800" height="40" as="geometry" />
        </mxCell>
        <mxCell id="-Ta0aCsaJWy1d612Isen-81" value="foaf:schoolHomepage" style="shape=partialRectangle;html=1;whiteSpace=wrap;connectable=0;strokeColor=inherit;overflow=hidden;fillColor=none;top=0;left=0;bottom=0;right=0;pointerEvents=1;align=left;" parent="-Ta0aCsaJWy1d612Isen-80" vertex="1">
          <mxGeometry width="280" height="40" as="geometry">
            <mxRectangle width="280" height="40" as="alternateBounds" />
          </mxGeometry>
        </mxCell>
        <mxCell id="-Ta0aCsaJWy1d612Isen-82" value="Homepage of a school the person attended" style="shape=partialRectangle;html=1;whiteSpace=wrap;connectable=0;strokeColor=inherit;overflow=hidden;fillColor=none;top=0;left=0;bottom=0;right=0;pointerEvents=1;align=left;" parent="-Ta0aCsaJWy1d612Isen-80" vertex="1">
          <mxGeometry x="280" width="520" height="40" as="geometry">
            <mxRectangle width="520" height="40" as="alternateBounds" />
          </mxGeometry>
        </mxCell>
        <mxCell id="-Ta0aCsaJWy1d612Isen-83" value="" style="shape=tableRow;horizontal=0;startSize=0;swimlaneHead=0;swimlaneBody=0;strokeColor=inherit;top=0;left=0;bottom=0;right=0;collapsible=0;dropTarget=0;fillColor=none;points=[[0,0.5],[1,0.5]];portConstraint=eastwest;" parent="-Ta0aCsaJWy1d612Isen-40" vertex="1">
          <mxGeometry y="600" width="800" height="40" as="geometry" />
        </mxCell>
        <mxCell id="-Ta0aCsaJWy1d612Isen-84" value="foaf:workplaceHomepage" style="shape=partialRectangle;html=1;whiteSpace=wrap;connectable=0;strokeColor=inherit;overflow=hidden;fillColor=none;top=0;left=0;bottom=0;right=0;pointerEvents=1;align=left;" parent="-Ta0aCsaJWy1d612Isen-83" vertex="1">
          <mxGeometry width="280" height="40" as="geometry">
            <mxRectangle width="280" height="40" as="alternateBounds" />
          </mxGeometry>
        </mxCell>
        <mxCell id="-Ta0aCsaJWy1d612Isen-85" value="Homepage of a workplace" style="shape=partialRectangle;html=1;whiteSpace=wrap;connectable=0;strokeColor=inherit;overflow=hidden;fillColor=none;top=0;left=0;bottom=0;right=0;pointerEvents=1;align=left;" parent="-Ta0aCsaJWy1d612Isen-83" vertex="1">
          <mxGeometry x="280" width="520" height="40" as="geometry">
            <mxRectangle width="520" height="40" as="alternateBounds" />
          </mxGeometry>
        </mxCell>
        <mxCell id="-Ta0aCsaJWy1d612Isen-86" value="" style="shape=tableRow;horizontal=0;startSize=0;swimlaneHead=0;swimlaneBody=0;strokeColor=inherit;top=0;left=0;bottom=0;right=0;collapsible=0;dropTarget=0;fillColor=none;points=[[0,0.5],[1,0.5]];portConstraint=eastwest;" parent="-Ta0aCsaJWy1d612Isen-40" vertex="1">
          <mxGeometry y="640" width="800" height="40" as="geometry" />
        </mxCell>
        <mxCell id="-Ta0aCsaJWy1d612Isen-87" value="foaf:workInfoHomepage" style="shape=partialRectangle;html=1;whiteSpace=wrap;connectable=0;strokeColor=inherit;overflow=hidden;fillColor=none;top=0;left=0;bottom=0;right=0;pointerEvents=1;align=left;" parent="-Ta0aCsaJWy1d612Isen-86" vertex="1">
          <mxGeometry width="280" height="40" as="geometry">
            <mxRectangle width="280" height="40" as="alternateBounds" />
          </mxGeometry>
        </mxCell>
        <mxCell id="-Ta0aCsaJWy1d612Isen-88" value="Page describing work info" style="shape=partialRectangle;html=1;whiteSpace=wrap;connectable=0;strokeColor=inherit;overflow=hidden;fillColor=none;top=0;left=0;bottom=0;right=0;pointerEvents=1;align=left;" parent="-Ta0aCsaJWy1d612Isen-86" vertex="1">
          <mxGeometry x="280" width="520" height="40" as="geometry">
            <mxRectangle width="520" height="40" as="alternateBounds" />
          </mxGeometry>
        </mxCell>
        <mxCell id="-Ta0aCsaJWy1d612Isen-89" value="" style="shape=tableRow;horizontal=0;startSize=0;swimlaneHead=0;swimlaneBody=0;strokeColor=inherit;top=0;left=0;bottom=0;right=0;collapsible=0;dropTarget=0;fillColor=none;points=[[0,0.5],[1,0.5]];portConstraint=eastwest;" parent="-Ta0aCsaJWy1d612Isen-40" vertex="1">
          <mxGeometry y="680" width="800" height="40" as="geometry" />
        </mxCell>
        <mxCell id="-Ta0aCsaJWy1d612Isen-90" value="foaf:interest" style="shape=partialRectangle;html=1;whiteSpace=wrap;connectable=0;strokeColor=inherit;overflow=hidden;fillColor=none;top=0;left=0;bottom=0;right=0;pointerEvents=1;align=left;" parent="-Ta0aCsaJWy1d612Isen-89" vertex="1">
          <mxGeometry width="280" height="40" as="geometry">
            <mxRectangle width="280" height="40" as="alternateBounds" />
          </mxGeometry>
        </mxCell>
        <mxCell id="-Ta0aCsaJWy1d612Isen-91" value="A topic the person is interested in" style="shape=partialRectangle;html=1;whiteSpace=wrap;connectable=0;strokeColor=inherit;overflow=hidden;fillColor=none;top=0;left=0;bottom=0;right=0;pointerEvents=1;align=left;" parent="-Ta0aCsaJWy1d612Isen-89" vertex="1">
          <mxGeometry x="280" width="520" height="40" as="geometry">
            <mxRectangle width="520" height="40" as="alternateBounds" />
          </mxGeometry>
        </mxCell>
        <mxCell id="-Ta0aCsaJWy1d612Isen-92" value="" style="shape=tableRow;horizontal=0;startSize=0;swimlaneHead=0;swimlaneBody=0;strokeColor=inherit;top=0;left=0;bottom=0;right=0;collapsible=0;dropTarget=0;fillColor=none;points=[[0,0.5],[1,0.5]];portConstraint=eastwest;" parent="-Ta0aCsaJWy1d612Isen-40" vertex="1">
          <mxGeometry y="720" width="800" height="40" as="geometry" />
        </mxCell>
        <mxCell id="-Ta0aCsaJWy1d612Isen-93" value="foaf:myersBriggs" style="shape=partialRectangle;html=1;whiteSpace=wrap;connectable=0;strokeColor=inherit;overflow=hidden;fillColor=none;top=0;left=0;bottom=0;right=0;pointerEvents=1;align=left;" parent="-Ta0aCsaJWy1d612Isen-92" vertex="1">
          <mxGeometry width="280" height="40" as="geometry">
            <mxRectangle width="280" height="40" as="alternateBounds" />
          </mxGeometry>
        </mxCell>
        <mxCell id="-Ta0aCsaJWy1d612Isen-94" value="Myers-Briggs personality type (e.g., INFP, ESTJ)" style="shape=partialRectangle;html=1;whiteSpace=wrap;connectable=0;strokeColor=inherit;overflow=hidden;fillColor=none;top=0;left=0;bottom=0;right=0;pointerEvents=1;align=left;" parent="-Ta0aCsaJWy1d612Isen-92" vertex="1">
          <mxGeometry x="280" width="520" height="40" as="geometry">
            <mxRectangle width="520" height="40" as="alternateBounds" />
          </mxGeometry>
        </mxCell>
        <mxCell id="-Ta0aCsaJWy1d612Isen-95" value="" style="shape=tableRow;horizontal=0;startSize=0;swimlaneHead=0;swimlaneBody=0;strokeColor=inherit;top=0;left=0;bottom=0;right=0;collapsible=0;dropTarget=0;fillColor=none;points=[[0,0.5],[1,0.5]];portConstraint=eastwest;" parent="-Ta0aCsaJWy1d612Isen-40" vertex="1">
          <mxGeometry y="760" width="800" height="40" as="geometry" />
        </mxCell>
        <mxCell id="-Ta0aCsaJWy1d612Isen-96" value="foaf:currentProject" style="shape=partialRectangle;html=1;whiteSpace=wrap;connectable=0;strokeColor=inherit;overflow=hidden;fillColor=none;top=0;left=0;bottom=0;right=0;pointerEvents=1;align=left;" parent="-Ta0aCsaJWy1d612Isen-95" vertex="1">
          <mxGeometry width="280" height="40" as="geometry">
            <mxRectangle width="280" height="40" as="alternateBounds" />
          </mxGeometry>
        </mxCell>
        <mxCell id="-Ta0aCsaJWy1d612Isen-97" value="A project the person is working on" style="shape=partialRectangle;html=1;whiteSpace=wrap;connectable=0;strokeColor=inherit;overflow=hidden;fillColor=none;top=0;left=0;bottom=0;right=0;pointerEvents=1;align=left;" parent="-Ta0aCsaJWy1d612Isen-95" vertex="1">
          <mxGeometry x="280" width="520" height="40" as="geometry">
            <mxRectangle width="520" height="40" as="alternateBounds" />
          </mxGeometry>
        </mxCell>
        <mxCell id="-Ta0aCsaJWy1d612Isen-98" value="" style="shape=tableRow;horizontal=0;startSize=0;swimlaneHead=0;swimlaneBody=0;strokeColor=inherit;top=0;left=0;bottom=0;right=0;collapsible=0;dropTarget=0;fillColor=none;points=[[0,0.5],[1,0.5]];portConstraint=eastwest;" parent="-Ta0aCsaJWy1d612Isen-40" vertex="1">
          <mxGeometry y="800" width="800" height="40" as="geometry" />
        </mxCell>
        <mxCell id="-Ta0aCsaJWy1d612Isen-99" value="foaf:pastProject" style="shape=partialRectangle;html=1;whiteSpace=wrap;connectable=0;strokeColor=inherit;overflow=hidden;fillColor=none;top=0;left=0;bottom=0;right=0;pointerEvents=1;align=left;" parent="-Ta0aCsaJWy1d612Isen-98" vertex="1">
          <mxGeometry width="280" height="40" as="geometry">
            <mxRectangle width="280" height="40" as="alternateBounds" />
          </mxGeometry>
        </mxCell>
        <mxCell id="-Ta0aCsaJWy1d612Isen-100" value="A project the person worked on in the past" style="shape=partialRectangle;html=1;whiteSpace=wrap;connectable=0;strokeColor=inherit;overflow=hidden;fillColor=none;top=0;left=0;bottom=0;right=0;pointerEvents=1;align=left;" parent="-Ta0aCsaJWy1d612Isen-98" vertex="1">
          <mxGeometry x="280" width="520" height="40" as="geometry">
            <mxRectangle width="520" height="40" as="alternateBounds" />
          </mxGeometry>
        </mxCell>
        <mxCell id="jukJpMhsVFenK0YjBXIb-1" value="" style="rounded=0;whiteSpace=wrap;html=1;fillColor=#f5f5f5;fontSize=12;fontColor=#333333;strokeColor=#666666;" parent="1" vertex="1">
          <mxGeometry x="-780" y="2890" width="320" height="100" as="geometry" />
        </mxCell>
        <mxCell id="jukJpMhsVFenK0YjBXIb-2" value="&lt;font&gt;&lt;b&gt;Point of Sale&lt;/b&gt;&lt;/font&gt;" style="rounded=1;whiteSpace=wrap;html=1;fontSize=12;fillColor=#dae8fc;strokeColor=#6c8ebf;" parent="1" vertex="1">
          <mxGeometry x="-760" y="2930" width="120" height="40" as="geometry" />
        </mxCell>
        <mxCell id="jukJpMhsVFenK0YjBXIb-3" value="&lt;font&gt;E-Commerce&lt;/font&gt;" style="rounded=1;whiteSpace=wrap;html=1;fontSize=12;fillColor=#ffe6cc;strokeColor=#d79b00;fontStyle=1" parent="1" vertex="1">
          <mxGeometry x="-600" y="2930" width="120" height="40" as="geometry" />
        </mxCell>
        <mxCell id="jukJpMhsVFenK0YjBXIb-4" value="&lt;font&gt;Sales&lt;/font&gt;" style="text;html=1;align=center;verticalAlign=middle;whiteSpace=wrap;rounded=0;fontSize=12;fontStyle=1" parent="1" vertex="1">
          <mxGeometry x="-650" y="2900" width="60" height="30" as="geometry" />
        </mxCell>
        <mxCell id="jukJpMhsVFenK0YjBXIb-13" value="" style="rounded=0;whiteSpace=wrap;html=1;fillColor=#f5f5f5;fontSize=12;fontColor=#333333;strokeColor=#666666;" parent="1" vertex="1">
          <mxGeometry x="-425" y="2890" width="325" height="100" as="geometry" />
        </mxCell>
        <mxCell id="jukJpMhsVFenK0YjBXIb-14" value="&lt;font&gt;Customer Accounts&lt;/font&gt;" style="rounded=1;whiteSpace=wrap;html=1;fontSize=12;fillColor=#ffe6cc;strokeColor=#d79b00;fontStyle=1" parent="1" vertex="1">
          <mxGeometry x="-405" y="2930" width="120" height="40" as="geometry" />
        </mxCell>
        <mxCell id="jukJpMhsVFenK0YjBXIb-15" value="&lt;font&gt;Customer Insights&lt;/font&gt;" style="rounded=1;whiteSpace=wrap;html=1;fontSize=12;fillColor=#ffe6cc;strokeColor=#d79b00;fontStyle=1" parent="1" vertex="1">
          <mxGeometry x="-245" y="2930" width="120" height="40" as="geometry" />
        </mxCell>
        <mxCell id="jukJpMhsVFenK0YjBXIb-16" value="&lt;font&gt;Customers&lt;/font&gt;" style="text;html=1;align=center;verticalAlign=middle;whiteSpace=wrap;rounded=0;fontSize=12;fontStyle=1" parent="1" vertex="1">
          <mxGeometry x="-295" y="2900" width="60" height="30" as="geometry" />
        </mxCell>
        <mxCell id="jukJpMhsVFenK0YjBXIb-17" value="" style="rounded=0;whiteSpace=wrap;html=1;fillColor=#f5f5f5;fontSize=12;fontColor=#333333;strokeColor=#666666;" parent="1" vertex="1">
          <mxGeometry x="-780" y="3010" width="680" height="100" as="geometry" />
        </mxCell>
        <mxCell id="jukJpMhsVFenK0YjBXIb-18" value="&lt;font&gt;Supply Chain&amp;nbsp;&lt;/font&gt;&lt;div&gt;&lt;font&gt;Service&lt;/font&gt;&lt;/div&gt;" style="rounded=1;whiteSpace=wrap;html=1;fontSize=12;fillColor=#dae8fc;strokeColor=#6c8ebf;fontStyle=1" parent="1" vertex="1">
          <mxGeometry x="-760" y="3048" width="120" height="40" as="geometry" />
        </mxCell>
        <mxCell id="jukJpMhsVFenK0YjBXIb-19" value="Procurement" style="rounded=1;whiteSpace=wrap;html=1;fontSize=12;fillColor=#dae8fc;strokeColor=#6c8ebf;fontStyle=1" parent="1" vertex="1">
          <mxGeometry x="-630" y="3048" width="120" height="40" as="geometry" />
        </mxCell>
        <mxCell id="jukJpMhsVFenK0YjBXIb-20" value="Order Management" style="rounded=1;whiteSpace=wrap;html=1;fontSize=12;fillColor=#d5e8d4;strokeColor=#82b366;fontStyle=1" parent="1" vertex="1">
          <mxGeometry x="-500" y="3048" width="120" height="40" as="geometry" />
        </mxCell>
        <mxCell id="jukJpMhsVFenK0YjBXIb-21" value="Product Management" style="rounded=1;whiteSpace=wrap;html=1;fontSize=12;fillColor=#d5e8d4;strokeColor=#82b366;fontStyle=1" parent="1" vertex="1">
          <mxGeometry x="-370" y="3048" width="120" height="40" as="geometry" />
        </mxCell>
        <mxCell id="jukJpMhsVFenK0YjBXIb-22" value="Delivery Service" style="rounded=1;whiteSpace=wrap;html=1;fontSize=12;fillColor=#ffe6cc;strokeColor=#d79b00;fontStyle=1" parent="1" vertex="1">
          <mxGeometry x="-240" y="3048" width="120" height="40" as="geometry" />
        </mxCell>
        <mxCell id="jukJpMhsVFenK0YjBXIb-23" value="&lt;font&gt;Warehouse&lt;/font&gt;" style="text;html=1;align=center;verticalAlign=middle;whiteSpace=wrap;rounded=0;fontSize=12;fontStyle=1" parent="1" vertex="1">
          <mxGeometry x="-520" y="3018" width="160" height="30" as="geometry" />
        </mxCell>
        <mxCell id="jukJpMhsVFenK0YjBXIb-25" value="" style="rounded=0;whiteSpace=wrap;html=1;fillColor=#f5f5f5;fontSize=12;fontColor=#333333;strokeColor=#666666;" parent="1" vertex="1">
          <mxGeometry x="-780" y="3130" width="680" height="100" as="geometry" />
        </mxCell>
        <mxCell id="jukJpMhsVFenK0YjBXIb-26" value="Invoicing" style="rounded=1;whiteSpace=wrap;html=1;fontSize=12;fillColor=#d5e8d4;strokeColor=#82b366;fontStyle=1" parent="1" vertex="1">
          <mxGeometry x="-760" y="3167" width="140" height="40" as="geometry" />
        </mxCell>
        <mxCell id="jukJpMhsVFenK0YjBXIb-27" value="Payments" style="rounded=1;whiteSpace=wrap;html=1;fontSize=12;fillColor=#dae8fc;strokeColor=#6c8ebf;fontStyle=1" parent="1" vertex="1">
          <mxGeometry x="-590" y="3167" width="140" height="40" as="geometry" />
        </mxCell>
        <mxCell id="jukJpMhsVFenK0YjBXIb-28" value="Billing" style="rounded=1;whiteSpace=wrap;html=1;fontSize=12;fillColor=#dae8fc;strokeColor=#6c8ebf;fontStyle=1" parent="1" vertex="1">
          <mxGeometry x="-425" y="3167" width="140" height="40" as="geometry" />
        </mxCell>
        <mxCell id="jukJpMhsVFenK0YjBXIb-29" value="Salaries" style="rounded=1;whiteSpace=wrap;html=1;fontSize=12;fillColor=#dae8fc;strokeColor=#6c8ebf;fontStyle=1" parent="1" vertex="1">
          <mxGeometry x="-260" y="3167" width="140" height="40" as="geometry" />
        </mxCell>
        <mxCell id="jukJpMhsVFenK0YjBXIb-30" value="&lt;font&gt;Financial Services&lt;/font&gt;" style="text;html=1;align=center;verticalAlign=middle;whiteSpace=wrap;rounded=0;fontSize=12;fontStyle=1" parent="1" vertex="1">
          <mxGeometry x="-520" y="3130" width="160" height="30" as="geometry" />
        </mxCell>
        <mxCell id="jukJpMhsVFenK0YjBXIb-31" value="" style="rounded=0;whiteSpace=wrap;html=1;fillColor=#f5f5f5;fontSize=12;fontColor=#333333;strokeColor=#666666;" parent="1" vertex="1">
          <mxGeometry x="-80" y="2890" width="160" height="340" as="geometry" />
        </mxCell>
        <mxCell id="jukJpMhsVFenK0YjBXIb-32" value="&lt;font&gt;Operations&lt;/font&gt;" style="text;html=1;align=center;verticalAlign=middle;whiteSpace=wrap;rounded=0;fontSize=12;fontStyle=1" parent="1" vertex="1">
          <mxGeometry x="-40" y="2890" width="80" height="30" as="geometry" />
        </mxCell>
        <mxCell id="jukJpMhsVFenK0YjBXIb-33" value="&lt;font&gt;&lt;b&gt;Shop Maintenance&lt;/b&gt;&lt;/font&gt;" style="rounded=1;whiteSpace=wrap;html=1;fontSize=12;fillColor=#dae8fc;strokeColor=#6c8ebf;" parent="1" vertex="1">
          <mxGeometry x="-60" y="2930" width="120" height="40" as="geometry" />
        </mxCell>
        <mxCell id="jukJpMhsVFenK0YjBXIb-34" value="&lt;b&gt;Human Resources&lt;/b&gt;" style="rounded=1;whiteSpace=wrap;html=1;fontSize=12;fillColor=#dae8fc;strokeColor=#6c8ebf;" parent="1" vertex="1">
          <mxGeometry x="-60" y="2990" width="120" height="40" as="geometry" />
        </mxCell>
        <mxCell id="jukJpMhsVFenK0YjBXIb-35" value="&lt;font&gt;&lt;b&gt;Security&lt;/b&gt;&lt;/font&gt;" style="rounded=1;whiteSpace=wrap;html=1;fontSize=12;fillColor=#dae8fc;strokeColor=#6c8ebf;" parent="1" vertex="1">
          <mxGeometry x="-60" y="3048" width="120" height="40" as="geometry" />
        </mxCell>
        <mxCell id="jukJpMhsVFenK0YjBXIb-36" value="&lt;font&gt;&lt;b&gt;Communications&lt;/b&gt;&lt;/font&gt;" style="rounded=1;whiteSpace=wrap;html=1;fontSize=12;fillColor=#dae8fc;strokeColor=#6c8ebf;" parent="1" vertex="1">
          <mxGeometry x="-60" y="3100" width="120" height="40" as="geometry" />
        </mxCell>
        <mxCell id="jukJpMhsVFenK0YjBXIb-37" value="&lt;font&gt;&lt;b&gt;IT Support&lt;/b&gt;&lt;/font&gt;" style="rounded=1;whiteSpace=wrap;html=1;fontSize=12;fillColor=#dae8fc;strokeColor=#6c8ebf;" parent="1" vertex="1">
          <mxGeometry x="-60" y="3160" width="120" height="40" as="geometry" />
        </mxCell>
        <mxCell id="jukJpMhsVFenK0YjBXIb-39" value="&lt;font&gt;New&lt;/font&gt;" style="rounded=1;whiteSpace=wrap;html=1;fontSize=12;fillColor=#ffe6cc;strokeColor=#d79b00;fontStyle=1" parent="1" vertex="1">
          <mxGeometry x="-780" y="3240" width="80" height="40" as="geometry" />
        </mxCell>
        <mxCell id="jukJpMhsVFenK0YjBXIb-40" value="&lt;font&gt;Existing&lt;/font&gt;" style="rounded=1;whiteSpace=wrap;html=1;fontSize=12;fillColor=#dae8fc;strokeColor=#6c8ebf;fontStyle=1" parent="1" vertex="1">
          <mxGeometry x="-680" y="3240" width="80" height="40" as="geometry" />
        </mxCell>
        <mxCell id="jukJpMhsVFenK0YjBXIb-41" value="&lt;font&gt;Change&lt;/font&gt;" style="rounded=1;whiteSpace=wrap;html=1;fontSize=12;fillColor=#d5e8d4;strokeColor=#82b366;fontStyle=1" parent="1" vertex="1">
          <mxGeometry x="-580" y="3240" width="80" height="40" as="geometry" />
        </mxCell>
        <mxCell id="jukJpMhsVFenK0YjBXIb-42" value="&lt;font style=&quot;font-size: 14px;&quot;&gt;The Funny Hat Online Web Site&lt;/font&gt;" style="ellipse;whiteSpace=wrap;html=1;aspect=fixed;fillColor=#f8cecc;strokeColor=#b85450;" parent="1" vertex="1">
          <mxGeometry x="-440" y="3760" width="160" height="160" as="geometry" />
        </mxCell>
        <mxCell id="jukJpMhsVFenK0YjBXIb-43" value="Customer" style="shape=umlActor;verticalLabelPosition=bottom;verticalAlign=top;html=1;outlineConnect=0;" parent="1" vertex="1">
          <mxGeometry x="-680" y="3640" width="35" height="60" as="geometry" />
        </mxCell>
        <mxCell id="jukJpMhsVFenK0YjBXIb-46" value="&lt;font style=&quot;font-size: 14px;&quot;&gt;Payment&amp;nbsp;&lt;/font&gt;&lt;div&gt;&lt;span style=&quot;font-size: 14px; background-color: transparent; color: light-dark(rgb(0, 0, 0), rgb(255, 255, 255));&quot;&gt;Gateway&lt;/span&gt;&lt;/div&gt;" style="rounded=0;whiteSpace=wrap;html=1;fillColor=#d5e8d4;strokeColor=#82b366;" parent="1" vertex="1">
          <mxGeometry x="-840" y="3780" width="120" height="80" as="geometry" />
        </mxCell>
        <mxCell id="jukJpMhsVFenK0YjBXIb-47" value="&lt;font style=&quot;font-size: 14px;&quot;&gt;Stock Management System&lt;/font&gt;" style="rounded=0;whiteSpace=wrap;html=1;fillColor=#fff2cc;strokeColor=#d6b656;" parent="1" vertex="1">
          <mxGeometry x="-160" y="3680" width="160" height="80" as="geometry" />
        </mxCell>
        <mxCell id="jukJpMhsVFenK0YjBXIb-48" value="&lt;font style=&quot;font-size: 14px;&quot;&gt;Google or Facebook&lt;/font&gt;" style="rounded=0;whiteSpace=wrap;html=1;fillColor=#d5e8d4;strokeColor=#82b366;" parent="1" vertex="1">
          <mxGeometry x="-800" y="4000" width="120" height="80" as="geometry" />
        </mxCell>
        <mxCell id="jukJpMhsVFenK0YjBXIb-49" value="&lt;font style=&quot;font-size: 14px;&quot;&gt;Invoicing System&lt;/font&gt;" style="rounded=0;whiteSpace=wrap;html=1;fillColor=#fff2cc;strokeColor=#d6b656;" parent="1" vertex="1">
          <mxGeometry x="-600" y="4000" width="120" height="80" as="geometry" />
        </mxCell>
        <mxCell id="jukJpMhsVFenK0YjBXIb-50" value="&lt;font style=&quot;font-size: 14px;&quot;&gt;Vendor Delivery API&lt;/font&gt;" style="rounded=0;whiteSpace=wrap;html=1;fillColor=#d5e8d4;strokeColor=#82b366;" parent="1" vertex="1">
          <mxGeometry x="-240" y="4000" width="160" height="80" as="geometry" />
        </mxCell>
        <mxCell id="jukJpMhsVFenK0YjBXIb-51" value="" style="endArrow=classic;html=1;rounded=0;entryX=0.19;entryY=0.107;entryDx=0;entryDy=0;entryPerimeter=0;" parent="1" target="jukJpMhsVFenK0YjBXIb-42" edge="1">
          <mxGeometry width="50" height="50" relative="1" as="geometry">
            <mxPoint x="-640" y="3680" as="sourcePoint" />
            <mxPoint x="-590" y="3650" as="targetPoint" />
            <Array as="points">
              <mxPoint x="-410" y="3680" />
            </Array>
          </mxGeometry>
        </mxCell>
        <mxCell id="jukJpMhsVFenK0YjBXIb-52" value="" style="endArrow=classic;html=1;rounded=0;exitX=0;exitY=0;exitDx=0;exitDy=0;" parent="1" source="jukJpMhsVFenK0YjBXIb-42" edge="1">
          <mxGeometry width="50" height="50" relative="1" as="geometry">
            <mxPoint x="-715" y="3800" as="sourcePoint" />
            <mxPoint x="-660" y="3730" as="targetPoint" />
            <Array as="points">
              <mxPoint x="-660" y="3783" />
            </Array>
          </mxGeometry>
        </mxCell>
        <mxCell id="jukJpMhsVFenK0YjBXIb-53" value="&lt;font style=&quot;font-size: 12px;&quot;&gt;Redirect&lt;/font&gt;" style="endArrow=open;endSize=12;dashed=1;html=1;rounded=0;exitX=0.05;exitY=0.302;exitDx=0;exitDy=0;exitPerimeter=0;entryX=1;entryY=0.5;entryDx=0;entryDy=0;" parent="1" target="jukJpMhsVFenK0YjBXIb-46" edge="1">
          <mxGeometry width="160" relative="1" as="geometry">
            <mxPoint x="-440" y="3820" as="sourcePoint" />
            <mxPoint x="-680" y="3822" as="targetPoint" />
            <mxPoint as="offset" />
          </mxGeometry>
        </mxCell>
        <mxCell id="jukJpMhsVFenK0YjBXIb-54" value="Purchasing Hats" style="text;html=1;align=center;verticalAlign=middle;whiteSpace=wrap;rounded=0;" parent="1" vertex="1">
          <mxGeometry x="-600" y="3650" width="100" height="30" as="geometry" />
        </mxCell>
        <mxCell id="jukJpMhsVFenK0YjBXIb-55" value="Email Order/Invoice" style="text;html=1;align=center;verticalAlign=middle;whiteSpace=wrap;rounded=0;" parent="1" vertex="1">
          <mxGeometry x="-600" y="3750" width="120" height="30" as="geometry" />
        </mxCell>
        <mxCell id="jukJpMhsVFenK0YjBXIb-56" value="" style="endArrow=classic;html=1;rounded=0;" parent="1" edge="1">
          <mxGeometry width="50" height="50" relative="1" as="geometry">
            <mxPoint x="-320" y="3770" as="sourcePoint" />
            <mxPoint x="-160" y="3720" as="targetPoint" />
            <Array as="points">
              <mxPoint x="-320" y="3720" />
            </Array>
          </mxGeometry>
        </mxCell>
        <mxCell id="jukJpMhsVFenK0YjBXIb-57" value="" style="endArrow=classic;html=1;rounded=0;entryX=0.5;entryY=1;entryDx=0;entryDy=0;" parent="1" target="jukJpMhsVFenK0YjBXIb-47" edge="1">
          <mxGeometry width="50" height="50" relative="1" as="geometry">
            <mxPoint x="-290" y="3800" as="sourcePoint" />
            <mxPoint x="-240" y="3750" as="targetPoint" />
            <Array as="points">
              <mxPoint x="-80" y="3800" />
            </Array>
          </mxGeometry>
        </mxCell>
        <mxCell id="jukJpMhsVFenK0YjBXIb-58" value="Get/Update Stock Levels" style="text;html=1;align=center;verticalAlign=middle;whiteSpace=wrap;rounded=0;" parent="1" vertex="1">
          <mxGeometry x="-320" y="3690" width="160" height="30" as="geometry" />
        </mxCell>
        <mxCell id="jukJpMhsVFenK0YjBXIb-59" value="Get Stock Item Details" style="text;html=1;align=center;verticalAlign=middle;whiteSpace=wrap;rounded=0;" parent="1" vertex="1">
          <mxGeometry x="-280" y="3770" width="160" height="30" as="geometry" />
        </mxCell>
        <mxCell id="jukJpMhsVFenK0YjBXIb-60" value="" style="endArrow=classic;html=1;rounded=0;entryX=0.5;entryY=0;entryDx=0;entryDy=0;" parent="1" target="jukJpMhsVFenK0YjBXIb-48" edge="1">
          <mxGeometry width="50" height="50" relative="1" as="geometry">
            <mxPoint x="-430" y="3880" as="sourcePoint" />
            <mxPoint x="-380" y="3830" as="targetPoint" />
            <Array as="points">
              <mxPoint x="-480" y="3880" />
              <mxPoint x="-640" y="3880" />
              <mxPoint x="-720" y="3880" />
              <mxPoint x="-740" y="3880" />
              <mxPoint x="-740" y="3920" />
            </Array>
          </mxGeometry>
        </mxCell>
        <mxCell id="jukJpMhsVFenK0YjBXIb-61" value="" style="endArrow=classic;html=1;rounded=0;entryX=0.5;entryY=0;entryDx=0;entryDy=0;exitX=0.5;exitY=1;exitDx=0;exitDy=0;" parent="1" source="jukJpMhsVFenK0YjBXIb-42" target="jukJpMhsVFenK0YjBXIb-49" edge="1">
          <mxGeometry width="50" height="50" relative="1" as="geometry">
            <mxPoint x="-410" y="3900" as="sourcePoint" />
            <mxPoint x="-370" y="3850" as="targetPoint" />
            <Array as="points">
              <mxPoint x="-480" y="3920" />
              <mxPoint x="-540" y="3920" />
            </Array>
          </mxGeometry>
        </mxCell>
        <mxCell id="jukJpMhsVFenK0YjBXIb-63" value="" style="endArrow=classic;html=1;rounded=0;entryX=0.5;entryY=0;entryDx=0;entryDy=0;exitX=0.5;exitY=1;exitDx=0;exitDy=0;" parent="1" source="jukJpMhsVFenK0YjBXIb-42" target="jukJpMhsVFenK0YjBXIb-50" edge="1">
          <mxGeometry width="50" height="50" relative="1" as="geometry">
            <mxPoint x="-345" y="3920" as="sourcePoint" />
            <mxPoint x="-295" y="3870" as="targetPoint" />
            <Array as="points">
              <mxPoint x="-160" y="3920" />
            </Array>
          </mxGeometry>
        </mxCell>
        <mxCell id="jukJpMhsVFenK0YjBXIb-64" value="" style="endArrow=classic;html=1;rounded=0;exitX=0.75;exitY=1;exitDx=0;exitDy=0;entryX=1;entryY=0.5;entryDx=0;entryDy=0;" parent="1" source="jukJpMhsVFenK0YjBXIb-47" target="jukJpMhsVFenK0YjBXIb-50" edge="1">
          <mxGeometry width="50" height="50" relative="1" as="geometry">
            <mxPoint x="-50" y="3810" as="sourcePoint" />
            <mxPoint x="190" y="3810" as="targetPoint" />
            <Array as="points">
              <mxPoint x="-40" y="4040" />
            </Array>
          </mxGeometry>
        </mxCell>
        <mxCell id="jukJpMhsVFenK0YjBXIb-66" value="Authenticate" style="text;html=1;align=center;verticalAlign=middle;whiteSpace=wrap;rounded=0;rotation=0;" parent="1" vertex="1">
          <mxGeometry x="-740" y="3880" width="120" height="30" as="geometry" />
        </mxCell>
        <mxCell id="jukJpMhsVFenK0YjBXIb-67" value="Generate Invoice" style="text;html=1;align=center;verticalAlign=middle;whiteSpace=wrap;rounded=0;rotation=0;" parent="1" vertex="1">
          <mxGeometry x="-540" y="3920" width="120" height="30" as="geometry" />
        </mxCell>
        <mxCell id="jukJpMhsVFenK0YjBXIb-68" value="Get Delivery Status" style="text;html=1;align=center;verticalAlign=middle;whiteSpace=wrap;rounded=0;rotation=0;" parent="1" vertex="1">
          <mxGeometry x="-285" y="3920" width="120" height="30" as="geometry" />
        </mxCell>
        <mxCell id="jukJpMhsVFenK0YjBXIb-69" value="Send Delivery Request" style="text;html=1;align=center;verticalAlign=middle;whiteSpace=wrap;rounded=0;rotation=90;" parent="1" vertex="1">
          <mxGeometry x="-80" y="3880" width="120" height="30" as="geometry" />
        </mxCell>
        <object placeholders="1" c4Name="Customer" c4Type="Person" c4Description="A customer of The Funny Hat Shop" label="&lt;font style=&quot;font-size: 16px&quot;&gt;&lt;b&gt;%c4Name%&lt;/b&gt;&lt;/font&gt;&lt;div&gt;[%c4Type%]&lt;/div&gt;&lt;br&gt;&lt;div&gt;&lt;font style=&quot;font-size: 11px&quot;&gt;&lt;font color=&quot;#cccccc&quot;&gt;%c4Description%&lt;/font&gt;&lt;/div&gt;" id="qC6EbbmMjtv_qYYHKlpB-1">
          <mxCell style="html=1;fontSize=11;dashed=0;whiteSpace=wrap;fillColor=#083F75;strokeColor=#06315C;fontColor=#ffffff;shape=mxgraph.c4.person2;align=center;metaEdit=1;points=[[0.5,0,0],[1,0.5,0],[1,0.75,0],[0.75,1,0],[0.5,1,0],[0.25,1,0],[0,0.75,0],[0,0.5,0]];resizable=0;" vertex="1" parent="1">
            <mxGeometry x="-740" y="4200" width="200" height="180" as="geometry" />
          </mxCell>
        </object>
        <object placeholders="1" c4Name="The Funny Hat Web Site" c4Type="Web application" c4Description="Be able to view items, add baskets, and allow payments for items." label="&lt;font style=&quot;font-size: 16px&quot;&gt;&lt;b&gt;%c4Name%&lt;/b&gt;&lt;/font&gt;&lt;div&gt;[%c4Type%]&lt;/div&gt;&lt;br&gt;&lt;div&gt;&lt;font style=&quot;font-size: 11px&quot;&gt;&lt;font color=&quot;#cccccc&quot;&gt;%c4Description%&lt;/font&gt;&lt;/div&gt;" id="qC6EbbmMjtv_qYYHKlpB-2">
          <mxCell style="rounded=1;whiteSpace=wrap;html=1;labelBackgroundColor=none;fillColor=#1061B0;fontColor=#ffffff;align=center;arcSize=10;strokeColor=#0D5091;metaEdit=1;resizable=0;points=[[0.25,0,0],[0.5,0,0],[0.75,0,0],[1,0.25,0],[1,0.5,0],[1,0.75,0],[0.75,1,0],[0.5,1,0],[0.25,1,0],[0,0.75,0],[0,0.5,0],[0,0.25,0]];" vertex="1" parent="1">
            <mxGeometry x="-760" y="4420" width="240" height="120" as="geometry" />
          </mxCell>
        </object>
        <object placeholders="1" c4Type="Relationship" id="qC6EbbmMjtv_qYYHKlpB-3">
          <mxCell style="endArrow=blockThin;html=1;fontSize=10;fontColor=#404040;strokeWidth=1;endFill=1;strokeColor=#828282;elbow=vertical;metaEdit=1;endSize=14;startSize=14;jumpStyle=arc;jumpSize=16;rounded=0;edgeStyle=orthogonalEdgeStyle;dashed=1;" edge="1" parent="1">
            <mxGeometry width="240" relative="1" as="geometry">
              <mxPoint x="-639" y="4380" as="sourcePoint" />
              <mxPoint x="-639" y="4421" as="targetPoint" />
            </mxGeometry>
          </mxCell>
        </object>
        <mxCell id="qC6EbbmMjtv_qYYHKlpB-4" value="Buy Items" style="text;html=1;align=center;verticalAlign=middle;whiteSpace=wrap;rounded=0;" vertex="1" parent="1">
          <mxGeometry x="-630" y="4385" width="100" height="30" as="geometry" />
        </mxCell>
        <object placeholders="1" c4Name="API Layer" c4Type="Container" c4Technology="TBD" c4Description="Each integration will use a set of API&#39;s" label="&lt;font style=&quot;font-size: 16px&quot;&gt;&lt;b&gt;%c4Name%&lt;/b&gt;&lt;/font&gt;&lt;div&gt;[%c4Type%: %c4Technology%]&lt;/div&gt;&lt;br&gt;&lt;div&gt;&lt;font style=&quot;font-size: 11px&quot;&gt;&lt;font color=&quot;#E6E6E6&quot;&gt;%c4Description%&lt;/font&gt;&lt;/div&gt;" id="qC6EbbmMjtv_qYYHKlpB-5">
          <mxCell style="rounded=1;whiteSpace=wrap;html=1;fontSize=11;labelBackgroundColor=none;fillColor=#23A2D9;fontColor=#ffffff;align=center;arcSize=10;strokeColor=#0E7DAD;metaEdit=1;resizable=0;points=[[0.25,0,0],[0.5,0,0],[0.75,0,0],[1,0.25,0],[1,0.5,0],[1,0.75,0],[0.75,1,0],[0.5,1,0],[0.25,1,0],[0,0.75,0],[0,0.5,0],[0,0.25,0]];" vertex="1" parent="1">
            <mxGeometry x="-760" y="4580" width="240" height="120" as="geometry" />
          </mxCell>
        </object>
        <object placeholders="1" c4Type="Relationship" id="qC6EbbmMjtv_qYYHKlpB-6">
          <mxCell style="endArrow=blockThin;html=1;fontSize=10;fontColor=#404040;strokeWidth=1;endFill=1;strokeColor=#828282;elbow=vertical;metaEdit=1;endSize=14;startSize=14;jumpStyle=arc;jumpSize=16;rounded=0;edgeStyle=orthogonalEdgeStyle;dashed=1;" edge="1" parent="1">
            <mxGeometry width="240" relative="1" as="geometry">
              <mxPoint x="-639" y="4540" as="sourcePoint" />
              <mxPoint x="-639" y="4581" as="targetPoint" />
            </mxGeometry>
          </mxCell>
        </object>
        <object placeholders="1" c4Name="Payment Gateway" c4Type="External API" c4Description="External API for payments on PayPal or Credit Card." label="&lt;font style=&quot;font-size: 16px&quot;&gt;&lt;b&gt;%c4Name%&lt;/b&gt;&lt;/font&gt;&lt;div&gt;[%c4Type%]&lt;/div&gt;&lt;br&gt;&lt;div&gt;&lt;font style=&quot;font-size: 11px&quot;&gt;&lt;font color=&quot;#cccccc&quot;&gt;%c4Description%&lt;/font&gt;&lt;/div&gt;" id="qC6EbbmMjtv_qYYHKlpB-7">
          <mxCell style="rounded=1;whiteSpace=wrap;html=1;labelBackgroundColor=none;fillColor=#8C8496;fontColor=#ffffff;align=center;arcSize=10;strokeColor=#736782;metaEdit=1;resizable=0;points=[[0.25,0,0],[0.5,0,0],[0.75,0,0],[1,0.25,0],[1,0.5,0],[1,0.75,0],[0.75,1,0],[0.5,1,0],[0.25,1,0],[0,0.75,0],[0,0.5,0],[0,0.25,0]];" vertex="1" parent="1">
            <mxGeometry x="-280" y="4415" width="240" height="120" as="geometry" />
          </mxCell>
        </object>
        <object placeholders="1" c4Name="Delivery Vendor API" c4Type="External API" c4Description="External API for delivery requests and status updates." label="&lt;font style=&quot;font-size: 16px&quot;&gt;&lt;b&gt;%c4Name%&lt;/b&gt;&lt;/font&gt;&lt;div&gt;[%c4Type%]&lt;/div&gt;&lt;br&gt;&lt;div&gt;&lt;font style=&quot;font-size: 11px&quot;&gt;&lt;font color=&quot;#cccccc&quot;&gt;%c4Description%&lt;/font&gt;&lt;/div&gt;" id="qC6EbbmMjtv_qYYHKlpB-8">
          <mxCell style="rounded=1;whiteSpace=wrap;html=1;labelBackgroundColor=none;fillColor=#8C8496;fontColor=#ffffff;align=center;arcSize=10;strokeColor=#736782;metaEdit=1;resizable=0;points=[[0.25,0,0],[0.5,0,0],[0.75,0,0],[1,0.25,0],[1,0.5,0],[1,0.75,0],[0.75,1,0],[0.5,1,0],[0.25,1,0],[0,0.75,0],[0,0.5,0],[0,0.25,0]];" vertex="1" parent="1">
            <mxGeometry x="-280" y="4580" width="240" height="120" as="geometry" />
          </mxCell>
        </object>
        <object placeholders="1" c4Type="Relationship" id="qC6EbbmMjtv_qYYHKlpB-9">
          <mxCell style="endArrow=blockThin;html=1;fontSize=10;fontColor=#404040;strokeWidth=1;endFill=1;strokeColor=#828282;elbow=vertical;metaEdit=1;endSize=14;startSize=14;jumpStyle=arc;jumpSize=16;rounded=0;edgeStyle=orthogonalEdgeStyle;dashed=1;" edge="1" parent="1">
            <mxGeometry width="240" relative="1" as="geometry">
              <mxPoint x="-520" y="4639.5" as="sourcePoint" />
              <mxPoint x="-280" y="4639.5" as="targetPoint" />
            </mxGeometry>
          </mxCell>
        </object>
        <mxCell id="qC6EbbmMjtv_qYYHKlpB-10" value="&lt;font style=&quot;font-size: 12px;&quot;&gt;Get Delivery Status&lt;/font&gt;&lt;div&gt;&lt;font style=&quot;font-size: 12px;&quot;&gt;Send pick up request&lt;/font&gt;&lt;/div&gt;" style="edgeLabel;html=1;align=center;verticalAlign=middle;resizable=0;points=[];" vertex="1" connectable="0" parent="qC6EbbmMjtv_qYYHKlpB-9">
          <mxGeometry x="0.205" y="1" relative="1" as="geometry">
            <mxPoint x="-35" y="2" as="offset" />
          </mxGeometry>
        </mxCell>
        <object placeholders="1" c4Type="Relationship" id="qC6EbbmMjtv_qYYHKlpB-11">
          <mxCell style="endArrow=blockThin;html=1;fontSize=10;fontColor=#404040;strokeWidth=1;endFill=1;strokeColor=#828282;elbow=vertical;metaEdit=1;endSize=14;startSize=14;jumpStyle=arc;jumpSize=16;rounded=0;edgeStyle=orthogonalEdgeStyle;dashed=1;" edge="1" parent="1">
            <mxGeometry width="240" relative="1" as="geometry">
              <mxPoint x="-520" y="4473.5" as="sourcePoint" />
              <mxPoint x="-280" y="4473.5" as="targetPoint" />
            </mxGeometry>
          </mxCell>
        </object>
        <mxCell id="qC6EbbmMjtv_qYYHKlpB-12" value="&lt;font style=&quot;font-size: 12px;&quot;&gt;Redirect To Payment Gateway&lt;/font&gt;" style="edgeLabel;html=1;align=center;verticalAlign=middle;resizable=0;points=[];" vertex="1" connectable="0" parent="qC6EbbmMjtv_qYYHKlpB-11">
          <mxGeometry x="-0.12" y="2" relative="1" as="geometry">
            <mxPoint y="-1" as="offset" />
          </mxGeometry>
        </mxCell>
        <object placeholders="1" c4Name="Email Service" c4Type="External Service" c4Description="New service need to send emails." label="&lt;font style=&quot;font-size: 16px&quot;&gt;&lt;b&gt;%c4Name%&lt;/b&gt;&lt;/font&gt;&lt;div&gt;[%c4Type%]&lt;/div&gt;&lt;br&gt;&lt;div&gt;&lt;font style=&quot;font-size: 11px&quot;&gt;&lt;font color=&quot;#cccccc&quot;&gt;%c4Description%&lt;/font&gt;&lt;/div&gt;" id="qC6EbbmMjtv_qYYHKlpB-13">
          <mxCell style="rounded=1;whiteSpace=wrap;html=1;labelBackgroundColor=none;fillColor=#8C8496;fontColor=#ffffff;align=center;arcSize=10;strokeColor=#736782;metaEdit=1;resizable=0;points=[[0.25,0,0],[0.5,0,0],[0.75,0,0],[1,0.25,0],[1,0.5,0],[1,0.75,0],[0.75,1,0],[0.5,1,0],[0.25,1,0],[0,0.75,0],[0,0.5,0],[0,0.25,0]];" vertex="1" parent="1">
            <mxGeometry x="-440" y="4780" width="240" height="120" as="geometry" />
          </mxCell>
        </object>
        <object placeholders="1" c4Name="Invoicing System" c4Type="In-house web application" c4Description="Managing Invoicing. Finance, billing, etc." label="&lt;font style=&quot;font-size: 16px&quot;&gt;&lt;b&gt;%c4Name%&lt;/b&gt;&lt;/font&gt;&lt;div&gt;[%c4Type%]&lt;/div&gt;&lt;br&gt;&lt;div&gt;&lt;font style=&quot;font-size: 11px&quot;&gt;&lt;font color=&quot;#cccccc&quot;&gt;%c4Description%&lt;/font&gt;&lt;/div&gt;" id="qC6EbbmMjtv_qYYHKlpB-14">
          <mxCell style="rounded=1;whiteSpace=wrap;html=1;labelBackgroundColor=none;fillColor=#1061B0;fontColor=#ffffff;align=center;arcSize=10;strokeColor=#0D5091;metaEdit=1;resizable=0;points=[[0.25,0,0],[0.5,0,0],[0.75,0,0],[1,0.25,0],[1,0.5,0],[1,0.75,0],[0.75,1,0],[0.5,1,0],[0.25,1,0],[0,0.75,0],[0,0.5,0],[0,0.25,0]];" vertex="1" parent="1">
            <mxGeometry x="-760" y="4780" width="240" height="120" as="geometry" />
          </mxCell>
        </object>
        <object placeholders="1" c4Name="Stock Management System" c4Type="In-house web application" c4Description="Managing Orders, Stock Levels and Products." label="&lt;font style=&quot;font-size: 16px&quot;&gt;&lt;b&gt;%c4Name%&lt;/b&gt;&lt;/font&gt;&lt;div&gt;[%c4Type%]&lt;/div&gt;&lt;br&gt;&lt;div&gt;&lt;font style=&quot;font-size: 11px&quot;&gt;&lt;font color=&quot;#cccccc&quot;&gt;%c4Description%&lt;/font&gt;&lt;/div&gt;" id="qC6EbbmMjtv_qYYHKlpB-15">
          <mxCell style="rounded=1;whiteSpace=wrap;html=1;labelBackgroundColor=none;fillColor=#1061B0;fontColor=#ffffff;align=center;arcSize=10;strokeColor=#0D5091;metaEdit=1;resizable=0;points=[[0.25,0,0],[0.5,0,0],[0.75,0,0],[1,0.25,0],[1,0.5,0],[1,0.75,0],[0.75,1,0],[0.5,1,0],[0.25,1,0],[0,0.75,0],[0,0.5,0],[0,0.25,0]];" vertex="1" parent="1">
            <mxGeometry x="-1080" y="4780" width="240" height="120" as="geometry" />
          </mxCell>
        </object>
        <object placeholders="1" c4Type="Relationship" id="qC6EbbmMjtv_qYYHKlpB-16">
          <mxCell style="endArrow=blockThin;html=1;fontSize=10;fontColor=#404040;strokeWidth=1;endFill=1;strokeColor=#828282;elbow=vertical;metaEdit=1;endSize=14;startSize=14;jumpStyle=arc;jumpSize=16;rounded=0;edgeStyle=orthogonalEdgeStyle;dashed=1;exitX=0.5;exitY=1;exitDx=0;exitDy=0;exitPerimeter=0;entryX=0.5;entryY=0;entryDx=0;entryDy=0;entryPerimeter=0;" edge="1" parent="1" source="qC6EbbmMjtv_qYYHKlpB-5" target="qC6EbbmMjtv_qYYHKlpB-14">
            <mxGeometry width="240" relative="1" as="geometry">
              <mxPoint x="-620" y="4711" as="sourcePoint" />
              <mxPoint x="-620" y="4752" as="targetPoint" />
            </mxGeometry>
          </mxCell>
        </object>
        <object placeholders="1" c4Type="Relationship" id="qC6EbbmMjtv_qYYHKlpB-17">
          <mxCell style="endArrow=blockThin;html=1;fontSize=10;fontColor=#404040;strokeWidth=1;endFill=1;strokeColor=#828282;elbow=vertical;metaEdit=1;endSize=14;startSize=14;jumpStyle=arc;jumpSize=16;rounded=0;edgeStyle=orthogonalEdgeStyle;dashed=1;entryX=0.5;entryY=0;entryDx=0;entryDy=0;entryPerimeter=0;" edge="1" parent="1" target="qC6EbbmMjtv_qYYHKlpB-15">
            <mxGeometry width="240" relative="1" as="geometry">
              <mxPoint x="-640" y="4720" as="sourcePoint" />
              <mxPoint x="-950" y="4790" as="targetPoint" />
            </mxGeometry>
          </mxCell>
        </object>
        <mxCell id="qC6EbbmMjtv_qYYHKlpB-18" value="&lt;font style=&quot;font-size: 12px;&quot;&gt;Get Stock Level / Process Order&lt;/font&gt;" style="edgeLabel;html=1;align=center;verticalAlign=middle;resizable=0;points=[];" vertex="1" connectable="0" parent="qC6EbbmMjtv_qYYHKlpB-17">
          <mxGeometry x="0.2261" y="-1" relative="1" as="geometry">
            <mxPoint as="offset" />
          </mxGeometry>
        </mxCell>
        <object placeholders="1" c4Type="Relationship" id="qC6EbbmMjtv_qYYHKlpB-19">
          <mxCell style="endArrow=blockThin;html=1;fontSize=10;fontColor=#404040;strokeWidth=1;endFill=1;strokeColor=#828282;elbow=vertical;metaEdit=1;endSize=14;startSize=14;jumpStyle=arc;jumpSize=16;rounded=0;edgeStyle=orthogonalEdgeStyle;dashed=1;entryX=0.5;entryY=0;entryDx=0;entryDy=0;entryPerimeter=0;" edge="1" parent="1" target="qC6EbbmMjtv_qYYHKlpB-13">
            <mxGeometry width="240" relative="1" as="geometry">
              <mxPoint x="-640" y="4740" as="sourcePoint" />
              <mxPoint x="-630" y="4810" as="targetPoint" />
              <Array as="points">
                <mxPoint x="-640" y="4720" />
                <mxPoint x="-320" y="4720" />
              </Array>
            </mxGeometry>
          </mxCell>
        </object>
        <mxCell id="qC6EbbmMjtv_qYYHKlpB-20" value="Send Delivery Status" style="edgeLabel;html=1;align=center;verticalAlign=middle;resizable=0;points=[];" vertex="1" connectable="0" parent="qC6EbbmMjtv_qYYHKlpB-19">
          <mxGeometry x="0.243" y="2" relative="1" as="geometry">
            <mxPoint as="offset" />
          </mxGeometry>
        </mxCell>
        <object placeholders="1" c4Type="Relationship" id="qC6EbbmMjtv_qYYHKlpB-21">
          <mxCell style="endArrow=blockThin;html=1;fontSize=10;fontColor=#404040;strokeWidth=1;endFill=1;strokeColor=#828282;elbow=vertical;metaEdit=1;endSize=14;startSize=14;jumpStyle=arc;jumpSize=16;rounded=0;edgeStyle=orthogonalEdgeStyle;dashed=1;exitX=0.5;exitY=1;exitDx=0;exitDy=0;exitPerimeter=0;entryX=0.5;entryY=1;entryDx=0;entryDy=0;entryPerimeter=0;" edge="1" parent="1" source="qC6EbbmMjtv_qYYHKlpB-15" target="qC6EbbmMjtv_qYYHKlpB-13">
            <mxGeometry width="240" relative="1" as="geometry">
              <mxPoint x="-665" y="4710" as="sourcePoint" />
              <mxPoint x="-665" y="4790" as="targetPoint" />
              <Array as="points">
                <mxPoint x="-960" y="4940" />
                <mxPoint x="-320" y="4940" />
              </Array>
            </mxGeometry>
          </mxCell>
        </object>
        <mxCell id="qC6EbbmMjtv_qYYHKlpB-22" value="Send Order Email" style="edgeLabel;html=1;align=center;verticalAlign=middle;resizable=0;points=[];fontSize=12;" vertex="1" connectable="0" parent="qC6EbbmMjtv_qYYHKlpB-21">
          <mxGeometry x="-0.165" y="2" relative="1" as="geometry">
            <mxPoint as="offset" />
          </mxGeometry>
        </mxCell>
        <object placeholders="1" c4Type="Relationship" id="qC6EbbmMjtv_qYYHKlpB-23">
          <mxCell style="endArrow=blockThin;html=1;fontSize=10;fontColor=#404040;strokeWidth=1;endFill=1;strokeColor=#828282;elbow=vertical;metaEdit=1;endSize=14;startSize=14;jumpStyle=arc;jumpSize=16;rounded=0;edgeStyle=orthogonalEdgeStyle;dashed=1;exitX=1;exitY=0.5;exitDx=0;exitDy=0;exitPerimeter=0;entryX=1.002;entryY=0.664;entryDx=0;entryDy=0;entryPerimeter=0;" edge="1" parent="1" source="qC6EbbmMjtv_qYYHKlpB-13" target="qC6EbbmMjtv_qYYHKlpB-1">
            <mxGeometry width="240" relative="1" as="geometry">
              <mxPoint x="250" y="4790" as="sourcePoint" />
              <mxPoint x="-170" y="4740" as="targetPoint" />
              <Array as="points">
                <mxPoint y="4840" />
                <mxPoint y="4320" />
              </Array>
            </mxGeometry>
          </mxCell>
        </object>
        <mxCell id="qC6EbbmMjtv_qYYHKlpB-24" value="&lt;font style=&quot;font-size: 12px;&quot;&gt;Send Emails&lt;/font&gt;" style="edgeLabel;html=1;align=center;verticalAlign=middle;resizable=0;points=[];" vertex="1" connectable="0" parent="qC6EbbmMjtv_qYYHKlpB-23">
          <mxGeometry x="-0.834" y="1" relative="1" as="geometry">
            <mxPoint as="offset" />
          </mxGeometry>
        </mxCell>
        <mxCell id="qC6EbbmMjtv_qYYHKlpB-25" value="Generate Invoice" style="text;html=1;align=center;verticalAlign=middle;whiteSpace=wrap;rounded=0;" vertex="1" parent="1">
          <mxGeometry x="-696" y="4724" width="100" height="30" as="geometry" />
        </mxCell>
        <object placeholders="1" c4Type="Relationship" id="qC6EbbmMjtv_qYYHKlpB-26">
          <mxCell style="endArrow=blockThin;html=1;fontSize=10;fontColor=#404040;strokeWidth=1;endFill=1;strokeColor=#828282;elbow=vertical;metaEdit=1;endSize=14;startSize=14;jumpStyle=arc;jumpSize=16;rounded=0;edgeStyle=orthogonalEdgeStyle;dashed=1;exitX=1;exitY=0.5;exitDx=0;exitDy=0;exitPerimeter=0;entryX=0;entryY=0.5;entryDx=0;entryDy=0;entryPerimeter=0;" edge="1" parent="1" source="qC6EbbmMjtv_qYYHKlpB-14" target="qC6EbbmMjtv_qYYHKlpB-13">
            <mxGeometry width="240" relative="1" as="geometry">
              <mxPoint x="-482" y="4770" as="sourcePoint" />
              <mxPoint x="-482" y="4850" as="targetPoint" />
            </mxGeometry>
          </mxCell>
        </object>
        <mxCell id="qC6EbbmMjtv_qYYHKlpB-27" value="Send&amp;nbsp;&lt;div&gt;Invoice&amp;nbsp;&lt;/div&gt;&lt;div&gt;Email&lt;/div&gt;" style="text;html=1;align=center;verticalAlign=middle;whiteSpace=wrap;rounded=0;" vertex="1" parent="1">
          <mxGeometry x="-520" y="4840" width="70" height="60" as="geometry" />
        </mxCell>
        <mxCell id="qC6EbbmMjtv_qYYHKlpB-28" value="Customer" style="shape=umlActor;verticalLabelPosition=bottom;verticalAlign=top;html=1;" vertex="1" parent="1">
          <mxGeometry x="-835" y="5276" width="40" height="80" as="geometry" />
        </mxCell>
        <mxCell id="qC6EbbmMjtv_qYYHKlpB-29" value="Create Account" style="ellipse;whiteSpace=wrap;html=1;" vertex="1" parent="1">
          <mxGeometry x="-675" y="5126" width="160" height="70" as="geometry" />
        </mxCell>
        <mxCell id="qC6EbbmMjtv_qYYHKlpB-30" value="User Login" style="ellipse;whiteSpace=wrap;html=1;" vertex="1" parent="1">
          <mxGeometry x="-435" y="5120" width="160" height="70" as="geometry" />
        </mxCell>
        <mxCell id="qC6EbbmMjtv_qYYHKlpB-31" value="Search and View&amp;nbsp;&lt;div&gt;Products&lt;/div&gt;" style="ellipse;whiteSpace=wrap;html=1;" vertex="1" parent="1">
          <mxGeometry x="-675" y="5216" width="160" height="70" as="geometry" />
        </mxCell>
        <mxCell id="qC6EbbmMjtv_qYYHKlpB-32" value="Add Items to Basket" style="ellipse;whiteSpace=wrap;html=1;" vertex="1" parent="1">
          <mxGeometry x="-675" y="5316" width="160" height="70" as="geometry" />
        </mxCell>
        <mxCell id="qC6EbbmMjtv_qYYHKlpB-33" value="Pay for basket" style="ellipse;whiteSpace=wrap;html=1;" vertex="1" parent="1">
          <mxGeometry x="-675" y="5406" width="160" height="70" as="geometry" />
        </mxCell>
        <mxCell id="qC6EbbmMjtv_qYYHKlpB-34" value="Add Items to Basket" style="ellipse;whiteSpace=wrap;html=1;" vertex="1" parent="1">
          <mxGeometry x="-1075" y="5286" width="160" height="70" as="geometry" />
        </mxCell>
        <mxCell id="qC6EbbmMjtv_qYYHKlpB-35" value="" style="endArrow=none;html=1;rounded=0;" edge="1" parent="1">
          <mxGeometry width="50" height="50" relative="1" as="geometry">
            <mxPoint x="-795" y="5316" as="sourcePoint" />
            <mxPoint x="-685" y="5176" as="targetPoint" />
          </mxGeometry>
        </mxCell>
        <mxCell id="qC6EbbmMjtv_qYYHKlpB-36" value="" style="endArrow=none;html=1;rounded=0;" edge="1" parent="1">
          <mxGeometry width="50" height="50" relative="1" as="geometry">
            <mxPoint x="-795" y="5326" as="sourcePoint" />
            <mxPoint x="-680" y="5266" as="targetPoint" />
          </mxGeometry>
        </mxCell>
        <mxCell id="qC6EbbmMjtv_qYYHKlpB-37" value="" style="endArrow=none;html=1;rounded=0;" edge="1" parent="1">
          <mxGeometry width="50" height="50" relative="1" as="geometry">
            <mxPoint x="-795" y="5336" as="sourcePoint" />
            <mxPoint x="-685" y="5346" as="targetPoint" />
          </mxGeometry>
        </mxCell>
        <mxCell id="qC6EbbmMjtv_qYYHKlpB-38" value="" style="endArrow=none;html=1;rounded=0;" edge="1" parent="1">
          <mxGeometry width="50" height="50" relative="1" as="geometry">
            <mxPoint x="-795" y="5346" as="sourcePoint" />
            <mxPoint x="-685" y="5436" as="targetPoint" />
          </mxGeometry>
        </mxCell>
        <mxCell id="qC6EbbmMjtv_qYYHKlpB-39" value="" style="endArrow=none;html=1;rounded=0;" edge="1" parent="1">
          <mxGeometry width="50" height="50" relative="1" as="geometry">
            <mxPoint x="-905" y="5326" as="sourcePoint" />
            <mxPoint x="-835" y="5326" as="targetPoint" />
          </mxGeometry>
        </mxCell>
        <mxCell id="qC6EbbmMjtv_qYYHKlpB-40" value="" style="endArrow=classic;html=1;rounded=0;entryX=0;entryY=0.5;entryDx=0;entryDy=0;dashed=1;" edge="1" parent="1" target="qC6EbbmMjtv_qYYHKlpB-30">
          <mxGeometry width="50" height="50" relative="1" as="geometry">
            <mxPoint x="-515" y="5156" as="sourcePoint" />
            <mxPoint x="-465" y="5106" as="targetPoint" />
          </mxGeometry>
        </mxCell>
        <mxCell id="qC6EbbmMjtv_qYYHKlpB-41" value="Extent" style="edgeLabel;html=1;align=center;verticalAlign=middle;resizable=0;points=[];" vertex="1" connectable="0" parent="qC6EbbmMjtv_qYYHKlpB-40">
          <mxGeometry x="-0.1996" y="1" relative="1" as="geometry">
            <mxPoint as="offset" />
          </mxGeometry>
        </mxCell>
        <mxCell id="qC6EbbmMjtv_qYYHKlpB-42" value="Invoice" style="html=1;whiteSpace=wrap;" vertex="1" parent="1">
          <mxGeometry x="-920" y="5560" width="120" height="40" as="geometry" />
        </mxCell>
        <mxCell id="qC6EbbmMjtv_qYYHKlpB-43" value="Customer" style="html=1;whiteSpace=wrap;" vertex="1" parent="1">
          <mxGeometry x="-920" y="5680" width="120" height="40" as="geometry" />
        </mxCell>
        <mxCell id="qC6EbbmMjtv_qYYHKlpB-44" value="User" style="html=1;whiteSpace=wrap;" vertex="1" parent="1">
          <mxGeometry x="-680" y="5680" width="120" height="40" as="geometry" />
        </mxCell>
        <mxCell id="qC6EbbmMjtv_qYYHKlpB-45" value="Order" style="html=1;whiteSpace=wrap;" vertex="1" parent="1">
          <mxGeometry x="-1080" y="5760" width="120" height="40" as="geometry" />
        </mxCell>
        <mxCell id="qC6EbbmMjtv_qYYHKlpB-46" value="Order Item" style="html=1;whiteSpace=wrap;" vertex="1" parent="1">
          <mxGeometry x="-1080" y="5840" width="120" height="40" as="geometry" />
        </mxCell>
        <mxCell id="qC6EbbmMjtv_qYYHKlpB-47" value="Product" style="html=1;whiteSpace=wrap;" vertex="1" parent="1">
          <mxGeometry x="-880" y="5840" width="120" height="40" as="geometry" />
        </mxCell>
        <mxCell id="qC6EbbmMjtv_qYYHKlpB-48" value="Item" style="html=1;whiteSpace=wrap;" vertex="1" parent="1">
          <mxGeometry x="-680" y="5840" width="120" height="40" as="geometry" />
        </mxCell>
        <mxCell id="qC6EbbmMjtv_qYYHKlpB-49" value="Basket" style="html=1;whiteSpace=wrap;" vertex="1" parent="1">
          <mxGeometry x="-680" y="5760" width="120" height="40" as="geometry" />
        </mxCell>
        <mxCell id="qC6EbbmMjtv_qYYHKlpB-50" value="" style="endArrow=none;html=1;rounded=0;entryX=0.5;entryY=1;entryDx=0;entryDy=0;" edge="1" parent="1" target="qC6EbbmMjtv_qYYHKlpB-42">
          <mxGeometry width="50" height="50" relative="1" as="geometry">
            <mxPoint x="-860" y="5680" as="sourcePoint" />
            <mxPoint x="-810" y="5630" as="targetPoint" />
          </mxGeometry>
        </mxCell>
        <mxCell id="qC6EbbmMjtv_qYYHKlpB-51" value="" style="endArrow=none;html=1;rounded=0;entryX=0;entryY=0.5;entryDx=0;entryDy=0;" edge="1" parent="1" target="qC6EbbmMjtv_qYYHKlpB-44">
          <mxGeometry width="50" height="50" relative="1" as="geometry">
            <mxPoint x="-800" y="5700" as="sourcePoint" />
            <mxPoint x="-800" y="5620" as="targetPoint" />
          </mxGeometry>
        </mxCell>
        <mxCell id="qC6EbbmMjtv_qYYHKlpB-52" value="" style="endArrow=none;html=1;rounded=0;entryX=0;entryY=0.5;entryDx=0;entryDy=0;exitX=0.5;exitY=0;exitDx=0;exitDy=0;" edge="1" parent="1" source="qC6EbbmMjtv_qYYHKlpB-45">
          <mxGeometry width="50" height="50" relative="1" as="geometry">
            <mxPoint x="-1040" y="5699.5" as="sourcePoint" />
            <mxPoint x="-920" y="5699.5" as="targetPoint" />
            <Array as="points">
              <mxPoint x="-1020" y="5700" />
            </Array>
          </mxGeometry>
        </mxCell>
        <mxCell id="qC6EbbmMjtv_qYYHKlpB-53" value="" style="endArrow=none;html=1;rounded=0;entryX=0;entryY=0.5;entryDx=0;entryDy=0;exitX=0.5;exitY=1;exitDx=0;exitDy=0;" edge="1" parent="1" source="qC6EbbmMjtv_qYYHKlpB-43">
          <mxGeometry width="50" height="50" relative="1" as="geometry">
            <mxPoint x="-800" y="5779.5" as="sourcePoint" />
            <mxPoint x="-680" y="5779.5" as="targetPoint" />
            <Array as="points">
              <mxPoint x="-860" y="5780" />
            </Array>
          </mxGeometry>
        </mxCell>
        <mxCell id="qC6EbbmMjtv_qYYHKlpB-54" value="" style="endArrow=none;html=1;rounded=0;" edge="1" parent="1">
          <mxGeometry width="50" height="50" relative="1" as="geometry">
            <mxPoint x="-760" y="5859.5" as="sourcePoint" />
            <mxPoint x="-680" y="5860" as="targetPoint" />
          </mxGeometry>
        </mxCell>
        <mxCell id="qC6EbbmMjtv_qYYHKlpB-55" value="" style="endArrow=none;html=1;rounded=0;" edge="1" parent="1">
          <mxGeometry width="50" height="50" relative="1" as="geometry">
            <mxPoint x="-960" y="5859.5" as="sourcePoint" />
            <mxPoint x="-880" y="5860" as="targetPoint" />
          </mxGeometry>
        </mxCell>
        <mxCell id="qC6EbbmMjtv_qYYHKlpB-56" value="" style="endArrow=none;html=1;rounded=0;entryX=0.5;entryY=1;entryDx=0;entryDy=0;" edge="1" parent="1" target="qC6EbbmMjtv_qYYHKlpB-49">
          <mxGeometry width="50" height="50" relative="1" as="geometry">
            <mxPoint x="-620" y="5840" as="sourcePoint" />
            <mxPoint x="-540" y="5840.5" as="targetPoint" />
          </mxGeometry>
        </mxCell>
        <mxCell id="qC6EbbmMjtv_qYYHKlpB-57" value="" style="endArrow=none;html=1;rounded=0;entryX=0.5;entryY=1;entryDx=0;entryDy=0;" edge="1" parent="1">
          <mxGeometry width="50" height="50" relative="1" as="geometry">
            <mxPoint x="-1020.5" y="5840" as="sourcePoint" />
            <mxPoint x="-1020.5" y="5800" as="targetPoint" />
          </mxGeometry>
        </mxCell>
        <mxCell id="qC6EbbmMjtv_qYYHKlpB-58" value="" style="shape=umlLifeline;perimeter=lifelinePerimeter;whiteSpace=wrap;html=1;container=1;dropTarget=0;collapsible=0;recursiveResize=0;outlineConnect=0;portConstraint=eastwest;newEdgeStyle={&quot;curved&quot;:0,&quot;rounded&quot;:0};participant=umlActor;" vertex="1" parent="1">
          <mxGeometry x="-1640" y="6070" width="20" height="640" as="geometry" />
        </mxCell>
        <mxCell id="qC6EbbmMjtv_qYYHKlpB-59" value="Single-page web application" style="shape=umlLifeline;perimeter=lifelinePerimeter;whiteSpace=wrap;html=1;container=1;dropTarget=0;collapsible=0;recursiveResize=0;outlineConnect=0;portConstraint=eastwest;newEdgeStyle={&quot;curved&quot;:0,&quot;rounded&quot;:0};" vertex="1" parent="1">
          <mxGeometry x="-1560" y="6070" width="100" height="640" as="geometry" />
        </mxCell>
        <mxCell id="qC6EbbmMjtv_qYYHKlpB-60" value="Web API" style="shape=umlLifeline;perimeter=lifelinePerimeter;whiteSpace=wrap;html=1;container=1;dropTarget=0;collapsible=0;recursiveResize=0;outlineConnect=0;portConstraint=eastwest;newEdgeStyle={&quot;curved&quot;:0,&quot;rounded&quot;:0};" vertex="1" parent="1">
          <mxGeometry x="-1400" y="6070" width="100" height="640" as="geometry" />
        </mxCell>
        <mxCell id="qC6EbbmMjtv_qYYHKlpB-61" value="Comms&amp;nbsp;&lt;div&gt;Service&lt;/div&gt;" style="shape=umlLifeline;perimeter=lifelinePerimeter;whiteSpace=wrap;html=1;container=1;dropTarget=0;collapsible=0;recursiveResize=0;outlineConnect=0;portConstraint=eastwest;newEdgeStyle={&quot;curved&quot;:0,&quot;rounded&quot;:0};" vertex="1" parent="1">
          <mxGeometry x="-1240" y="6070" width="100" height="640" as="geometry" />
        </mxCell>
        <mxCell id="qC6EbbmMjtv_qYYHKlpB-62" value="" style="html=1;points=[[0,0,0,0,5],[0,1,0,0,-5],[1,0,0,0,5],[1,1,0,0,-5]];perimeter=orthogonalPerimeter;outlineConnect=0;targetShapes=umlLifeline;portConstraint=eastwest;newEdgeStyle={&quot;curved&quot;:0,&quot;rounded&quot;:0};" vertex="1" parent="qC6EbbmMjtv_qYYHKlpB-61">
          <mxGeometry x="45" y="330" width="10" height="40" as="geometry" />
        </mxCell>
        <mxCell id="qC6EbbmMjtv_qYYHKlpB-63" value="Batch Process" style="html=1;align=left;spacingLeft=2;endArrow=block;rounded=0;edgeStyle=orthogonalEdgeStyle;curved=0;rounded=0;" edge="1" parent="qC6EbbmMjtv_qYYHKlpB-61" target="qC6EbbmMjtv_qYYHKlpB-62">
          <mxGeometry relative="1" as="geometry">
            <mxPoint x="50" y="310" as="sourcePoint" />
            <Array as="points">
              <mxPoint x="80" y="340" />
            </Array>
          </mxGeometry>
        </mxCell>
        <mxCell id="qC6EbbmMjtv_qYYHKlpB-64" value="" style="shape=umlLifeline;perimeter=lifelinePerimeter;whiteSpace=wrap;html=1;container=1;dropTarget=0;collapsible=0;recursiveResize=0;outlineConnect=0;portConstraint=eastwest;newEdgeStyle={&quot;curved&quot;:0,&quot;rounded&quot;:0};participant=umlEntity;" vertex="1" parent="1">
          <mxGeometry x="-1110" y="6070" width="40" height="640" as="geometry" />
        </mxCell>
        <mxCell id="qC6EbbmMjtv_qYYHKlpB-65" value="Stock System" style="shape=umlLifeline;perimeter=lifelinePerimeter;whiteSpace=wrap;html=1;container=1;dropTarget=0;collapsible=0;recursiveResize=0;outlineConnect=0;portConstraint=eastwest;newEdgeStyle={&quot;curved&quot;:0,&quot;rounded&quot;:0};" vertex="1" parent="1">
          <mxGeometry x="-1040" y="6070" width="100" height="640" as="geometry" />
        </mxCell>
        <mxCell id="qC6EbbmMjtv_qYYHKlpB-66" value="Invoice System" style="shape=umlLifeline;perimeter=lifelinePerimeter;whiteSpace=wrap;html=1;container=1;dropTarget=0;collapsible=0;recursiveResize=0;outlineConnect=0;portConstraint=eastwest;newEdgeStyle={&quot;curved&quot;:0,&quot;rounded&quot;:0};" vertex="1" parent="1">
          <mxGeometry x="-880" y="6070" width="100" height="640" as="geometry" />
        </mxCell>
        <mxCell id="qC6EbbmMjtv_qYYHKlpB-67" value="AWS SES" style="shape=umlLifeline;perimeter=lifelinePerimeter;whiteSpace=wrap;html=1;container=1;dropTarget=0;collapsible=0;recursiveResize=0;outlineConnect=0;portConstraint=eastwest;newEdgeStyle={&quot;curved&quot;:0,&quot;rounded&quot;:0};" vertex="1" parent="1">
          <mxGeometry x="-720" y="6070" width="100" height="640" as="geometry" />
        </mxCell>
        <mxCell id="qC6EbbmMjtv_qYYHKlpB-68" value="Delivery API" style="shape=umlLifeline;perimeter=lifelinePerimeter;whiteSpace=wrap;html=1;container=1;dropTarget=0;collapsible=0;recursiveResize=0;outlineConnect=0;portConstraint=eastwest;newEdgeStyle={&quot;curved&quot;:0,&quot;rounded&quot;:0};" vertex="1" parent="1">
          <mxGeometry x="-560" y="6070" width="100" height="640" as="geometry" />
        </mxCell>
        <mxCell id="qC6EbbmMjtv_qYYHKlpB-69" value="Payment Gateway" style="shape=umlLifeline;perimeter=lifelinePerimeter;whiteSpace=wrap;html=1;container=1;dropTarget=0;collapsible=0;recursiveResize=0;outlineConnect=0;portConstraint=eastwest;newEdgeStyle={&quot;curved&quot;:0,&quot;rounded&quot;:0};" vertex="1" parent="1">
          <mxGeometry x="-400" y="6070" width="100" height="640" as="geometry" />
        </mxCell>
        <mxCell id="qC6EbbmMjtv_qYYHKlpB-70" value="Open Web Site" style="html=1;verticalAlign=bottom;endArrow=block;curved=0;rounded=0;" edge="1" parent="1" target="qC6EbbmMjtv_qYYHKlpB-59">
          <mxGeometry width="80" relative="1" as="geometry">
            <mxPoint x="-1630" y="6140" as="sourcePoint" />
            <mxPoint x="-1550" y="6140" as="targetPoint" />
          </mxGeometry>
        </mxCell>
        <mxCell id="qC6EbbmMjtv_qYYHKlpB-71" value="Get Product List" style="html=1;verticalAlign=bottom;endArrow=block;curved=0;rounded=0;" edge="1" parent="1">
          <mxGeometry width="80" relative="1" as="geometry">
            <mxPoint x="-1510" y="6150" as="sourcePoint" />
            <mxPoint x="-1350.5" y="6150" as="targetPoint" />
          </mxGeometry>
        </mxCell>
        <mxCell id="qC6EbbmMjtv_qYYHKlpB-72" value="Get Products" style="html=1;verticalAlign=bottom;endArrow=block;curved=0;rounded=0;" edge="1" parent="1">
          <mxGeometry width="80" relative="1" as="geometry">
            <mxPoint x="-1350" y="6160" as="sourcePoint" />
            <mxPoint x="-990.5" y="6160" as="targetPoint" />
          </mxGeometry>
        </mxCell>
        <mxCell id="qC6EbbmMjtv_qYYHKlpB-73" value="Return Product Details and Image URL" style="html=1;verticalAlign=bottom;endArrow=open;dashed=1;endSize=8;curved=0;rounded=0;" edge="1" parent="1">
          <mxGeometry relative="1" as="geometry">
            <mxPoint x="-989.5" y="6190" as="sourcePoint" />
            <mxPoint x="-1350" y="6190" as="targetPoint" />
          </mxGeometry>
        </mxCell>
        <mxCell id="qC6EbbmMjtv_qYYHKlpB-74" value="" style="html=1;verticalAlign=bottom;endArrow=open;dashed=1;endSize=8;curved=0;rounded=0;" edge="1" parent="1">
          <mxGeometry relative="1" as="geometry">
            <mxPoint x="-1350" y="6190" as="sourcePoint" />
            <mxPoint x="-1510.5" y="6190" as="targetPoint" />
          </mxGeometry>
        </mxCell>
        <mxCell id="qC6EbbmMjtv_qYYHKlpB-75" value="Add Item To Basket" style="html=1;verticalAlign=bottom;endArrow=block;curved=0;rounded=0;" edge="1" parent="1">
          <mxGeometry width="80" relative="1" as="geometry">
            <mxPoint x="-1630" y="6219.5" as="sourcePoint" />
            <mxPoint x="-1510" y="6219.5" as="targetPoint" />
          </mxGeometry>
        </mxCell>
        <mxCell id="qC6EbbmMjtv_qYYHKlpB-76" value="Add Item To Basket" style="html=1;verticalAlign=bottom;endArrow=block;curved=0;rounded=0;" edge="1" parent="1" target="qC6EbbmMjtv_qYYHKlpB-60">
          <mxGeometry width="80" relative="1" as="geometry">
            <mxPoint x="-1510" y="6219.5" as="sourcePoint" />
            <mxPoint x="-1390" y="6219.5" as="targetPoint" />
          </mxGeometry>
        </mxCell>
        <mxCell id="qC6EbbmMjtv_qYYHKlpB-77" value="Store Basket Item" style="html=1;verticalAlign=bottom;endArrow=block;curved=0;rounded=0;" edge="1" parent="1" target="qC6EbbmMjtv_qYYHKlpB-64">
          <mxGeometry width="80" relative="1" as="geometry">
            <mxPoint x="-1350" y="6219.5" as="sourcePoint" />
            <mxPoint x="-1190" y="6220" as="targetPoint" />
          </mxGeometry>
        </mxCell>
        <mxCell id="qC6EbbmMjtv_qYYHKlpB-78" value="Checkout Basket" style="html=1;verticalAlign=bottom;endArrow=block;curved=0;rounded=0;" edge="1" parent="1">
          <mxGeometry width="80" relative="1" as="geometry">
            <mxPoint x="-1630" y="6250" as="sourcePoint" />
            <mxPoint x="-1510" y="6250" as="targetPoint" />
          </mxGeometry>
        </mxCell>
        <mxCell id="qC6EbbmMjtv_qYYHKlpB-79" value="Redirect User - Pass Token &amp;amp; Metadata" style="html=1;verticalAlign=bottom;endArrow=open;dashed=1;endSize=8;curved=0;rounded=0;" edge="1" parent="1" target="qC6EbbmMjtv_qYYHKlpB-69">
          <mxGeometry relative="1" as="geometry">
            <mxPoint x="-1510" y="6270" as="sourcePoint" />
            <mxPoint x="-1420" y="6270" as="targetPoint" />
          </mxGeometry>
        </mxCell>
        <mxCell id="qC6EbbmMjtv_qYYHKlpB-80" value="Complete Payment" style="html=1;verticalAlign=bottom;endArrow=block;curved=0;rounded=0;" edge="1" parent="1" target="qC6EbbmMjtv_qYYHKlpB-69">
          <mxGeometry width="80" relative="1" as="geometry">
            <mxPoint x="-1630" y="6300" as="sourcePoint" />
            <mxPoint x="-1510" y="6300" as="targetPoint" />
          </mxGeometry>
        </mxCell>
        <mxCell id="qC6EbbmMjtv_qYYHKlpB-81" value="Redirect On Completed Payment" style="html=1;verticalAlign=bottom;endArrow=open;dashed=1;endSize=8;curved=0;rounded=0;" edge="1" parent="1" target="qC6EbbmMjtv_qYYHKlpB-59">
          <mxGeometry relative="1" as="geometry">
            <mxPoint x="-350" y="6330" as="sourcePoint" />
            <mxPoint x="-430" y="6330" as="targetPoint" />
          </mxGeometry>
        </mxCell>
        <mxCell id="qC6EbbmMjtv_qYYHKlpB-82" value="Store Order Status" style="html=1;verticalAlign=bottom;endArrow=block;curved=0;rounded=0;" edge="1" parent="1" target="qC6EbbmMjtv_qYYHKlpB-64">
          <mxGeometry width="80" relative="1" as="geometry">
            <mxPoint x="-1510" y="6360" as="sourcePoint" />
            <mxPoint x="-1390" y="6360" as="targetPoint" />
          </mxGeometry>
        </mxCell>
        <mxCell id="qC6EbbmMjtv_qYYHKlpB-83" value="Get Order" style="html=1;verticalAlign=bottom;endArrow=block;curved=0;rounded=0;" edge="1" parent="1">
          <mxGeometry width="80" relative="1" as="geometry">
            <mxPoint x="-1189.75" y="6450" as="sourcePoint" />
            <mxPoint x="-990.25" y="6450" as="targetPoint" />
          </mxGeometry>
        </mxCell>
        <mxCell id="qC6EbbmMjtv_qYYHKlpB-84" value="Send Order Email" style="html=1;verticalAlign=bottom;endArrow=block;curved=0;rounded=0;" edge="1" parent="1" target="qC6EbbmMjtv_qYYHKlpB-67">
          <mxGeometry x="0.0014" width="80" relative="1" as="geometry">
            <mxPoint x="-1189.75" y="6480" as="sourcePoint" />
            <mxPoint x="-990.25" y="6480" as="targetPoint" />
            <mxPoint as="offset" />
          </mxGeometry>
        </mxCell>
        <mxCell id="qC6EbbmMjtv_qYYHKlpB-85" value="Generate Invoice" style="html=1;verticalAlign=bottom;endArrow=block;curved=0;rounded=0;" edge="1" parent="1" target="qC6EbbmMjtv_qYYHKlpB-66">
          <mxGeometry width="80" relative="1" as="geometry">
            <mxPoint x="-1189.75" y="6510" as="sourcePoint" />
            <mxPoint x="-990.25" y="6510" as="targetPoint" />
          </mxGeometry>
        </mxCell>
        <mxCell id="qC6EbbmMjtv_qYYHKlpB-86" value="Return Invoice" style="html=1;verticalAlign=bottom;endArrow=open;dashed=1;endSize=8;curved=0;rounded=0;" edge="1" parent="1" target="qC6EbbmMjtv_qYYHKlpB-61">
          <mxGeometry relative="1" as="geometry">
            <mxPoint x="-830" y="6540" as="sourcePoint" />
            <mxPoint x="-910" y="6540" as="targetPoint" />
          </mxGeometry>
        </mxCell>
        <mxCell id="qC6EbbmMjtv_qYYHKlpB-87" value="Send pick and delivery request" style="html=1;verticalAlign=bottom;endArrow=block;curved=0;rounded=0;" edge="1" parent="1" target="qC6EbbmMjtv_qYYHKlpB-68">
          <mxGeometry width="80" relative="1" as="geometry">
            <mxPoint x="-1190" y="6570" as="sourcePoint" />
            <mxPoint x="-830.25" y="6570" as="targetPoint" />
          </mxGeometry>
        </mxCell>
        <mxCell id="qC6EbbmMjtv_qYYHKlpB-88" value="Check Delivery Status = Delivered" style="html=1;verticalAlign=bottom;endArrow=block;curved=0;rounded=0;" edge="1" parent="1" target="qC6EbbmMjtv_qYYHKlpB-68">
          <mxGeometry width="80" relative="1" as="geometry">
            <mxPoint x="-1190" y="6610" as="sourcePoint" />
            <mxPoint x="-670" y="6610" as="targetPoint" />
          </mxGeometry>
        </mxCell>
        <mxCell id="qC6EbbmMjtv_qYYHKlpB-89" value="frame" style="shape=umlFrame;whiteSpace=wrap;html=1;pointerEvents=0;" vertex="1" parent="1">
          <mxGeometry x="-1525" y="6630" width="890" height="120" as="geometry" />
        </mxCell>
        <mxCell id="qC6EbbmMjtv_qYYHKlpB-90" value="Send Invoice Email" style="html=1;verticalAlign=bottom;endArrow=block;curved=0;rounded=0;" edge="1" parent="1" target="qC6EbbmMjtv_qYYHKlpB-67">
          <mxGeometry width="80" relative="1" as="geometry">
            <mxPoint x="-1190" y="6660" as="sourcePoint" />
            <mxPoint x="-770" y="6660" as="targetPoint" />
          </mxGeometry>
        </mxCell>
        <mxCell id="qC6EbbmMjtv_qYYHKlpB-91" value="Send Email (Order, Invoice)" style="html=1;verticalAlign=bottom;endArrow=open;dashed=1;endSize=8;curved=0;rounded=0;" edge="1" parent="1" target="qC6EbbmMjtv_qYYHKlpB-59">
          <mxGeometry relative="1" as="geometry">
            <mxPoint x="-670" y="6700" as="sourcePoint" />
            <mxPoint x="-1030" y="6700" as="targetPoint" />
          </mxGeometry>
        </mxCell>
        <mxCell id="qC6EbbmMjtv_qYYHKlpB-92" value="Single Page Web Application" style="verticalAlign=top;align=left;spacingTop=8;spacingLeft=2;spacingRight=12;shape=cube;size=10;direction=south;fontStyle=4;html=1;whiteSpace=wrap;" vertex="1" parent="1">
          <mxGeometry x="-1650" y="6800" width="330" height="360" as="geometry" />
        </mxCell>
        <mxCell id="qC6EbbmMjtv_qYYHKlpB-93" value="ASP Net Core 3.1 MVC Container" style="verticalAlign=top;align=left;spacingTop=8;spacingLeft=2;spacingRight=12;shape=cube;size=10;direction=south;fontStyle=4;html=1;whiteSpace=wrap;" vertex="1" parent="1">
          <mxGeometry x="-1630" y="6840" width="290" height="290" as="geometry" />
        </mxCell>
        <mxCell id="qC6EbbmMjtv_qYYHKlpB-94" value="Product Views" style="shape=module;align=left;spacingLeft=20;align=center;verticalAlign=top;whiteSpace=wrap;html=1;" vertex="1" parent="1">
          <mxGeometry x="-1610" y="6880" width="240" height="30" as="geometry" />
        </mxCell>
        <mxCell id="qC6EbbmMjtv_qYYHKlpB-95" value="Product Controller" style="shape=module;align=left;spacingLeft=20;align=center;verticalAlign=top;whiteSpace=wrap;html=1;" vertex="1" parent="1">
          <mxGeometry x="-1610" y="6920" width="240" height="30" as="geometry" />
        </mxCell>
        <mxCell id="qC6EbbmMjtv_qYYHKlpB-96" value="Basket Views" style="shape=module;align=left;spacingLeft=20;align=center;verticalAlign=top;whiteSpace=wrap;html=1;" vertex="1" parent="1">
          <mxGeometry x="-1610" y="6960" width="240" height="30" as="geometry" />
        </mxCell>
        <mxCell id="qC6EbbmMjtv_qYYHKlpB-97" value="Basket Controller" style="shape=module;align=left;spacingLeft=20;align=center;verticalAlign=top;whiteSpace=wrap;html=1;" vertex="1" parent="1">
          <mxGeometry x="-1610" y="7000" width="240" height="30" as="geometry" />
        </mxCell>
        <mxCell id="qC6EbbmMjtv_qYYHKlpB-98" value="Customer Account Views" style="shape=module;align=left;spacingLeft=20;align=center;verticalAlign=top;whiteSpace=wrap;html=1;" vertex="1" parent="1">
          <mxGeometry x="-1610" y="7040" width="240" height="30" as="geometry" />
        </mxCell>
        <mxCell id="qC6EbbmMjtv_qYYHKlpB-99" value="Customer Account Controller" style="shape=module;align=left;spacingLeft=20;align=center;verticalAlign=top;whiteSpace=wrap;html=1;" vertex="1" parent="1">
          <mxGeometry x="-1610" y="7080" width="240" height="30" as="geometry" />
        </mxCell>
        <mxCell id="qC6EbbmMjtv_qYYHKlpB-100" value="App Services (Web API)" style="verticalAlign=top;align=left;spacingTop=8;spacingLeft=2;spacingRight=12;shape=cube;size=10;direction=south;fontStyle=4;html=1;whiteSpace=wrap;" vertex="1" parent="1">
          <mxGeometry x="-1280" y="6800" width="330" height="360" as="geometry" />
        </mxCell>
        <mxCell id="qC6EbbmMjtv_qYYHKlpB-101" value=".Net WebAPI Core 3.1 MVC Container" style="verticalAlign=top;align=left;spacingTop=8;spacingLeft=2;spacingRight=12;shape=cube;size=10;direction=south;fontStyle=4;html=1;whiteSpace=wrap;" vertex="1" parent="1">
          <mxGeometry x="-1260" y="6840" width="290" height="290" as="geometry" />
        </mxCell>
        <mxCell id="qC6EbbmMjtv_qYYHKlpB-102" value="Product Views" style="shape=module;align=left;spacingLeft=20;align=center;verticalAlign=top;whiteSpace=wrap;html=1;" vertex="1" parent="1">
          <mxGeometry x="-1240" y="6880" width="240" height="30" as="geometry" />
        </mxCell>
        <mxCell id="qC6EbbmMjtv_qYYHKlpB-103" value="Product Controller" style="shape=module;align=left;spacingLeft=20;align=center;verticalAlign=top;whiteSpace=wrap;html=1;" vertex="1" parent="1">
          <mxGeometry x="-1240" y="6920" width="240" height="30" as="geometry" />
        </mxCell>
        <mxCell id="qC6EbbmMjtv_qYYHKlpB-104" value="Basket Views" style="shape=module;align=left;spacingLeft=20;align=center;verticalAlign=top;whiteSpace=wrap;html=1;" vertex="1" parent="1">
          <mxGeometry x="-1240" y="6960" width="240" height="30" as="geometry" />
        </mxCell>
        <mxCell id="qC6EbbmMjtv_qYYHKlpB-105" value="Basket Controller" style="shape=module;align=left;spacingLeft=20;align=center;verticalAlign=top;whiteSpace=wrap;html=1;" vertex="1" parent="1">
          <mxGeometry x="-1240" y="7000" width="240" height="30" as="geometry" />
        </mxCell>
        <mxCell id="qC6EbbmMjtv_qYYHKlpB-106" value="Customer Account Views" style="shape=module;align=left;spacingLeft=20;align=center;verticalAlign=top;whiteSpace=wrap;html=1;" vertex="1" parent="1">
          <mxGeometry x="-1240" y="7040" width="240" height="30" as="geometry" />
        </mxCell>
        <mxCell id="qC6EbbmMjtv_qYYHKlpB-107" value="Customer Account Controller" style="shape=module;align=left;spacingLeft=20;align=center;verticalAlign=top;whiteSpace=wrap;html=1;" vertex="1" parent="1">
          <mxGeometry x="-1240" y="7080" width="240" height="30" as="geometry" />
        </mxCell>
        <mxCell id="qC6EbbmMjtv_qYYHKlpB-108" value="MySQL Database" style="verticalAlign=top;align=left;spacingTop=8;spacingLeft=2;spacingRight=12;shape=cube;size=10;direction=south;fontStyle=4;html=1;whiteSpace=wrap;" vertex="1" parent="1">
          <mxGeometry x="-910" y="6800" width="330" height="360" as="geometry" />
        </mxCell>
        <mxCell id="qC6EbbmMjtv_qYYHKlpB-109" value="The Funny Hat Shop Database" style="verticalAlign=top;align=left;spacingTop=8;spacingLeft=2;spacingRight=12;shape=cube;size=10;direction=south;fontStyle=4;html=1;whiteSpace=wrap;" vertex="1" parent="1">
          <mxGeometry x="-890" y="6840" width="290" height="290" as="geometry" />
        </mxCell>
        <mxCell id="qC6EbbmMjtv_qYYHKlpB-110" value="Customer Account Table" style="shape=module;align=left;spacingLeft=20;align=center;verticalAlign=top;whiteSpace=wrap;html=1;" vertex="1" parent="1">
          <mxGeometry x="-870" y="6880" width="240" height="50" as="geometry" />
        </mxCell>
        <mxCell id="qC6EbbmMjtv_qYYHKlpB-111" value="Basket Table" style="shape=module;align=left;spacingLeft=20;align=center;verticalAlign=top;whiteSpace=wrap;html=1;" vertex="1" parent="1">
          <mxGeometry x="-870" y="6940" width="240" height="50" as="geometry" />
        </mxCell>
        <mxCell id="qC6EbbmMjtv_qYYHKlpB-112" value="Basket Item Table" style="shape=module;align=left;spacingLeft=20;align=center;verticalAlign=top;whiteSpace=wrap;html=1;" vertex="1" parent="1">
          <mxGeometry x="-870" y="7000" width="240" height="50" as="geometry" />
        </mxCell>
        <mxCell id="qC6EbbmMjtv_qYYHKlpB-113" value="Audit Table" style="shape=module;align=left;spacingLeft=20;align=center;verticalAlign=top;whiteSpace=wrap;html=1;" vertex="1" parent="1">
          <mxGeometry x="-870" y="7060" width="240" height="50" as="geometry" />
        </mxCell>
        <mxCell id="qC6EbbmMjtv_qYYHKlpB-114" value="Comms Services (C# Net)" style="verticalAlign=top;align=left;spacingTop=8;spacingLeft=2;spacingRight=12;shape=cube;size=10;direction=south;fontStyle=4;html=1;whiteSpace=wrap;" vertex="1" parent="1">
          <mxGeometry x="-1650" y="7180" width="330" height="360" as="geometry" />
        </mxCell>
        <mxCell id="qC6EbbmMjtv_qYYHKlpB-115" value=".NET Core 3.1 MVC Container" style="verticalAlign=top;align=left;spacingTop=8;spacingLeft=2;spacingRight=12;shape=cube;size=10;direction=south;fontStyle=4;html=1;whiteSpace=wrap;" vertex="1" parent="1">
          <mxGeometry x="-1630" y="7220" width="290" height="290" as="geometry" />
        </mxCell>
        <mxCell id="qC6EbbmMjtv_qYYHKlpB-116" value="Order Batch Service" style="shape=module;align=left;spacingLeft=20;align=center;verticalAlign=top;whiteSpace=wrap;html=1;" vertex="1" parent="1">
          <mxGeometry x="-1610" y="7260" width="240" height="50" as="geometry" />
        </mxCell>
        <mxCell id="qC6EbbmMjtv_qYYHKlpB-117" value="Delivery Batch Service" style="shape=module;align=left;spacingLeft=20;align=center;verticalAlign=top;whiteSpace=wrap;html=1;" vertex="1" parent="1">
          <mxGeometry x="-1610" y="7320" width="240" height="50" as="geometry" />
        </mxCell>
        <mxCell id="qC6EbbmMjtv_qYYHKlpB-118" value="Invoice Batch Service" style="shape=module;align=left;spacingLeft=20;align=center;verticalAlign=top;whiteSpace=wrap;html=1;" vertex="1" parent="1">
          <mxGeometry x="-1610" y="7380" width="240" height="50" as="geometry" />
        </mxCell>
        <mxCell id="qC6EbbmMjtv_qYYHKlpB-119" value="Email Batch Service" style="shape=module;align=left;spacingLeft=20;align=center;verticalAlign=top;whiteSpace=wrap;html=1;" vertex="1" parent="1">
          <mxGeometry x="-1610" y="7440" width="240" height="50" as="geometry" />
        </mxCell>
      </root>
    </mxGraphModel>
  </diagram>
</mxfile>
